<svg xmlns="http://www.w3.org/2000/svg" viewBox="0 0 186.57 56.92"><defs><style>.cls-1{fill:#05f;}</style></defs><g id="Layer_2" data-name="Layer 2"><g id="Layer_2-2" data-name="Layer 2"><path class="cls-1" d="M0,0H25.07V11.39H14.8V22.18h9.14V33H14.8V56.92H0Z"/><path class="cls-1" d="M43.45,0V45.53h9V56.92H28.65V0Z"/><path class="cls-1" d="M56,0H80.72V11.39H70.84V22.18h9.25V33H70.84V45.53H81.7V56.92H56Z"/><path class="cls-1" d="M119,0V56.92h0L102.33,44.48,98.33,31v13.5L86,56.92h0V0h1.46l14.27,10.38,4.94,15.25V12.37L119,0Z"/><path class="cls-1" d="M149.7,0V11.39l-11,34.14h11V56.92H122.41V48.66L133.8,11.39H123.75V0Z"/><path class="cls-1" d="M153.53,0H164q10.49,0,14.19.81a9.76,9.76,0,0,1,6.05,4.13q2.32,3.32,2.33,10.6,0,6.65-1.65,8.93c-1.1,1.52-3.27,2.44-6.5,2.74q4.4,1.09,5.9,2.92a8.79,8.79,0,0,1,1.89,3.36,54.3,54.3,0,0,1,.36,8.42v15H172.83V38q0-4.56-.72-5.66c-.48-.72-1.74-1.09-3.78-1.09V56.92h-14.8Zm14.8,9.74V22.39a6.52,6.52,0,0,0,3.5-.68c.66-.46,1-1.94,1-4.45V14.13c0-1.8-.32-3-1-3.55A5.5,5.5,0,0,0,168.33,9.74Z"/></g></g></svg>