<svg xmlns="http://www.w3.org/2000/svg" viewBox="0 0 186.77 57.05"><g id="Layer_2" data-name="Layer 2"><g id="Layer_2-2" data-name="Layer 2"><path d="M0,.13H25.07V11.52H14.8v10.8h9.14V33.14H14.8V57.05H0Z"/><path d="M43.45.13V45.66h9V57.05H28.65V.13Z"/><path d="M56,.13H80.72V11.52H70.84v10.8h9.25V33.14H70.84V45.66H81.7V57.05H56Z"/><path d="M119,.13V57.05h0L102.33,44.62l-4-13.44v13.5L86,57.05h0V.13h1.46l14.27,10.38,4.94,15.25V12.51L119,.13Z"/><path d="M149.7.13V11.52l-11,34.14h11V57.05H122.41c-2.26-5.56,9.93-39.7,11.39-45.53H123.75V.13Z"/><path d="M153.53.13c10.33,1,24.94-2.91,30.71,4.94,3.2,5.78,5.21,22.83-5.82,22.27,8.62,2.47,8.06,5.49,8.15,14.7v15H172.83V38.14c-.32-5.23.54-6.6-4.5-6.75V57.05h-14.8Zm14.8,9.74V22.53c4-.13,4.4-.56,4.5-5.14C172.87,13.64,173.43,9.32,168.33,9.87Z"/></g></g></svg>