<?xml version="1.0" encoding="UTF-8"?><svg id="Layer_2" xmlns="http://www.w3.org/2000/svg" viewBox="0 0 186.57 56.92"><defs><style>.cls-1{fill:#4525f2;}</style></defs><g id="Layer_2-2"><g><path class="cls-1" d="M0,0H25.07V11.39H14.8v10.79h9.14v10.83H14.8v23.91H0V0Z"/><path class="cls-1" d="M43.45,0V45.53h9v11.39H28.65V0h14.8Z"/><path class="cls-1" d="M56.04,0h24.68V11.39h-9.88v10.79h9.25v10.83h-9.25v12.52h10.86v11.39h-25.66V0Z"/><path class="cls-1" d="M119,0V56.92h0l-16.67-12.43-4-13.44v13.5c-4.83,4.83-7.54,7.54-12.37,12.37h0V0h1.46c5.26,3.83,9.01,6.55,14.27,10.38l4.94,15.25V12.37c4.83-4.83,7.54-7.54,12.37-12.37h0Z"/><path class="cls-1" d="M149.7,0V11.39l-11.02,34.14h11.02v11.39h-27.28v-8.26l11.39-37.27h-10.05V0h25.95Z"/><path class="cls-1" d="M153.53,0h10.48c6.98,0,11.71,.27,14.19,.81,2.47,.54,4.49,1.92,6.05,4.13,1.56,2.21,2.34,5.75,2.34,10.6,0,4.43-.55,7.41-1.65,8.93-1.1,1.52-3.27,2.44-6.5,2.74,2.93,.73,4.9,1.7,5.91,2.92,1.01,1.22,1.63,2.34,1.88,3.36s.37,3.83,.37,8.42v15.01h-13.75v-18.91c0-3.05-.24-4.93-.72-5.66-.48-.73-1.74-1.09-3.78-1.09v25.66h-14.8V0Zm14.8,9.74v12.66c1.66,0,2.83-.23,3.5-.69s1-1.94,1-4.45v-3.13c0-1.8-.32-2.99-.97-3.55-.65-.56-1.82-.84-3.53-.84Z"/></g></g></svg>