<svg id="campfire" xmlns="http://www.w3.org/2000/svg" viewBox="0 0 253.79 271.25"><defs><style>.cls-1{fill:#fff3cc;}.cls-13,.cls-14,.cls-15,.cls-16,.cls-2,.cls-4,.cls-5{fill:none;}.cls-2{stroke:#e8e8e8;}.cls-13,.cls-15,.cls-16,.cls-2,.cls-3,.cls-4,.cls-5{stroke-linecap:round;stroke-linejoin:round;}.cls-2,.cls-3,.cls-4{stroke-width:3px;}.cls-3{fill:#ffe589;stroke:#ceb474;}.cls-3,.cls-9{opacity:0.25;}.cls-4,.cls-5{stroke:#c9bc9f;}.cls-5{stroke-width:1.5px;}.cls-6{fill:#ccc;}.cls-7{fill:#d67878;}.cls-8{fill:#fff2bb;}.cls-10{opacity:0.75;}.cls-11{fill:#c95b5b;}.cls-12{fill:#fff;}.cls-13{stroke:#7f2f2f;}.cls-13,.cls-15{stroke-width:4px;}.cls-15,.cls-16{stroke:#333;}.cls-16{stroke-width:2px;}</style></defs><title>camp-fire-light</title><g id="Layer_13" data-name="Layer 13"><polygon class="cls-1" points="126.9 56.25 241.79 253.99 12 253.99 126.89 56.25 126.9 56.25"/></g><g id="background"><line class="cls-2" x1="68.04" y1="157.54" x2="68.04" y2="31.67"/><polyline class="cls-2" points="94.04 57.67 68.04 31.67 42.04 57.67"/><polyline class="cls-2" points="225.25 101.58 205.25 81.58 185.25 101.58"/><polyline class="cls-2" points="225.25 114.65 205.25 94.65 185.25 114.65"/><line class="cls-2" x1="205.25" y1="191.1" x2="205.25" y2="81.58"/><polyline class="cls-2" points="225.25 145 205.25 125 185.25 145"/><polyline class="cls-2" points="94.04 87.67 68.04 61.67 42.04 87.67"/><path class="cls-3" d="M488,268.46a20,20,0,0,1,10.47,36.63c.2,0,.4,0,.6,0A20,20,0,1,0,488,268.46Z" transform="translate(-278.69 -263.61)"/><line class="cls-2" x1="6.18" y1="77.93" x2="6.18" y2="83.93"/><line class="cls-2" x1="9.18" y1="80.93" x2="3.18" y2="80.93"/><line class="cls-2" x1="185.25" y1="56.25" x2="185.25" y2="62.25"/><line class="cls-2" x1="188.25" y1="59.25" x2="182.25" y2="59.25"/><line class="cls-2" x1="91.04" y1="4.73" x2="91.04" y2="10.73"/><line class="cls-2" x1="94.04" y1="7.73" x2="88.04" y2="7.73"/><line class="cls-2" x1="83.09" y1="109.67" x2="83.09" y2="115.67"/><line class="cls-2" x1="86.09" y1="112.67" x2="80.09" y2="112.67"/><line class="cls-2" x1="16.18" y1="92.93" x2="16.18" y2="98.93"/><line class="cls-2" x1="19.18" y1="95.93" x2="13.18" y2="95.93"/><line class="cls-2" x1="29.25" y1="224.3" x2="29.25" y2="139.58"/><polyline class="cls-2" points="44.25 154.58 29.25 139.58 14.25 154.58"/><polyline class="cls-2" points="44.25 174.58 29.25 159.58 14.25 174.58"/><polyline class="cls-4" points="137.79 37.5 12 253.99 5.42 234.13"/><line class="cls-4" x1="241.79" y1="253.99" x2="116" y2="37.5"/><line class="cls-5" x1="28.38" y1="238.5" x2="20" y2="253.99"/><line class="cls-5" x1="39.39" y1="218.13" x2="31.08" y2="233.5"/><line class="cls-5" x1="37.93" y1="234.13" x2="28" y2="253.99"/><line class="cls-4" x1="121.9" y1="56.25" x2="131.9" y2="56.25"/><line class="cls-4" x1="3.09" y1="234.9" x2="7.09" y2="233.58"/><line class="cls-4" x1="241.81" y1="253.99" x2="244.12" y2="233.2"/><line class="cls-4" x1="246.56" y1="233.47" x2="242.37" y2="233"/><line class="cls-5" x1="193.57" y1="214.44" x2="192.5" y2="211.89"/><line class="cls-5" x1="190.34" y1="206.78" x2="186.81" y2="198.4"/><line class="cls-5" x1="210.25" y1="253.99" x2="195.73" y2="219.56"/><line class="cls-5" x1="228.75" y1="253.99" x2="218.2" y2="233.5"/><line class="cls-5" x1="221.25" y1="253.99" x2="215.46" y2="241.86"/></g><g id="color"><path class="cls-6" d="M467.94,517.6h-7.21c-1.08-5-3.58-10.1-9.29-13.49a46.74,46.74,0,0,0-13.07-5.39h0c13.18-9.22,28.07,3.9,32.15,7.32s3,11.57,3,11.57Z" transform="translate(-278.69 -263.61)"/><path class="cls-6" d="M445.73,526H432.52c-1-2.09-2.59-3.86-5.33-3.92.46-4.45,1.68-13.25-3-19.66,1.75-3.36,5.36-4.58,9.71-4.36a24.73,24.73,0,0,1,4.43.63,46.74,46.74,0,0,1,13.07,5.39c5.71,3.39,8.21,8.48,9.29,13.49a42.31,42.31,0,0,1,.82,8.43Z" transform="translate(-278.69 -263.61)"/><path class="cls-7" d="M433.94,439.86c14.25,13.75,14.5,38.75,0,58.23-4.35-.22-8,1-9.71,4.36a15.15,15.15,0,0,0-1.93-2.19c3.56-8.57,1.56-20.23-3.61-24.57-.5,9.67-3.8,16-9.82,19.32-.62-.07-1.26-.12-1.93-.15,4.58-11.67-11.62-34.33-3.35-60.33-10.73,22-40.48,31.61-18.95,67.13a11.06,11.06,0,0,0-1.42,3.79,42.84,42.84,0,0,0-8.61-5.19h0c-27.87-25.57-21.41-59.06-2.91-77.39,19.33-19.16,33.25-34.25,28-55.75,37.5,26,28.25,76.25,18.25,93.23C423.69,457.82,431.44,450.36,433.94,439.86Z" transform="translate(-278.69 -263.61)"/><path class="cls-6" d="M424.23,502.45c4.64,6.41,3.42,15.21,3,19.66,2.74.06,4.36,1.83,5.33,3.92a18.75,18.75,0,0,1,1.42,6.83h-57.5a37.23,37.23,0,0,1-.75-6.83c-.19-10.1,4-17.48,7.25-18.92.08-.36.14-.94.28-1.66a11.06,11.06,0,0,1,1.42-3.79c2.24-3.67,7.8-7.56,22.3-6.8.67,0,1.31.08,1.93.15,6.34.62,10.6,2.6,13.43,5.25A15.15,15.15,0,0,1,424.23,502.45Z" transform="translate(-278.69 -263.61)"/><path class="cls-7" d="M422.48,361.11c2.21,0,4,2.69,4,6s-1.79,6-4,6-4-2.69-4-6S420.28,361.11,422.48,361.11Z" transform="translate(-278.69 -263.61)"/><path class="cls-8" d="M418.69,475.69c5.17,4.34,7.17,16,3.61,24.57-2.83-2.65-7.09-4.63-13.43-5.25C414.89,491.65,418.19,485.36,418.69,475.69Z" transform="translate(-278.69 -263.61)"/><path class="cls-8" d="M403.59,434.53c-8.27,26,7.93,48.66,3.35,60.33-14.5-.76-20.06,3.13-22.3,6.8C363.11,466.14,392.86,456.53,403.59,434.53Z" transform="translate(-278.69 -263.61)"/><circle class="cls-7" cx="120.83" cy="72.25" r="4"/><path class="cls-6" d="M367.5,526H342.27s-2.33-3.42-2.16-5.25A12.82,12.82,0,0,1,342,517.6c3.91-5.43,12.88-16,18.82-19.4h0a6.69,6.69,0,0,1,3.16-1.09c3,0,7,1.44,10.58,3.14h0a42.84,42.84,0,0,1,8.61,5.19c-.14.72-.2,1.3-.28,1.66-3.29,1.44-7.44,8.82-7.25,18.92H367.5Z" transform="translate(-278.69 -263.61)"/><path class="cls-6" d="M332.61,517.6s13.24-29.14,28.24-19.4c-5.94,3.4-14.91,14-18.82,19.4Z" transform="translate(-278.69 -263.61)"/></g><g id="shadows"><path class="cls-9" d="M411.13,505.7c.84-.34,4-1.81,4,.59.84-.75,1.88-2.28,0-3S410.35,503.67,411.13,505.7Z" transform="translate(-278.69 -263.61)"/><path class="cls-9" d="M354,513.73c.21-.89.88-4.33,2.83-2.93-.12-1.12-.76-2.85-2.46-1.77S351.91,513.19,354,513.73Z" transform="translate(-278.69 -263.61)"/><g class="cls-10"><path class="cls-8" d="M390.53,508.69c-.83-3.92,8.58-16.31,30.58-7-5-5.09-17.73-8.88-27.11-5.93a15.43,15.43,0,0,0-10.77,11.35A9.75,9.75,0,0,1,390.53,508.69Z" transform="translate(-278.69 -263.61)"/><path class="cls-8" d="M381,507.13c-12.33-4.85-17.67-10.93-38.75,13.15-2.75-1.75,14.47-20.44,18.36-22.22s21.91,7.8,21.91,7.8Z" transform="translate(-278.69 -263.61)"/><path class="cls-8" d="M427.07,505.47c7.13-4.23,15.65-4.55,32.82,9.11-8.57-11.84-19.05-18.59-28.32-16.45s-8.13,4.91-8.13,4.91Z" transform="translate(-278.69 -263.61)"/><path class="cls-8" d="M356.23,501.66c-4.28-1-10.13-.52-16.12,4.88,12.51-11.52,11.9-12.71,20.54-8.49A25,25,0,0,1,356.23,501.66Z" transform="translate(-278.69 -263.61)"/><path class="cls-8" d="M446.75,501.58c5.19-2,13.32-1.32,20.52,4.34-1.41-6.71-3.81-6.06-11.25-8.81s-16.63.95-16.63.95Z" transform="translate(-278.69 -263.61)"/><path class="cls-8" d="M399.73,531.77c2.52-8.6,3-9.29,10.58-11.91-6,4.38-5.61,8.35-6.46,13.67C401.76,533.84,399.73,531.77,399.73,531.77Z" transform="translate(-278.69 -263.61)"/><path class="cls-8" d="M390.53,509.36c2.54,3.56-11.83-3.37-11.83,22.13-2.39.65-2.75,0-2.75,0s-1.25-21.94,7.28-23.81S390.53,509.36,390.53,509.36Z" transform="translate(-278.69 -263.61)"/><path class="cls-8" d="M417.19,531.77c.63-4,3.25-8.62,9.58-9.12,5.69.94,5.29,6.83,5.29,6.83-3.19-5.56-11.37-2.37-13.94,2C417.44,532.86,417.19,531.77,417.19,531.77Z" transform="translate(-278.69 -263.61)"/><path class="cls-8" d="M445.31,524.3c.76-5.94,0-13.56,13-9.35,2.1,1.83,1.53,5.54,1.53,5.54-4.64-6.31-13.26-4.19-13.76,3.81C445.76,524.8,445.31,524.3,445.31,524.3Z" transform="translate(-278.69 -263.61)"/></g><path class="cls-11" d="M431.57,498.12c10.25-21.64,9.63-36.91,2.63-43.41-3.12,5.75-13.09,10.9-22,10.27,7.13-16.5,15.71-53.18-5.17-76.3-2.87,20.58-35,40.18-41.33,53.43-4.08,8.55-11,29.18,10.19,58.28-15.81-12.4-27.29-35.62-15.24-62.19S404,402.38,400.23,369c15.84,5.63,37.8,45.36,18.09,90.75,6.32-1.37,15-13.48,15.89-19.61,18.24,28.49,9.8,39.12.46,57.62A5,5,0,0,1,431.57,498.12Z" transform="translate(-278.69 -263.61)"/><ellipse class="cls-11" cx="366.68" cy="453.86" rx="5.88" ry="2.25" transform="translate(-415.58 484.98) rotate(-81.41)"/><path class="cls-12" d="M389.75,497.73c-4.37-4.92-6.81-12.62,1.78-18.62,5.63-4.11,9,7.55,5.8,16C394.79,494.9,389.75,497.73,389.75,497.73Z" transform="translate(-278.69 -263.61)"/><path class="cls-11" d="M424.22,500.38c3.47-6,5.22-7.28,5.6-14.15,2,3.63,5.89,5.46,9-9.46-1.13,9.08-4,20.74-7.26,21.35A47.6,47.6,0,0,0,424.22,500.38Z" transform="translate(-278.69 -263.61)"/><ellipse class="cls-11" cx="433.61" cy="479.1" rx="5.3" ry="2.58" transform="translate(-392.41 558.99) rotate(-79.97)"/><circle class="cls-11" cx="156.83" cy="206.78" r="1.25"/><path class="cls-11" d="M419.42,416.36c.66,13.73-5.61,27.62-8.61,31,4.5-1.87,8-1.19,5.07,7.35,0,0,5.31-5.12,6.81-19.17S419.42,416.36,419.42,416.36ZM417.76,443c-.66,1.42-1.77,2.3-2.47,2s-.73-1.74-.07-3.16,1.77-2.3,2.47-2S418.42,441.57,417.76,443Z" transform="translate(-278.69 -263.61)"/><path class="cls-11" d="M385,420.71s1.78-7.73-12.6,7.52-9.55,21.31-9.55,21.31c3.58-15.19,14.17-12.31,9.42-4,6.13-4.56,12.75-9.69,17.38-21.69C384.07,430,379,426.54,385,420.71ZM379,438c-.39.54-1,.79-1.28.57s-.25-.85.14-1.39,1-.79,1.28-.57S379.4,437.48,379,438Zm2-5.49c-1.16,1.45-2.84,2-3.74,1.3s-.69-2.48.47-3.93,2.84-2,3.74-1.3S382.14,431.09,381,432.53Z" transform="translate(-278.69 -263.61)"/></g><g id="lines"><path class="cls-13" d="M433.94,498.08c14.5-19.48,14.25-44.48,0-58.23-2.5,10.5-10.25,18-16,20.48,10-17,19.25-67.23-18.25-93.23,5.25,21.5-8.67,36.59-28,55.75-18.5,18.33-25,51.83,2.92,77.4" transform="translate(-278.69 -263.61)"/><path class="cls-14" d="M422.3,500.26c3.56-8.57,1.56-20.23-3.61-24.57-.5,9.67-3.8,16-9.82,19.31" transform="translate(-278.69 -263.61)"/><path class="cls-14" d="M406.94,494.86c4.58-11.67-11.62-34.33-3.35-60.33-10.73,22-40.49,31.61-18.94,67.14" transform="translate(-278.69 -263.61)"/><path class="cls-15" d="M376.44,532.86h57.5s0-10.62-6.75-10.75c.75-7.25,3.5-26-20.25-27.25s-23.5,10-24,12.25C378.94,508.86,373.69,519.36,376.44,532.86Z" transform="translate(-278.69 -263.61)"/><path class="cls-15" d="M375.68,526H342.28s-2.33-3.42-2.17-5.25,17.33-23.67,23.92-23.67,17.63,6.77,19.2,8.34" transform="translate(-278.69 -263.61)"/><path class="cls-15" d="M424.22,502.46h0c3.91-7.51,17.08-4.34,27.21,1.66,9.09,5.39,10,15.1,10.11,21.92" transform="translate(-278.69 -263.61)"/><path class="cls-15" d="M342,517.6h-9.43s13.26-29.15,28.25-19.41" transform="translate(-278.69 -263.61)"/><path class="cls-15" d="M460.73,517.6h12.8s1.08-8.16-3-11.58-19-16.54-32.15-7.31" transform="translate(-278.69 -263.61)"/><line class="cls-15" x1="53.92" y1="253.99" x2="2" y2="253.99"/><line class="cls-15" x1="194.83" y1="253.99" x2="251.79" y2="253.99"/><line class="cls-15" x1="63.58" y1="262.42" x2="53.58" y2="262.42"/><line class="cls-15" x1="97.75" y1="269.25" x2="87.75" y2="269.25"/><polyline class="cls-15" points="192.86 262.42 182.86 262.42 153.83 262.42"/><line class="cls-15" x1="155.25" y1="269.25" x2="165.25" y2="269.25"/><path class="cls-16" d="M382.19,522.73a18.35,18.35,0,0,0,1,10.13" transform="translate(-278.69 -263.61)"/><path class="cls-16" d="M382.94,507.11c2.75-.25,6.33.25,7.58,2.25" transform="translate(-278.69 -263.61)"/><path class="cls-16" d="M421.78,525.28a7.8,7.8,0,0,0-4.33,7.58" transform="translate(-278.69 -263.61)"/><line class="cls-16" x1="121.92" y1="265.08" x2="120.17" y2="269.25"/><path class="cls-16" d="M410.82,505c0-1,1.27-1.9,2.83-1.9s2.83.85,2.83,1.9-1.27,1.9-2.83,1.9" transform="translate(-278.69 -263.61)"/><path class="cls-16" d="M353.58,513.65c-.84-.49-.82-2.07,0-3.54s2.23-2.26,3.07-1.77.82,2.07,0,3.54" transform="translate(-278.69 -263.61)"/><line class="cls-16" x1="88.81" y1="257.19" x2="88.81" y2="262.42"/><line class="cls-16" x1="84.13" y1="259.13" x2="84.13" y2="262.42"/><path class="cls-16" d="M448.19,516.19c-2.33,2.25-3.92,7.5-2.08,10.67" transform="translate(-278.69 -263.61)"/><line class="cls-16" x1="189.25" y1="249.67" x2="189.25" y2="253.99"/><ellipse class="cls-13" cx="143.79" cy="103.5" rx="4" ry="6"/><circle class="cls-13" cx="120.83" cy="72.25" r="4"/><line class="cls-15" x1="46.58" y1="262.42" x2="42.58" y2="262.42"/><line class="cls-15" x1="176.25" y1="269.25" x2="172.25" y2="269.25"/><line class="cls-13" x1="146.7" y1="70.39" x2="148.89" y2="75.07"/><line class="cls-13" x1="101.89" y1="120.39" x2="99.7" y2="125.07"/><line class="cls-13" x1="123.96" y1="13.42" x2="123.44" y2="16.42"/><line class="cls-13" x1="155.51" y1="149.23" x2="154.99" y2="152.23"/></g></svg>