<?xml version="1.0" encoding="UTF-8"?>
<svg width="444px" height="306px" viewBox="0 0 444 306" version="1.1" xmlns="http://www.w3.org/2000/svg" xmlns:xlink="http://www.w3.org/1999/xlink">
    <!-- Generator: Sketch 45.2 (43514) - http://www.bohemiancoding.com/sketch -->
    <title>health-potion</title>
    <desc>Created with Sketch.</desc>
    <defs>
        <linearGradient x1="5.10293809%" y1="2.53564883%" x2="92.9705319%" y2="89.6433086%" id="linearGradient-1">
            <stop stop-color="#26FF59" offset="0%"></stop>
            <stop stop-color="#00CF8A" offset="100%"></stop>
        </linearGradient>
        <linearGradient x1="0%" y1="50%" x2="100%" y2="50%" id="linearGradient-2">
            <stop stop-color="#26FF5A" offset="0%"></stop>
            <stop stop-color="#00F1AC" offset="100%"></stop>
        </linearGradient>
        <linearGradient x1="97.5313808%" y1="50%" x2="0.606694561%" y2="50%" id="linearGradient-3">
            <stop stop-color="#FFFFFF" stop-opacity="0.8" offset="0%"></stop>
            <stop stop-color="#FFFFFF" stop-opacity="0.04" offset="96%"></stop>
            <stop stop-color="#FFFFFF" stop-opacity="0" offset="100%"></stop>
        </linearGradient>
        <linearGradient x1="10.5745003%" y1="79.0784241%" x2="100.638256%" y2="12.6339963%" id="linearGradient-4">
            <stop stop-color="#FFFFFF" stop-opacity="0.6" offset="0%"></stop>
            <stop stop-color="#FFFFFF" stop-opacity="0.06" offset="90%"></stop>
            <stop stop-color="#FFFFFF" stop-opacity="0" offset="100%"></stop>
        </linearGradient>
        <linearGradient x1="39584%" y1="23281.565%" x2="38034%" y2="25915.3366%" id="linearGradient-5">
            <stop stop-color="#FFFFFF" stop-opacity="0.6" offset="0%"></stop>
            <stop stop-color="#FFFFFF" stop-opacity="0.06" offset="90%"></stop>
            <stop stop-color="#FFFFFF" stop-opacity="0" offset="100%"></stop>
        </linearGradient>
        <linearGradient x1="44555%" y1="611.079699%" x2="41755%" y2="835.083145%" id="linearGradient-6">
            <stop stop-color="#FFFFFF" stop-opacity="0.6" offset="0%"></stop>
            <stop stop-color="#FFFFFF" stop-opacity="0.06" offset="90%"></stop>
            <stop stop-color="#FFFFFF" stop-opacity="0" offset="100%"></stop>
        </linearGradient>
        <linearGradient x1="43079%" y1="11873.1179%" x2="41879%" y2="13141.0003%" id="linearGradient-7">
            <stop stop-color="#FFFFFF" stop-opacity="0.6" offset="0%"></stop>
            <stop stop-color="#FFFFFF" stop-opacity="0.06" offset="90%"></stop>
            <stop stop-color="#FFFFFF" stop-opacity="0" offset="100%"></stop>
        </linearGradient>
        <linearGradient x1="48278%" y1="67.0242301%" x2="44278%" y2="89.3253883%" id="linearGradient-8">
            <stop stop-color="#FFFFFF" stop-opacity="0.6" offset="0%"></stop>
            <stop stop-color="#FFFFFF" stop-opacity="0.06" offset="90%"></stop>
            <stop stop-color="#FFFFFF" stop-opacity="0" offset="100%"></stop>
        </linearGradient>
        <linearGradient x1="39990%" y1="5367%" x2="39990%" y2="9967%" id="linearGradient-9">
            <stop stop-color="#FFFFFF" stop-opacity="0.6" offset="0%"></stop>
            <stop stop-color="#FFFFFF" stop-opacity="0.06" offset="90%"></stop>
            <stop stop-color="#FFFFFF" stop-opacity="0" offset="100%"></stop>
        </linearGradient>
        <radialGradient cx="49.824%" cy="48.7935%" fx="49.824%" fy="48.7935%" r="25.67%" id="radialGradient-10">
            <stop stop-color="#FFFFFF" stop-opacity="0.1" offset="0%"></stop>
            <stop stop-color="#FFFFFF" stop-opacity="0" offset="100%"></stop>
        </radialGradient>
        <radialGradient cx="-9952%" cy="58458%" fx="-9952%" fy="58458%" r="4107%" id="radialGradient-11">
            <stop stop-color="#FFFFFF" stop-opacity="0.1" offset="0%"></stop>
            <stop stop-color="#FFFFFF" stop-opacity="0" offset="100%"></stop>
        </radialGradient>
    </defs>
    <g id="Page-1" stroke="none" stroke-width="1" fill="none" fill-rule="evenodd">
        <g id="health-potion" fill-rule="nonzero">
            <g id="background" transform="translate(43.000000, 179.000000)">
                <g id="color" transform="translate(2.000000, 2.000000)">
                    <path d="M325,1.77635684e-15 C341,1.77635684e-15 354,27.3 354,61 C354,94.7 341,122 325,122 C319.717797,121.995626 314.823471,119.225969 312.1,114.7 C310.4,111.9 307.9,110 305,110 C303.003602,110.057953 301.105955,110.88146 299.7,112.3 C293,118.8 283.8,122 274.5,122 L4,122 C1.790861,122 0,120.209139 0,118 L0,110 C0,107.790861 1.790861,106 4,106 L276,106 C281.674931,105.902762 287.061265,103.480719 290.9,99.3 C293.9,96.1 299.1,94 305,94 C306.239549,93.996435 307.477216,94.0967863 308.7,94.3 C311.550068,94.7181496 314.277741,95.7410271 316.7,97.3 C319.002968,98.735824 320.735167,100.927585 321.6,103.5 C322.058433,104.991635 323.439524,106.007143 325,106 C332.2,106 338,85.8 338,61 C338,36.2 332.2,16 325,16 C323.439524,15.9928571 322.058433,17.0083651 321.6,18.5 C320.707967,21.0575771 318.982247,23.2411407 316.7,24.7 C314.285944,26.2752463 311.554588,27.2995048 308.7,27.7 C307.476722,27.8991821 306.239388,27.9995066 305,28 C299.1,28 293.9,25.9 290.9,22.7 C287.061265,18.5192814 281.674931,16.0972383 276,16 L4,16 C1.790861,16 0,14.209139 0,12 L0,4 C0,1.790861 1.790861,1.77635684e-15 4,1.77635684e-15 L274.5,1.77635684e-15 C283.8,1.77635684e-15 293.1,3.2 299.7,9.7 C301.079327,11.1570143 302.993689,11.9877748 305,12 C307.9,12 310.5,10.2 312.1,7.3 C314.804678,2.7547765 319.710967,-0.0216505601 325,1.77635684e-15 Z" id="Shape" fill="#F2EEEB"></path>
                    <path d="M325,16 C332.2,16 338,36.1 338,61 C338,85.9 332.2,106 325,106 C323.439524,106.007143 322.058433,104.991635 321.6,103.5 C320.707967,100.942423 318.982247,98.7588593 316.7,97.3 C319.9,89.1 322,75.9 322,61 C322,46.1 319.9,32.9 316.7,24.7 C319.002968,23.264176 320.735167,21.0724146 321.6,18.5 C322.032071,16.9898385 323.4297,15.9621704 325,16 L325,16 Z" id="Shape" fill="#F4F8F9"></path>
                    <path d="M316.6,24.7 C319.8,32.9 321.9,46.1 321.9,61 C321.9,75.9 319.8,89.1 316.6,97.3 C314.185944,95.7247537 311.454588,94.7004952 308.6,94.3 C309.940442,89.9564961 310.910576,85.5072597 311.5,81 C311.8,78.8 312.1,76.4 312.3,74 C312.7,69.9 312.9,65.5 312.9,61 C312.9,47.8 311.3,35.9 308.6,27.7 C311.459074,27.31726 314.194238,26.2915735 316.6,24.7 L316.6,24.7 Z" id="Shape" fill="#F7F3ED"></path>
                    <path d="M22,45.8 C18.6862915,45.8 16,43.1137085 16,39.8 L16,16 L276,16 C281.674931,16.0972383 287.061265,18.5192814 290.9,22.7 C293.9,25.9 299.1,28 305,28 C306.239549,28.003565 307.477216,27.9032137 308.7,27.7 C311.3,35.9 313,47.8 313,61 C313,65.5 312.8,69.9 312.4,74 C312.2,76.4 311.9,78.8 311.6,81 C310.999791,85.5053755 310.029851,89.9537195 308.7,94.3 C307.476722,94.1008179 306.239388,94.0004934 305,94 C299.1,94 293.9,96.1 290.9,99.3 C287.061265,103.480719 281.674931,105.902762 276,106 L16,106 L16,93.8 C16,90.4862915 18.6862915,87.8 22,87.8 C18.6862915,87.8 16,85.1137085 16,81.8 L16,51.8 C16,48.4862915 18.6862915,45.8 22,45.8 L22,45.8 Z M271.3,38 L287.3,38 C287.3,38 271.3,38 271.3,37 L271.3,35 L237.3,35 L237.3,37 C237.3,38 221.3,38 221.3,38 L237.3,38 L237.3,84 L254.3,67 L263.3,76 L271.3,84 L271.3,38 Z" id="Shape" fill="#FFFDFA"></path>
                    <polygon id="Shape" fill="#FFE2DF" points="263.3 76 254.3 67 237.3 84 237.3 38 237.3 37 237.3 35 271.3 35 271.3 37 271.3 38 271.3 84"></polygon>
                </g>
                <g id="shadows" transform="translate(2.000000, 0.000000)">
                    <path d="M274.4,2 C282.860283,1.87837064 291.098801,4.70704642 297.7,10 L297.7,12.1 C292.327443,9.42667391 286.400762,8.05634304 280.4,8.1 L8,8.1 C6.8954305,8.1 6,8.9954305 6,10.1 L6,18.1 L4,18.1 C1.790861,18.1 0,16.309139 0,14.1 L0,6.1 C0,3.890861 1.790861,2.1 4,2.1 L274.4,2.1 L274.4,2 Z" id="Shape" fill="#FFFFFF" opacity="0.5"></path>
                    <path d="M339.3,10.2 C336.587962,8.15844784 333.294363,7.03722249 329.9,7 C327.314301,7.01268816 324.771977,7.6654468 322.5,8.9 C320.23436,10.1647991 318.364799,12.0343604 317.1,14.3 C315.4,17.1 312.9,19 310,19 C308.003602,18.9420472 306.105955,18.1185397 304.7,16.7 C303.7,15.8 302.7,14.9 301.7,14.1 L301.7,12.6 C302.432153,12.8859794 303.214285,13.0220024 304,13 C306.9,13 309.5,11.2 311.1,8.3 C313.715409,3.7137508 318.621081,0.915984977 323.9,1 C329.6,1 334.9,4.4 339.3,10.2 Z" id="Shape" fill="#FFFFFF" opacity="0.5"></path>
                    <path d="M275.9,18 C280.801604,18.0493887 285.52206,19.8594882 289.2,23.1 L289.2,25.4 C286.877138,24.4757461 284.399986,24.0006759 281.9,24 L16,24 L16,18 L275.9,18 Z" id="Shape" fill="#000000" opacity="0.03"></path>
                    <path d="M318.5,33.3 C315.765203,34.4006144 312.847872,34.977296 309.9,35 C304,35 298.8,32.9 295.8,29.7 C294.572966,28.4081229 293.196632,27.266773 291.7,26.3 L291.7,25.4 C298.981135,30.1257346 308.341119,30.2037345 315.7,25.6 L318.5,33.3 Z" id="Shape" fill="#000000" opacity="0.03"></path>
                    <path d="M320.2,104.4 C317.043749,102.787905 313.543939,101.96442 310,102 C304.1,102 298.9,104.1 295.9,107.3 C293.951241,109.334494 291.646613,110.995182 289.1,112.2 C286.567869,113.396107 283.800399,114.0111 281,114 L10,114 C7.790861,114 6,115.790861 6,118 L6,124 L4,124 C1.790861,124 0,122.209139 0,120 L0,112 C0,109.790861 1.790861,108 4,108 L275,108 C277.801574,108.022098 280.571463,107.406567 283.1,106.2 C285.667226,105.030397 287.978125,103.365191 289.9,101.3 C292.9,98.1 298.1,96 304,96 C311.6,96 318,99.5 320.2,104.4 Z" id="Shape" fill="#FFFFFF" opacity="0.5"></path>
                    <path d="M343,68 C343,92.8 337.2,113 330,113 C328.421915,112.964746 327.047494,111.913719 326.6,110.4 C326.171581,109.112449 325.49177,107.922779 324.6,106.9 C331.5,105.7 336.9,86 336.9,62 C336.9,45.4 334.3,30.8 330.4,23 C337.4,24 343,43.7 343,68 Z" id="Shape" fill="#FFFFFF" opacity="0.5"></path>
                    <path d="M321.6,105.4 C321.510348,105.050812 321.375899,104.714689 321.2,104.4 C322.864115,105.294237 324.354371,106.479667 325.6,107.9 C325.4,107.9 325.1,108 324.9,108 C323.345514,107.959997 322.002634,106.90197 321.6,105.4 Z" id="Shape" fill="#000000" opacity="0.03"></path>
                    <path d="M331.5,24 L331,24 L331,23.1 C331.127701,23.4200491 331.295725,23.7224923 331.5,24 L331.5,24 Z" id="Shape" fill="#000000" opacity="0.03"></path>
                    <path d="M271.3,37 L271.3,43 L247.3,43 C245.090861,43 243.3,44.790861 243.3,47 L243.3,80 L237.3,86 L237.3,37 L271.3,37 Z" id="Shape" fill="#FFFFFF" opacity="0.5"></path>
                    <path d="M253.3,69 L258.3,74 L244.7,87.6 C244.128599,88.1602394 243.278258,88.3259511 242.538303,88.0212639 C241.798349,87.7165768 241.31124,87.0001503 241.3,86.2 L241.3,81 L253.3,69 Z" id="Shape" fill="#000000" opacity="0.03"></path>
                    <path d="M276.3,42 L276.3,86.2 C276.28876,87.0001503 275.801651,87.7165768 275.061697,88.0212639 C274.321742,88.3259511 273.471401,88.1602394 272.9,87.6 L271.3,86 L271.3,42 L276.3,42 Z" id="Shape" fill="#000000" opacity="0.03"></path>
                    <polygon id="Shape" fill="#FFFFFF" opacity="0.5" points="19 47.7 16 53.7 16 24 24 24 24 47.7"></polygon>
                    <rect id="Rectangle-path" fill="#FFFFFF" opacity="0.5" x="16" y="53.7" width="8" height="54.8"></rect>
                    <polygon id="Shape" fill="#000000" opacity="0.05" points="317.1 98.2 320.5 103.1 323.4 108 331 103.1 337.3 80.2 338 50.5 332.6 26.7 324.6 17.3 318.5 25.2 322 66"></polygon>
                    <path d="M62.6,53.7 L16,53.7 L19,47.7 L68.7,47.7 C68.6454055,51.0298203 65.9302678,53.7004475 62.6,53.7 Z" id="Shape" fill="#FFFFFF"></path>
                    <path d="M56.6,95.7 L16,95.7 L19,89.7 L62.7,89.7 C62.6454055,93.0298203 59.9302678,95.7004475 56.6,95.7 Z" id="Shape" fill="#FFFFFF"></path>
                </g>
                <g id="lines" fill="#D5E0E5">
                    <path d="M276.4,126 L6,126 C2.6862915,126 -2.84217094e-14,123.313708 -2.84217094e-14,120 L-2.84217094e-14,112 C-2.84217094e-14,108.686292 2.6862915,106 6,106 L278,106 C279.104569,106 280,106.895431 280,108 C280,109.104569 279.104569,110 278,110 L6,110 C4.8954305,110 4,110.895431 4,112 L4,120 C4,121.104569 4.8954305,122 6,122 L276.5,122 C277.604569,122 278.5,122.895431 278.5,124 C278.45162,125.122867 277.52389,126.006419 276.4,126 L276.4,126 Z" id="Shape"></path>
                    <path d="M18,85.8 C16.8954305,85.8 16,84.9045695 16,83.8 L16,53.8 C16,52.6954305 16.8954305,51.8 18,51.8 C19.1045695,51.8 20,52.6954305 20,53.8 L20,83.8 C20,84.9045695 19.1045695,85.8 18,85.8 Z" id="Shape"></path>
                    <path d="M18,110 C16.8954305,110 16,109.104569 16,108 L16,95.8 C16,94.6954305 16.8954305,93.8 18,93.8 C19.1045695,93.8 20,94.6954305 20,95.8 L20,108 C20,109.104569 19.1045695,110 18,110 Z" id="Shape"></path>
                    <path d="M18,43.8 C16.8954305,43.8 16,42.9045695 16,41.8 L16,18 C16,16.8954305 16.8954305,16 18,16 C19.1045695,16 20,16.8954305 20,18 L20,41.8 C20,42.9045695 19.1045695,43.8 18,43.8 Z" id="Shape"></path>
                    <path d="M327,126 C325.895431,126 325,125.104569 325,124 C325,122.895431 325.895431,122 327,122 C341.6,122 354,95 354,63 C354,31 341.6,4 327,4 C325.895431,4 325,3.1045695 325,2 C325,0.8954305 325.895431,0 327,0 C344.4,0 358,27.7 358,63 C358,98.3 344.3,126 327,126 Z" id="Shape"></path>
                    <path d="M327,110 C325.895431,110 325,109.104569 325,108 C325,106.895431 325.895431,106 327,106 C331.6,106 338,89.6 338,63 C338,36.4 331.6,20 327,20 C325.895431,20 325,19.1045695 325,18 C325,16.8954305 325.895431,16 327,16 C331.5,16 335.3,21.1 338.1,30.6 C340.6,39.3 342,50.8 342,63 C342,75.2 340.6,86.7 338.1,95.4 C335.3,104.9 331.5,110 327,110 Z" id="Shape"></path>
                    <path d="M307,32 C300.8,32 295,29.8 291.4,26.1 C287.935206,22.289988 283.049197,20.082236 277.9,20 L6,20 C2.6862915,20 -2.84217094e-14,17.3137085 -2.84217094e-14,14 L-2.84217094e-14,6 C-2.84217094e-14,2.6862915 2.6862915,-1.13686838e-13 6,-1.13686838e-13 L276.5,-1.13686838e-13 C286.9,-1.13686838e-13 296.4,3.6 303.1,10.3 C304.130674,11.3505132 305.528856,11.9599771 307,12 C309.1,12 311,10.7 312.4,8.3 C315.464919,3.15476226 321.011077,0.00180955145 327,0 C328.104569,0 329,0.8954305 329,2 C329,3.1045695 328.104569,4 327,4 C322.437932,3.95742864 318.202455,6.36134836 315.9,10.3 C313.8,13.9 310.6,16 307,16 C304.46547,15.9835209 302.046717,14.9365979 300.3,13.1 C294.3,7.2 285.8,4 276.5,4 L6,4 C4.8954305,4 4,4.8954305 4,6 L4,14 C4,15.1045695 4.8954305,16 6,16 L278,16 C284.239029,16.0695156 290.172797,18.7107656 294.4,23.3 C297.2,26.2 301.9,28 307.1,28 C314.2,28 320.4,24.6 321.8,20 C322.486276,17.640339 324.642601,16.0129236 327.1,16 C328.204569,16 329.1,16.8954305 329.1,18 C329.1,19.1045695 328.204569,20 327.1,20 C326.419327,20.0173818 325.821173,20.4560279 325.6,21.1 C323.5,27.5 315.9,32 307,32 Z" id="Shape"></path>
                    <path d="M327,110 C324.542601,109.987076 322.386276,108.359661 321.7,106 C320.3,101.3 314.1,98 307,98 C301.9,98 297.1,99.8 294.3,102.7 C290.072797,107.289234 284.139029,109.930484 277.9,110 C276.795431,110 275.9,109.104569 275.9,108 C275.9,106.895431 276.795431,106 277.9,106 C283.049197,105.917764 287.935206,103.710012 291.4,99.9 C294.9,96.2 300.8,94 307,94 C316,94 323.6,98.5 325.5,104.9 C325.684851,105.569846 326.305567,106.025038 327,106 C328.104569,106 329,106.895431 329,108 C329,109.104569 328.104569,110 327,110 L327,110 Z" id="Shape"></path>
                    <path d="M327,126 C321.011077,125.99819 315.464919,122.845238 312.4,117.7 C311,115.4 309.1,114 307,114 C305.524107,114.018321 304.118008,114.631236 303.1,115.7 C296.3,122.3 286.9,126 276.5,126 C275.395431,126 274.5,125.104569 274.5,124 C274.5,122.895431 275.395431,122 276.5,122 C285.9,122 294.3,118.8 300.3,112.9 C302.05792,111.079514 304.469549,110.035675 307,110 C310.5,110 313.8,112.1 315.9,115.7 C318.220374,119.620453 322.44437,122.017856 327,122 C328.104569,122 329,122.895431 329,124 C329,125.104569 328.104569,126 327,126 Z" id="Shape"></path>
                    <path d="M273.3,88 C272.772461,87.9924859 272.269261,87.7768285 271.9,87.4 L256.3,71.8 L240.7,87.4 C240.128599,87.9602394 239.278258,88.1259511 238.538303,87.8212639 C237.798349,87.5165768 237.31124,86.8001503 237.3,86 L237.3,37 C237.3,35.8954305 238.195431,35 239.3,35 L273.3,35 C274.404569,35 275.3,35.8954305 275.3,37 L275.3,86 C275.287016,86.7832267 274.817985,87.4867739 274.1,87.8 C273.870283,87.9698549 273.582623,88.0417698 273.3,88 Z M256.3,67 C256.827539,67.0075141 257.330739,67.2231715 257.7,67.6 L271.3,81.2 L271.3,39 L241.3,39 L241.3,81.2 L254.9,67.6 C255.269261,67.2231715 255.772461,67.0075141 256.3,67 Z" id="Shape"></path>
                    <path d="M289.3,42 L273.3,42 C272.195431,42 271.3,41.1045695 271.3,40 L271.3,39 C271.3,37.8954305 272.195431,37 273.3,37 C273.733699,36.9939618 274.156664,37.1349502 274.5,37.4 C276.2,37.8 283.3,38 289.3,38 C290.404569,38 291.3,38.8954305 291.3,40 C291.3,41.1045695 290.404569,42 289.3,42 Z" id="Shape"></path>
                    <path d="M239.3,42 L223.3,42 C222.195431,42 221.3,41.1045695 221.3,40 C221.3,38.8954305 222.195431,38 223.3,38 C228.240278,38.0485965 233.179868,37.8483428 238.1,37.4 C238.450556,37.148796 238.868832,37.0093707 239.3,37 C240.404569,37 241.3,37.8954305 241.3,39 L241.3,40 C241.3,40.530433 241.089286,41.0391408 240.714214,41.4142136 C240.339141,41.7892863 239.830433,42 239.3,42 Z" id="Shape"></path>
                    <path d="M266.3,80 C266.029697,80.0178819 265.76482,79.9182815 265.573269,79.7267306 C265.381719,79.5351798 265.282118,79.270303 265.3,79 L265.3,66 C265.3,65.4477153 265.747715,65 266.3,65 C266.852285,65 267.3,65.4477153 267.3,66 L267.3,79 C267.3,79.5522847 266.852285,80 266.3,80 Z" id="Shape"></path>
                    <path d="M24,49.8 C19.581722,49.8 16,46.218278 16,41.8 C16,40.6954305 16.8954305,39.8 18,39.8 C19.1045695,39.8 20,40.6954305 20,41.8 C20,44.009139 21.790861,45.8 24,45.8 C25.1045695,45.8 26,46.6954305 26,47.8 C26,48.9045695 25.1045695,49.8 24,49.8 Z" id="Shape"></path>
                    <path d="M18,55.8 C16.8954305,55.8 16,54.9045695 16,53.8 C16,49.381722 19.581722,45.8 24,45.8 L67.7,45.8 C68.8045695,45.8 69.7,46.6954305 69.7,47.8 C69.7,48.9045695 68.8045695,49.8 67.7,49.8 L24,49.8 C21.790861,49.8 20,51.590861 20,53.8 C20,54.9045695 19.1045695,55.8 18,55.8 Z" id="Shape"></path>
                    <path d="M84.8,49.8 L75.1,49.8 C73.9954305,49.8 73.1,48.9045695 73.1,47.8 C73.1,46.6954305 73.9954305,45.8 75.1,45.8 L84.8,45.8 C85.9045695,45.8 86.8,46.6954305 86.8,47.8 C86.8,48.9045695 85.9045695,49.8 84.8,49.8 Z" id="Shape"></path>
                    <path d="M24,91.8 C19.581722,91.8 16,88.218278 16,83.8 C16,82.6954305 16.8954305,81.8 18,81.8 C19.1045695,81.8 20,82.6954305 20,83.8 C20,86.009139 21.790861,87.8 24,87.8 C25.1045695,87.8 26,88.6954305 26,89.8 C26,90.9045695 25.1045695,91.8 24,91.8 Z" id="Shape"></path>
                    <path d="M18,97.8 C16.8954305,97.8 16,96.9045695 16,95.8 C16,91.381722 19.581722,87.8 24,87.8 L53.7,87.8 C54.8045695,87.8 55.7,88.6954305 55.7,89.8 C55.7,90.9045695 54.8045695,91.8 53.7,91.8 L24,91.8 C21.790861,91.8 20,93.590861 20,95.8 C20,96.9045695 19.1045695,97.8 18,97.8 Z" id="Shape"></path>
                    <path d="M313.6,85 L295.7,85 C294.595431,85 293.7,84.1045695 293.7,83 C293.7,81.8954305 294.595431,81 295.7,81 L313.6,81 C314.704569,81 315.6,81.8954305 315.6,83 C315.6,84.1045695 314.704569,85 313.6,85 Z" id="Shape"></path>
                    <path d="M314.2,76 L303.7,76 C302.595431,76 301.7,75.1045695 301.7,74 C301.7,72.8954305 302.595431,72 303.7,72 L314.2,72 C315.304569,72 316.2,72.8954305 316.2,74 C316.2,75.1045695 315.304569,76 314.2,76 Z" id="Shape"></path>
                    <path d="M318.6,101.3 C318.362237,101.316098 318.123745,101.282028 317.9,101.2 C316.879843,100.784194 316.388023,99.6217089 316.8,98.6 C320,90.4 322,77.1 322,63 C322,48.9 320.1,35.7 316.8,27.4 C316.478863,26.7290967 316.556568,25.9353999 317.001725,25.3395182 C317.446883,24.7436366 318.185949,24.444015 318.920384,24.5616836 C319.654818,24.6793522 320.263286,25.1948712 320.5,25.9 C324,34.7 325.9,48.2 325.9,62.9 C325.9,77.6 323.9,91.1 320.5,99.9 C320.238847,100.730437 319.470526,101.296569 318.6,101.3 Z" id="Shape"></path>
                    <path d="M310.7,98.3 C310.494852,98.3157617 310.288947,98.2814441 310.1,98.2 C309.053531,97.8652155 308.473073,96.74895 308.8,95.7 C311.4,87.4 313,75.5 313,63 C313,50.5 311.5,38.6 308.8,30.3 C308.625619,29.7963455 308.666133,29.2431311 308.912029,28.7702549 C309.157924,28.2973788 309.58754,27.9464974 310.1,27.8 C311.14895,27.4730734 312.265215,28.0535314 312.6,29.1 C315.4,37.8 317,50.2 317,63 C317,75.8 315.4,88.2 312.6,96.9 C312.338847,97.7304372 311.570526,98.2965687 310.7,98.3 Z" id="Shape"></path>
                </g>
            </g>
            <g id="bung" transform="translate(183.000000, 0.000000)">
                <g id="color-2" transform="translate(3.000000, 3.000000)">
                    <path d="M63.6,0.9 C68.7143476,2.95996668 71.7668479,8.23996716 71,13.7 L64.4,59.7 C63.5530313,65.6183706 58.4786585,70.0104748 52.5,70 L19.3,70 C13.3213415,70.0104748 8.24696874,65.6183706 7.4,59.7 L0.8,13.7 C0.323840057,10.2554615 1.35890433,6.77314692 3.6392071,4.14792441 C5.91950986,1.5227019 9.22272189,0.0105302885 12.7,-5.68434189e-14 L47.8,-5.68434189e-14 C47.629716,0.652206553 47.5622378,1.32698883 47.6,2 C47.6,6.418278 51.181722,10 55.6,10 C60.018278,10 63.6,6.418278 63.6,2 C63.6506572,1.63508299 63.6506572,1.26491701 63.6,0.9 L63.6,0.9 Z M53,55.8 C53,53.590861 51.209139,51.8 49,51.8 C46.790861,51.8 45,53.590861 45,55.8 C45,58.009139 46.790861,59.8 49,59.8 C51.209139,59.8 53,58.009139 53,55.8 Z M39.8,16.3 C39.8,13.5385763 37.5614237,11.3 34.8,11.3 C32.0385763,11.3 29.8,13.5385763 29.8,16.3 C29.8,19.0614237 32.0385763,21.3 34.8,21.3 C37.5614237,21.3 39.8,19.0614237 39.8,16.3 Z M28,32.3 C28,30.090861 26.209139,28.3 24,28.3 C21.790861,28.3 20,30.090861 20,32.3 C20,34.509139 21.790861,36.3 24,36.3 C26.209139,36.3 28,34.509139 28,32.3 Z" id="Shape" fill="#E68A5C"></path>
                    <circle id="Oval" fill="#CC7A52" cx="49" cy="55.8" r="4"></circle>
                    <path d="M34.8,11.3 C37.5614237,11.3 39.8,13.5385763 39.8,16.3 C39.8,19.0614237 37.5614237,21.3 34.8,21.3 C32.0385763,21.3 29.8,19.0614237 29.8,16.3 C29.8428745,13.5565317 32.0565317,11.3428745 34.8,11.3 Z" id="Shape" fill="#CC7A52"></path>
                    <circle id="Oval" fill="#CC7A52" cx="24" cy="32.3" r="4"></circle>
                </g>
                <g id="shadows" transform="translate(3.000000, 3.000000)">
                    <path d="M26.3,31 C25.8975808,30.7955777 25.4513034,30.6925907 25,30.7 C24.3088021,30.6946208 23.6443519,30.9668209 23.1555864,31.4555864 C22.6668209,31.9443519 22.3946208,32.6088021 22.4,33.3 C22.3925907,33.7513034 22.4955777,34.1975808 22.7,34.6 C21.8881427,34.1194038 21.3930199,33.2434174 21.4,32.3 C21.3946208,31.6088021 21.6668209,30.9443519 22.1555864,30.4555864 C22.6443519,29.9668209 23.3088021,29.6946208 24,29.7 C24.9546498,29.6474329 25.8526664,30.1550076 26.3,31 Z" id="Shape" fill="#000000" opacity="0.2"></path>
                    <path d="M37.8,14.3 C36.3693029,13.3586948 34.4741258,13.5521639 33.2631449,14.7631449 C32.0521639,15.9741258 31.8586948,17.8693029 32.8,19.3 C31.7690599,18.6576092 31.1591433,17.5140157 31.2,16.3 C31.1973345,15.344406 31.575763,14.4271823 32.2514727,13.7514727 C32.9271823,13.075763 33.844406,12.6973345 34.8,12.7 C36.0033916,12.703092 37.1270307,13.3023662 37.8,14.3 Z" id="Shape" fill="#000000" opacity="0.2"></path>
                    <polygon id="Shape" fill="#000000" opacity="0.2" points="67.2 39 62.7 64.3 55.3 70.8 15.1 70.8 7.5 64.2 4.5 39 12.5 39 24 50.4 35.4 39"></polygon>
                    <path d="M50,7 L34,7 L34,10 C30.8295422,10.4211438 28.4465305,13.102032 28.4,16.3 C28.411455,18.7320369 29.8088651,20.944603 32,22 L32,22 C31.5790971,21.8045009 31.1773556,21.5701516 30.8,21.3 C31.0814519,21.6814639 31.4185361,22.0185481 31.8,22.3 L31.7,22.4 C29.4768878,24.6383271 26.1221677,25.3125837 23.2068749,24.1070115 C20.2915822,22.9014393 18.392903,20.0547244 18.4,16.9 L18.4,7 L17.2,7 C14.8905917,7.00693089 12.6968469,8.01152945 11.1828794,9.75546672 C9.66891187,11.499404 8.98244452,13.8125181 9.3,16.1 L12.6,39 L4.6,39 L1,13.7 C0.523840057,10.2554615 1.55890433,6.77314692 3.8392071,4.14792441 C6.11950986,1.5227019 9.42272189,0.0105302885 12.9,-5.68434189e-14 L47.5,-5.68434189e-14 L48.1,4.1 L50,7 Z" id="Shape" fill="#FFFFFF" opacity="0.25"></path>
                    <path d="M51.3,54.5 C50.8975808,54.2955777 50.4513034,54.1925907 50,54.2 C49.3088021,54.1946208 48.6443519,54.4668209 48.1555864,54.9555864 C47.6668209,55.4443519 47.3946208,56.1088021 47.4,56.8 C47.3925907,57.2513034 47.4955777,57.6975808 47.7,58.1 C46.8881427,57.6194038 46.3930199,56.7434174 46.4,55.8 C46.3946208,55.1088021 46.6668209,54.4443519 47.1555864,53.9555864 C47.6443519,53.4668209 48.3088021,53.1946208 49,53.2 C49.9546498,53.1474329 50.8526664,53.6550076 51.3,54.5 Z" id="Shape" fill="#000000" opacity="0.2"></path>
                    <path d="M49.4,38 C63.5,38 67.4,16.4 68,9.1 C70.6,23.2 67.4,37.5 67.4,37.5 L49.4,38 Z" id="Shape" fill="#000000" opacity="0.1"></path>
                    <path d="M51.9,12.2 C58,16.4 66.1,11.4 67.2,6.8 C68.3,2.2 63.7,1.6 63.7,1.6 L51.9,12.2 Z" id="Shape" fill="#FFFFFF" opacity="0.25"></path>
                </g>
                <g id="lines-2" fill="#2E4D5C">
                    <path d="M73.7,5.4 C72.2,3.6 69.5,1.8 66.5,2.2 C65.1,2.4 62.6,3.2 60.9,6.7 C60.2503661,8.34092448 58.7526584,9.49300736 57,9.7 C55.4,9.6 54.5,8 54,6.7 L54,6.6 L54,6.6 C52.5884283,2.62533158 48.8178235,-0.0221143806 44.6,-2.66453526e-15 L15.9,-2.66453526e-15 C11.5509123,-0.0173680894 7.41583776,1.88549808 4.6,5.2 C1.78738086,8.48478212 0.51363538,12.8155168 1.1,17.1 L7.7,63.1 C8.7634438,70.4688189 15.0549906,75.9526672 22.5,76 L55.7,76 C63.1530693,75.9740207 69.4566092,70.479719 70.5,63.1 L77.1,17.1 C77.6100847,12.8994908 76.3818554,8.67293689 73.7,5.4 Z M71,16.3 L64.4,62.3 C63.7548707,66.7194473 59.9662847,69.9972128 55.5,70 L22.3,70 C17.8337153,69.9972128 14.0451293,66.7194473 13.4,62.3 L6.8,16.3 C6.41901817,13.7087667 7.18570909,11.0801121 8.9,9.1 C10.6020095,7.11896889 13.0882743,5.98552465 15.7,6 L44.4,6 C46.1057891,6.01945854 47.6203552,7.09559758 48.2,8.7 L48.2,8.8 C49.8,13 52.8,15.6 56.6,15.7 C60.7785133,15.6349383 64.5328225,13.1320654 66.2,9.3 C66.5,8.7 66.8,8.2 67.1,8.2 C67.4,8.2 68.4,8.6 68.9,9.3 C70.6655673,11.1711164 71.4440334,13.7660034 71,16.3 Z" id="Shape"></path>
                    <path d="M44.3,19.3 C44.3,15.7101491 41.3898509,12.8 37.8,12.8 C34.2101491,12.8 31.3,15.7101491 31.3,19.3 C31.3,22.8898509 34.2101491,25.8 37.8,25.8 C39.5247211,25.8026596 41.1795673,25.1186942 42.3991307,23.8991307 C43.6186942,22.6795673 44.3026596,21.0247211 44.3,19.3 L44.3,19.3 Z M37.8,22.8 C35.8670034,22.8 34.3,21.2329966 34.3,19.3 C34.3,17.3670034 35.8670034,15.8 37.8,15.8 C39.7329966,15.8 41.3,17.3670034 41.3,19.3 C41.3053597,20.2298904 40.9383322,21.1232466 40.2807894,21.7807894 C39.6232466,22.4383322 38.7298904,22.8053597 37.8,22.8 L37.8,22.8 Z" id="Shape"></path>
                    <path d="M27,29.8 C23.9624339,29.8 21.5,32.2624339 21.5,35.3 C21.5,38.3375661 23.9624339,40.8 27,40.8 C30.0375661,40.8 32.5,38.3375661 32.5,35.3 C32.4728571,32.2737481 30.0262519,29.8271429 27,29.8 L27,29.8 Z M27,37.8 C25.6192881,37.8 24.5,36.6807119 24.5,35.3 C24.5,33.9192881 25.6192881,32.8 27,32.8 C28.3807119,32.8 29.5,33.9192881 29.5,35.3 C29.5053823,35.9646766 29.2437189,36.6036934 28.7737061,37.0737061 C28.3036934,37.5437189 27.6646766,37.8053823 27,37.8 L27,37.8 Z" id="Shape"></path>
                    <path d="M52,53.3 C48.9624339,53.3 46.5,55.7624339 46.5,58.8 C46.5,61.8375661 48.9624339,64.3 52,64.3 C55.0375661,64.3 57.5,61.8375661 57.5,58.8 C57.4728571,55.7737481 55.0262519,53.3271429 52,53.3 L52,53.3 Z M52,61.3 C50.6192881,61.3 49.5,60.1807119 49.5,58.8 C49.5,57.4192881 50.6192881,56.3 52,56.3 C53.3807119,56.3 54.5,57.4192881 54.5,58.8 C54.5053823,59.4646766 54.2437189,60.1036934 53.7737061,60.5737061 C53.3036934,61.0437189 52.6646766,61.3053823 52,61.3 L52,61.3 Z" id="Shape"></path>
                    <path d="M18.1,16 L18.1,16 C16.9954305,16 16.1,16.8954305 16.1,18 C16.1,19.1045695 16.9954305,20 18.1,20 C19.2045695,20 20.1,19.1045695 20.1,18 C20.1,16.8954305 19.2045695,16 18.1,16 Z" id="Shape"></path>
                    <path d="M52.4,33.4 C53.5045695,33.4 54.4,32.5045695 54.4,31.4 C54.4,30.2954305 53.5045695,29.4 52.4,29.4 L52.4,29.4 C51.2954305,29.4 50.4,30.2954305 50.4,31.4 C50.4,32.5045695 51.2954305,33.4 52.4,33.4 Z" id="Shape"></path>
                    <path d="M43.8,47.4 L43.8,47.4 C42.6954305,47.4 41.8,48.2954305 41.8,49.4 C41.8,50.5045695 42.6954305,51.4 43.8,51.4 C44.9045695,51.4 45.8,50.5045695 45.8,49.4 C45.8,48.2954305 44.9045695,47.4 43.8,47.4 Z" id="Shape"></path>
                    <path d="M60.6,23.3 L60.6,23.3 C59.4954305,23.3 58.6,24.1954305 58.6,25.3 C58.6,26.4045695 59.4954305,27.3 60.6,27.3 C61.7045695,27.3 62.6,26.4045695 62.6,25.3 C62.6,24.1954305 61.7045695,23.3 60.6,23.3 Z" id="Shape"></path>
                </g>
            </g>
            <g id="bottle" transform="translate(0.000000, 3.000000)">
                <g id="color-3" transform="translate(154.000000, 39.000000)">
                    <path d="M136,151.7 L136,239 C136.015992,244.839651 133.703277,250.444733 129.574005,254.574005 C125.444733,258.703277 119.839651,261.015992 114,261 L22,261 C9.8497355,261 0,251.150264 0,239 L0,155.9 C4.5,150.6 23.9,146.4 35,146.8 C46.3,147.2 57.2,151 68,154.7 C78.8,158.4 89.6,162 100.9,162 C118.7,162.1 136,158.5 136,151.7 Z M118,204.9 C118,201.586292 115.313708,198.9 112,198.9 C108.686292,198.9 106,201.586292 106,204.9 C106,208.213708 108.686292,210.9 112,210.9 C115.313708,210.9 118,208.213708 118,204.9 L118,204.9 Z M55.1,203.9 C55.1,201.690861 53.309139,199.9 51.1,199.9 C48.890861,199.9 47.1,201.690861 47.1,203.9 C47.1,206.109139 48.890861,207.9 51.1,207.9 C53.309139,207.9 55.1,206.109139 55.1,203.9 Z M44.1,184.1 C44.1,180.786292 41.4137085,178.1 38.1,178.1 C34.7862915,178.1 32.1,180.786292 32.1,184.1 C32.1,187.413708 34.7862915,190.1 38.1,190.1 C41.4137085,190.1 44.1,187.413708 44.1,184.1 L44.1,184.1 Z" id="Shape" fill="url(#linearGradient-1)"></path>
                    <path d="M136,97 L136,151.7 C136,147.1 125.6,143.7 111.9,143.7 C91.9,143.7 84.4,149.9 68,154.8 C57.2,151.1 46.3,147.2 35,146.9 C23.9,146.5 4.5,150.7 0,156 L0,97 C0,74.90861 17.90861,57 40,57 L96,57 C118.079969,57.0275483 135.972452,74.920031 136,97 L136,97 Z M45,123 C45,120.238576 42.7614237,118 40,118 C37.2385763,118 35,120.238576 35,123 C35,125.761424 37.2385763,128 40,128 C42.7614237,128 45,125.761424 45,123 L45,123 Z M27.7,107.8 C27.7,105.867003 26.1329966,104.3 24.2,104.3 C22.2670034,104.3 20.7,105.867003 20.7,107.8 C20.7,109.732997 22.2670034,111.3 24.2,111.3 C25.1298904,111.30536 26.0232466,110.938332 26.6807894,110.280789 C27.3383322,109.623247 27.7053597,108.72989 27.7,107.8 L27.7,107.8 Z" id="Shape" fill="#F2F4FF" opacity="0.5"></path>
                    <path d="M111.9,143.6 C125.6,143.6 136,147 136,151.6 C136,158.4 118.8,162 100.9,162 C89.6,162 78.8,158.4 68,154.7 C84.3,149.9 91.8,143.6 111.9,143.6 Z" id="Shape" fill="url(#linearGradient-2)"></path>
                    <circle id="Oval" fill="#4DF4A0" cx="112" cy="204.9" r="6"></circle>
                    <path d="M112,12 L112,34 C112,39.5228475 107.522847,44 102,44 L34,44 C28.4771525,44 24,39.5228475 24,34 L24,12 C24,5.372583 29.372583,0 36,0 L44.1,0 L56,11.9 L67.9,0 L100,0 C106.627417,0 112,5.372583 112,12 Z" id="Shape" fill="#F2F4FF" opacity="0.5"></path>
                    <polygon id="Shape" fill="#F2F4FF" opacity="0.5" points="100 45 100 57 96 57 40 57 36 57 36 45"></polygon>
                    <circle id="Oval" fill="#4AF778" cx="51.1" cy="203.9" r="4"></circle>
                    <circle id="Oval" fill="#4AF778" cx="40" cy="123" r="5"></circle>
                    <path d="M38.1,178.1 C41.4137085,178.1 44.1,180.786292 44.1,184.1 C44.1,187.413708 41.4137085,190.1 38.1,190.1 C34.7862915,190.1 32.1,187.413708 32.1,184.1 C32.1,180.786292 34.7862915,178.1 38.1,178.1 Z" id="Shape" fill="#4AF778"></path>
                    <path d="M24.2,104.3 C26.1329966,104.3 27.7,105.867003 27.7,107.8 C27.7,109.732997 26.1329966,111.3 24.2,111.3 C22.2670034,111.3 20.7,109.732997 20.7,107.8 C20.7216197,105.87603 22.2760297,104.32162 24.2,104.3 Z" id="Shape" fill="#4AF778"></path>
                </g>
                <g id="shadows-2" transform="translate(153.000000, 38.000000)">
                    <path d="M1,227 C8.3,254.3 140.3,254 138.8,152.3 C135,206.3 136.4,245.3 136.4,245.3 L126.9,258.5 L113,262 L15,262 L0.3,245.3 L1,227 Z" id="Shape" fill="#000000" opacity="0.06"></path>
                    <path d="M105.9,251 L94.4,251 C87.5516691,251 82,245.448331 82,238.6 L82,81 C82.0055138,74.5957822 87.1957822,69.4055138 93.6,69.4 L105.9,69.4 C119.099606,69.4 129.8,80.1003945 129.8,93.3 L129.8,227.1 C129.8,233.438674 127.281972,239.517733 122.799852,243.999852 C118.317733,248.481972 112.238674,251 105.9,251 L105.9,251 Z" id="Shape" fill="url(#linearGradient-3)" opacity="0.35"></path>
                    <path d="M79.3,162.2 C102.5,173 127.3,168 136,163.1 C135,158 136,156.9 136,156.9 C117.800645,163.197972 98.3512776,165.015991 79.3,162.2 Z" id="Shape" fill="#FFFFFF" opacity="0.25"></path>
                    <path d="M72.8,154.5 C109.7,134.7 138.7,152.3 138.7,152.3 C116.5,166.2 85.1,169.3 72.8,154.5 Z" id="Shape" fill="#000000" opacity="0.15"></path>
                    <path d="M2.5,162.2 C28,147.6 53.7,154.2 72.7,160 C36.5,137 0.3,156.9 0.3,156.9 L2.5,162.2 Z" id="Shape" fill="#FFFFFF" opacity="0.25"></path>
                    <path d="M29.5,40.7 C39,45 52.7,33.7 75,42.2 C47.3,47.3 34.6,47.5 29.5,40.7 Z" id="Shape" fill="#FFFFFF" opacity="0.5"></path>
                    <path d="M110.6,15.1 C107.9,38.6 104.5,43 79.3,43 C100.9,46 110.6,43 110.6,43 L115.6,29.7 L110.6,15.1 Z" id="Shape" fill="#FFFFFF" opacity="0.5"></path>
                    <circle id="Oval" fill="#FFFFFF" opacity="0.5" cx="103.8" cy="90.4" r="8.7"></circle>
                    <path d="M37,228.8 L37,228.8 C30.7649711,228.807975 24.7830195,226.33465 20.3741846,221.925815 C15.9653498,217.516981 13.4920251,211.535029 13.5,205.3 L13.5,99.3 C13.4920251,93.0649711 15.9653498,87.0830195 20.3741846,82.6741846 C24.7830195,78.2653498 30.7649711,75.7920251 37,75.8 L37,75.8 C43.2350289,75.7920251 49.2169805,78.2653498 53.6258154,82.6741846 C58.0346502,87.0830195 60.5079749,93.0649711 60.5,99.3 L60.5,205.3 C60.4779803,218.26956 49.9695598,228.77798 37,228.8 L37,228.8 Z" id="Shape" fill="url(#linearGradient-4)" opacity="0.95"></path>
                    <path d="M54.9,34.5 L54.9,34.5 C50.6814302,34.5053164 46.6341134,32.8318499 43.6511317,29.8488683 C40.6681501,26.8658866 38.9946836,22.8185698 39,18.6 L39,0 L45,0 L57,10 L70.8,0 L70.8,18.6 C70.8053164,22.8185698 69.1318499,26.8658866 66.1488683,29.8488683 C63.1658866,32.8318499 59.1185698,34.5053164 54.9,34.5 L54.9,34.5 Z" id="Shape" fill="url(#linearGradient-5)" opacity="0.85"></path>
                    <path d="M103.8,192.9 L103.8,192.9 C98.9974071,192.894489 95.1055107,189.002593 95.1,184.2 L95.1,116.7 C95.1055107,111.897407 98.9974071,108.005511 103.8,108 L103.8,108 C108.602593,108.005511 112.494489,111.897407 112.5,116.7 L112.5,184.2 C112.494489,189.002593 108.602593,192.894489 103.8,192.9 L103.8,192.9 Z" id="Shape" fill="url(#linearGradient-6)" opacity="0.85"></path>
                    <path d="M95,24.2 L95,24.2 C90.8692114,24.1727332 87.5272668,20.8307886 87.5,16.7 L87.5,1 L102.5,1 L102.5,16.7 C102.435688,20.8152025 99.1152025,24.1356882 95,24.2 L95,24.2 Z" id="Shape" fill="url(#linearGradient-7)" opacity="0.85"></path>
                    <path d="M122,227 L122,227 C120.343146,227 119,225.656854 119,224 L119,108.3 C119,106.643146 120.343146,105.3 122,105.3 L122,105.3 C123.656854,105.3 125,106.643146 125,108.3 L125,224 C125,225.656854 123.656854,227 122,227 Z" id="Shape" fill="url(#linearGradient-8)" opacity="0.85"></path>
                    <path d="M45.8,25.9 L45.8,25.9 C43.4872084,25.8836546 41.6163454,24.0127916 41.6,21.7 L41.6,15 C41.6163454,12.6872084 43.4872084,10.8163454 45.8,10.8 L45.8,10.8 C48.1127916,10.8163454 49.9836546,12.6872084 50,15 L50,21.7 C50.0277209,22.8221779 49.5941299,23.9066465 48.8003882,24.7003882 C48.0066465,25.4941299 46.9221779,25.9277209 45.8,25.9 L45.8,25.9 Z" id="Shape" fill="#FFFFFF" opacity="0.75"></path>
                    <circle id="Oval" fill="#FFFFFF" opacity="0.5" cx="93.1" cy="17.8" r="3.2"></circle>
                    <rect id="Rectangle-path" fill="#000000" opacity="0.15" x="37.5" y="45.9" width="63.4" height="12.3"></rect>
                    <rect id="Rectangle-path" fill="#FFFFFF" opacity="0.25" x="48" y="45.9" width="22.9" height="10.8"></rect>
                    <path d="M25.5,260 C48.5,254.2 94,253.8 116.7,261.2 C64.2,262 25.5,260 25.5,260 Z" id="Shape" fill="#000000" opacity="0.15"></path>
                    <path d="M113.5,206.8 L24.4,206.8 C17.8876059,206.81101 12.61101,212.087606 12.6,218.6 L12.6,229.8 C12.6,241.39798 22.0020203,250.8 33.6,250.8 L104.2,250.8 C115.79798,250.8 125.2,241.39798 125.2,229.8 L125.2,218.6 C125.234799,215.477253 124.016536,212.470842 121.8177,210.253212 C119.618864,208.035583 116.62293,206.791778 113.5,206.8 L113.5,206.8 Z" id="Shape" fill="url(#linearGradient-9)" opacity="0.35"></path>
                    <path d="M28,160.2 L28,160.2 C22.6451227,160.194488 18.305512,155.854877 18.3,150.5 L18.3,102.3 C18.305512,96.9451227 22.6451227,92.605512 28,92.6 L28,92.6 C33.3548773,92.605512 37.694488,96.9451227 37.7,102.3 L37.7,150.5 C37.661866,155.841287 33.3412867,160.161866 28,160.2 Z" id="Shape" fill="#FFFFFF" opacity="0.5"></path>
                    <path d="M17.4,245.3 L17.4,245.3 C15.2460895,245.3 13.5,243.553911 13.5,241.4 L13.5,234.9 C13.5,232.746089 15.2460895,231 17.4,231 L17.4,231 C19.5539105,231 21.3,232.746089 21.3,234.9 L21.3,241.4 C21.3,243.553911 19.5539105,245.3 17.4,245.3 L17.4,245.3 Z" id="Shape" fill="#FFFFFF" opacity="0.5"></path>
                    <circle id="Oval" fill="#FFFFFF" opacity="0.5" cx="112.2" cy="204.7" r="2.5"></circle>
                    <circle id="Oval" fill="#FFFFFF" opacity="0.5" cx="38.2" cy="184.3" r="2.5"></circle>
                    <circle id="Oval" fill="#FFFFFF" opacity="0.5" cx="51.6" cy="204" r="1.5"></circle>
                    <circle id="Oval" fill="#FFFFFF" opacity="0.5" cx="40.2" cy="122.9" r="2.5"></circle>
                </g>
                <g id="lines-3" transform="translate(0.000000, 36.000000)" fill="#2E4D5C">
                    <path d="M429,261 L284.2,261 C289.786446,256.270275 293.00564,249.319743 293,242 L293,100 C292.98708,78.9633938 277.755996,61.0245605 257,57.6 L257,50 C263.74821,49.4794405 268.967985,43.8681826 269,37.1 L269,15.1 C269,6.81572875 262.284271,0.1 254,0.1 L221.9,0.1 C221.101829,0.0772142258 220.333962,0.406300042 219.8,1 L210,10.8 L200.2,1 C199.654025,0.423297164 198.894147,0.0976349483 198.1,0.1 L190,0.1 C181.715729,0.1 175,6.81572875 175,15.1 L175,37.1 C175.032015,43.8681826 180.25179,49.4794405 187,50 L187,57.6 C166.26355,61.0590462 151.050119,78.9770874 151,100 L151,242 C150.99436,249.319743 154.213554,256.270275 159.8,261 L25,261 C23.3431458,261 22,262.343146 22,264 C22,265.656854 23.3431458,267 25,267 L429,267 C430.656854,267 432,265.656854 432,264 C432,262.343146 430.656854,261 429,261 Z M194,63 L250,63 C270.434536,63 287,79.5654643 287,100 L287,147.3 C282.7,145.2 275.9,143.7 265.9,143.7 C251.3,143.7 242.8,147 233.8,150.5 C230.2,151.9 226.4,153.3 222,154.7 L222,154.7 C211.4,151.1 200.5,147.3 189.1,146.9 C180.2,146.6 165.5,149.1 157,153.3 L157,100 C157,79.5654643 173.565464,63 194,63 L194,63 Z M287,154.7 C287,157.4 276.3,162.1 254.9,162.1 C246.9,162.1 239.2,160.2 231.4,157.8 C233,157.2 234.5,156.6 236,156.1 C244.8,152.7 252.5,149.7 265.9,149.7 C280.4,149.6 287,153.5 287,154.7 Z M157,160.2 C161.7,156.4 178.3,152.5 188.9,152.8 C199.5,153.1 209.5,156.6 220.1,160.3 C231.3,164.1 242.8,168.1 254.9,168.1 C259.5,168.1 277.5,167.8 287,162.7 L287,242 C287,252.49341 278.49341,261 268,261 L176,261 C165.50659,261 157,252.49341 157,242 L157,160.2 Z M181,37 L181,15 C181,10.0294373 185.029437,6 190,6 L196.8,6 L206.9,16.1 L206.9,22.5 C206.9,24.1568542 208.243146,25.5 209.9,25.5 C211.556854,25.5 212.9,24.1568542 212.9,22.5 L212.9,16.1 L223,6 L246.4,6 L246.4,12.7 C246.4,13.5284271 247.071573,14.2 247.9,14.2 C248.728427,14.2 249.4,13.5284271 249.4,12.7 L249.4,6 L252.4,6 L252.4,14.7 C252.4,15.5284271 253.071573,16.2 253.9,16.2 C254.728427,16.2 255.4,15.5284271 255.4,14.7 L255.4,6.1 C259.739966,6.83356936 262.912654,10.5984929 262.9,15 L262.9,37 C262.9,40.8659932 259.765993,44 255.9,44 L187.9,44 C186.055897,43.9894402 184.291826,43.2453504 182.997242,41.9320043 C181.702658,40.6186582 180.984026,38.8440637 181,37 L181,37 Z M193,57 L193,51 L251,51 L251,57 L193,57 Z" id="Shape"></path>
                    <path d="M441,261 L441,261 C439.343146,261 438,262.343146 438,264 C438,265.656854 439.343146,267 441,267 C442.656854,267 444,265.656854 444,264 C444,262.343146 442.656854,261 441,261 Z" id="Shape"></path>
                    <path d="M13,261 L3,261 C1.34314575,261 0,262.343146 0,264 C0,265.656854 1.34314575,267 3,267 L13,267 C14.6568542,267 16,265.656854 16,264 C16,262.343146 14.6568542,261 13,261 Z" id="Shape"></path>
                    <path d="M192.1,194.7 C196.242136,194.7 199.6,191.342136 199.6,187.2 C199.6,183.057864 196.242136,179.7 192.1,179.7 C187.957864,179.7 184.6,183.057864 184.6,187.2 C184.627267,191.330789 187.969211,194.672733 192.1,194.7 L192.1,194.7 Z M192.1,182.7 C194.585281,182.7 196.6,184.714719 196.6,187.2 C196.6,189.685281 194.585281,191.7 192.1,191.7 C189.614719,191.7 187.6,189.685281 187.6,187.2 C187.594653,186.004895 188.067041,184.857192 188.912117,184.012117 C189.757192,183.167041 190.904895,182.694653 192.1,182.7 L192.1,182.7 Z" id="Shape"></path>
                    <path d="M266,215.4 C270.142136,215.4 273.5,212.042136 273.5,207.9 C273.5,203.757864 270.142136,200.4 266,200.4 C261.857864,200.4 258.5,203.757864 258.5,207.9 C258.527267,212.030789 261.869211,215.372733 266,215.4 L266,215.4 Z M266,203.4 C268.485281,203.4 270.5,205.414719 270.5,207.9 C270.5,210.385281 268.485281,212.4 266,212.4 C263.514719,212.4 261.5,210.385281 261.5,207.9 C261.494653,206.704895 261.967041,205.557192 262.812117,204.712117 C263.657192,203.867041 264.804895,203.394653 266,203.4 L266,203.4 Z" id="Shape"></path>
                    <path d="M205.1,212.4 C208.137566,212.4 210.6,209.937566 210.6,206.9 C210.6,203.862434 208.137566,201.4 205.1,201.4 C202.062434,201.4 199.6,203.862434 199.6,206.9 C199.594661,208.360321 200.172408,209.762372 201.205018,210.794982 C202.237628,211.827592 203.639679,212.405339 205.1,212.4 L205.1,212.4 Z M205.1,204.4 C206.480712,204.4 207.6,205.519288 207.6,206.9 C207.6,208.280712 206.480712,209.4 205.1,209.4 C203.719288,209.4 202.6,208.280712 202.6,206.9 C202.594618,206.235323 202.856281,205.596307 203.326294,205.126294 C203.796307,204.656281 204.435323,204.394618 205.1,204.4 L205.1,204.4 Z" id="Shape"></path>
                    <path d="M178.2,115.8 C180.961424,115.8 183.2,113.561424 183.2,110.8 C183.2,108.038576 180.961424,105.8 178.2,105.8 C175.438576,105.8 173.2,108.038576 173.2,110.8 C173.2,113.561424 175.438576,115.8 178.2,115.8 Z M178.2,108.8 C179.304569,108.8 180.2,109.695431 180.2,110.8 C180.2,111.904569 179.304569,112.8 178.2,112.8 C177.095431,112.8 176.2,111.904569 176.2,110.8 C176.2,109.695431 177.095431,108.8 178.2,108.8 Z" id="Shape"></path>
                    <path d="M194,132.5 C197.589851,132.5 200.5,129.589851 200.5,126 C200.5,122.410149 197.589851,119.5 194,119.5 C190.410149,119.5 187.5,122.410149 187.5,126 C187.49734,127.724721 188.181306,129.379567 189.400869,130.599131 C190.620433,131.818694 192.275279,132.50266 194,132.5 Z M194,122.5 C195.932997,122.5 197.5,124.067003 197.5,126 C197.5,127.932997 195.932997,129.5 194,129.5 C192.067003,129.5 190.5,127.932997 190.5,126 C190.49464,125.07011 190.861668,124.176753 191.519211,123.519211 C192.176753,122.861668 193.07011,122.49464 194,122.5 L194,122.5 Z" id="Shape"></path>
                    <path d="M187.9,238.7 L187.9,238.7 C186.243146,238.7 184.9,240.043146 184.9,241.7 C184.9,243.356854 186.243146,244.7 187.9,244.7 C189.556854,244.7 190.9,243.356854 190.9,241.7 C190.9,240.043146 189.556854,238.7 187.9,238.7 Z" id="Shape"></path>
                    <path d="M235.8,224.2 C234.143146,224.2 232.8,225.543146 232.8,227.2 C232.8,228.856854 234.143146,230.2 235.8,230.2 C237.456854,230.2 238.8,228.856854 238.8,227.2 C238.8,225.543146 237.456854,224.2 235.8,224.2 Z" id="Shape"></path>
                    <path d="M234.5,180.8 C236.156854,180.8 237.5,179.456854 237.5,177.8 C237.5,176.143146 236.156854,174.8 234.5,174.8 L234.5,174.8 C232.843146,174.8 231.5,176.143146 231.5,177.8 C231.5,179.456854 232.843146,180.8 234.5,180.8 Z" id="Shape"></path>
                    <path d="M270,131 C271.656854,131 273,129.656854 273,128 C273,126.343146 271.656854,125 270,125 L270,125 C268.343146,125 267,126.343146 267,128 C267,129.656854 268.343146,131 270,131 L270,131 Z" id="Shape"></path>
                    <path d="M166,191.8 C166.81956,191.778975 167.478975,191.11956 167.5,190.3 L167.5,185 C167.5,184.171573 166.828427,183.5 166,183.5 C165.171573,183.5 164.5,184.171573 164.5,185 L164.5,190.3 C164.476486,190.704576 164.626955,191.099923 164.913516,191.386484 C165.200077,191.673045 165.595424,191.823514 166,191.8 L166,191.8 Z" id="Shape"></path>
                    <path d="M166,230.5 C166.81956,230.478975 167.478975,229.81956 167.5,229 L167.5,196.1 C167.5,195.271573 166.828427,194.6 166,194.6 C165.171573,194.6 164.5,195.271573 164.5,196.1 L164.5,229 C164.491744,229.400299 164.647126,229.786645 164.93024,230.06976 C165.213355,230.352874 165.599701,230.508256 166,230.5 Z" id="Shape"></path>
                    <path d="M219.7,103.4 C220.51956,103.378975 221.178975,102.71956 221.2,101.9 L221.2,73.8 C221.2,72.9715729 220.528427,72.3 219.7,72.3 C218.871573,72.3 218.2,72.9715729 218.2,73.8 L218.2,101.9 C218.191744,102.300299 218.347126,102.686645 218.63024,102.96976 C218.913355,103.252874 219.299701,103.408256 219.7,103.4 L219.7,103.4 Z" id="Shape"></path>
                    <path d="M225.7,109.8 C226.51956,109.778975 227.178975,109.11956 227.2,108.3 L227.2,80.2 C227.2,79.3715729 226.528427,78.7 225.7,78.7 C224.871573,78.7 224.2,79.3715729 224.2,80.2 L224.2,108.3 C224.221025,109.11956 224.88044,109.778975 225.7,109.8 L225.7,109.8 Z" id="Shape"></path>
                    <path d="M257.1,132.8 C257.91956,132.778975 258.578975,132.11956 258.6,131.3 L258.6,111.2 C258.6,110.371573 257.928427,109.7 257.1,109.7 C256.271573,109.7 255.6,110.371573 255.6,111.2 L255.6,131.3 C255.591744,131.700299 255.747126,132.086645 256.03024,132.36976 C256.313355,132.652874 256.699701,132.808256 257.1,132.8 Z" id="Shape"></path>
                    <path d="M257.1,107.4 C257.91956,107.378975 258.578975,106.71956 258.6,105.9 L258.6,102.5 C258.6,101.671573 257.928427,101 257.1,101 C256.271573,101 255.6,101.671573 255.6,102.5 L255.6,105.9 C255.576486,106.304576 255.726955,106.699923 256.013516,106.986484 C256.300077,107.273045 256.695424,107.423514 257.1,107.4 L257.1,107.4 Z" id="Shape"></path>
                </g>
                <g id="lights" transform="translate(98.000000, 0.000000)">
                    <circle id="Oval" fill="url(#radialGradient-10)" cx="98" cy="50.3" r="50"></circle>
                    <circle id="Oval" fill="url(#radialGradient-11)" cx="80" cy="139.3" r="80"></circle>
                </g>
            </g>
        </g>
    </g>
</svg>