<svg id="backpacks" xmlns="http://www.w3.org/2000/svg" viewBox="0 0 265 276.24"><defs><style>.cls-1,.cls-14,.cls-15,.cls-16,.cls-17,.cls-18,.cls-19{fill:none;}.cls-1{stroke:#e8e8e8;}.cls-1,.cls-14,.cls-16,.cls-17,.cls-18,.cls-2{stroke-linecap:round;}.cls-1,.cls-14,.cls-15,.cls-16,.cls-17,.cls-18,.cls-19,.cls-2{stroke-linejoin:round;}.cls-1,.cls-2{stroke-width:3px;}.cls-2{fill:#ffe589;stroke:#ceb474;}.cls-10,.cls-13,.cls-2{opacity:0.25;}.cls-3{fill:#78d8d3;}.cls-4{fill:#9c6aa3;}.cls-5{fill:#31c2ba;}.cls-6{fill:#b67dbc;}.cls-7{fill:#ccc;}.cls-8{fill:#a07e67;}.cls-9{fill:#7ab1c4;}.cls-10,.cls-11,.cls-12{fill:#fff;}.cls-11{opacity:0.5;}.cls-14,.cls-15,.cls-16,.cls-17,.cls-18,.cls-19{stroke:#333;}.cls-14,.cls-15,.cls-16{stroke-width:4px;}.cls-16{stroke-dasharray:10.67 10.67;}.cls-17,.cls-18,.cls-19{stroke-width:2px;}.cls-18{stroke-dasharray:2 4;}</style></defs><title>Backpack</title><g id="background"><line class="cls-1" x1="145.5" y1="81.5" x2="145.5" y2="1.5"/><polyline class="cls-1" points="171.5 27.5 145.5 1.5 119.5 27.5"/><polyline class="cls-1" points="176.74 59.41 145.5 28.17 114.26 59.41"/><polyline class="cls-1" points="41.5 137.5 21.5 117.5 1.5 137.5"/><polyline class="cls-1" points="41.5 150.57 21.5 130.57 1.5 150.57"/><line class="cls-1" x1="21.5" y1="117.5" x2="21.5" y2="261.5"/><polyline class="cls-1" points="41.5 180.92 21.5 160.92 1.5 180.92"/><polyline class="cls-1" points="263.5 114.5 257.5 120.5 251.5 114.5"/><polyline class="cls-1" points="247.5 132.5 241.5 138.5 235.5 132.5"/><polyline class="cls-1" points="83.5 56.41 77.5 62.41 71.5 56.41"/><circle class="cls-2" cx="236.09" cy="22.91" r="18.59"/></g><g id="color"><polygon class="cls-3" points="224.69 226.46 224.69 231.5 220.69 231.5 200.69 231.5 200.69 225.5 224.69 225.5 224.69 226.46"/><polygon class="cls-3" points="224.69 211.5 224.69 225.5 200.69 225.5 200.69 202.5 224.69 211.5"/><path class="cls-4" d="M494.9,217v22a6,6,0,0,1-6,6h-.09a5.36,5.36,0,0,0,.09-1V212a5.36,5.36,0,0,0-.09-1h.09A6,6,0,0,1,494.9,217Z" transform="translate(-271.4 -124.48)"/><polygon class="cls-5" points="205.69 261.5 200.69 261.5 200.69 260.24 200.69 231.5 220.69 231.5 218.69 261.5 205.69 261.5"/><path class="cls-6" d="M488.9,212v32a5.36,5.36,0,0,1-.09,1,6,6,0,0,1-5.91,5h-4V206h4a6,6,0,0,1,5.91,5A5.36,5.36,0,0,1,488.9,212Z" transform="translate(-271.4 -124.48)"/><polygon class="cls-3" points="214.69 170.5 214.69 175.5 210.69 175.5 200.69 175.5 200.69 170.5 214.69 170.5"/><polygon class="cls-3" points="214.69 165.5 214.69 170.5 200.69 170.5 200.69 165.5 200.69 156.5 214.69 165.5"/><polygon class="cls-5" points="210.69 175.5 208.69 195.5 200.69 195.5 200.69 175.5 210.69 175.5"/><path class="cls-6" d="M443.9,206h35v44H465.09v-1a4,4,0,0,0-4-4H438.9V206Z" transform="translate(-271.4 -124.48)"/><path class="cls-5" d="M452.09,398.72H397.5V391h38.59a20,20,0,0,0,20-20V327h-4V307.72a20,20,0,0,0,13-18.74V253h2a14,14,0,0,1,5,10.72v121a14,14,0,0,1-14,14h-6Z" transform="translate(-271.4 -124.48)"/><path class="cls-3" d="M366.5,265v10h-3a3,3,0,0,0-3,3v14a3,3,0,0,0,3,3h3v14h-3.41a20,20,0,0,1-20-20V249a4,4,0,0,1,4-4H397.5v14h14V245h49.59a4,4,0,0,1,4,4v40a20,20,0,0,1-20,20H442.5V295h3a3,3,0,0,0,3-3V278a3,3,0,0,0-3-3h-3V265h-14v10h-3a3,3,0,0,0-3,3v14a3,3,0,0,0,3,3h3v14h-48V295h3a3,3,0,0,0,3-3V278a3,3,0,0,0-3-3h-3V265Zm45,30a7,7,0,1,0-7,7A7,7,0,0,0,411.5,295Z" transform="translate(-271.4 -124.48)"/><path class="cls-3" d="M456.09,351.07V371a20,20,0,0,1-20,20h-64a20,20,0,0,1-20-20V351.07ZM434.5,383V359h-60v24Z" transform="translate(-271.4 -124.48)"/><path class="cls-3" d="M356.09,327H366.5v6h-3v6h3v5h14v-5h3v-6h-3v-6h48v17h14V327h13.59v24.09h-104V327Zm60.41,17V334h-24v10Z" transform="translate(-271.4 -124.48)"/><path class="cls-5" d="M452.09,307.72V327H442.5v-6h3v-6h-3v-6h2.59A20.07,20.07,0,0,0,452.09,307.72Z" transform="translate(-271.4 -124.48)"/><path class="cls-7" d="M448.5,278v14a3,3,0,0,1-3,3h-3V281h-7v-6h10A3,3,0,0,1,448.5,278Z" transform="translate(-271.4 -124.48)"/><polygon class="cls-7" points="174.1 190.5 174.1 196.5 171.1 196.5 157.1 196.5 154.1 196.5 154.1 190.5 157.1 190.5 171.1 190.5 174.1 190.5"/><polygon class="cls-8" points="171.1 202.5 171.1 219.5 157.1 219.5 157.1 202.5 157.1 196.5 171.1 196.5 171.1 202.5"/><polygon class="cls-8" points="164.1 156.5 171.1 156.5 171.1 170.5 171.1 176.5 171.1 184.5 171.1 190.5 157.1 190.5 157.1 184.5 157.1 176.5 157.1 170.5 157.1 156.5 164.1 156.5"/><polygon class="cls-8" points="164.1 150.5 157.1 150.5 157.1 140.5 171.1 140.5 171.1 150.5 164.1 150.5"/><rect class="cls-8" x="157.5" y="110.5" width="10" height="10"/><rect class="cls-7" x="157.5" y="106.5" width="10" height="4"/><rect class="cls-8" x="157.5" y="86.5" width="10" height="20"/><rect class="cls-7" x="157.5" y="82.5" width="10" height="4"/><polygon class="cls-8" points="167.5 81.5 167.5 82.5 157.5 82.5 157.5 81.5 157.5 77.5 167.5 77.5 167.5 81.5"/><path class="cls-7" d="M435.5,275v6h-7v14h-3a3,3,0,0,1-3-3V278a3,3,0,0,1,3-3h10Z" transform="translate(-271.4 -124.48)"/><rect class="cls-3" x="103.1" y="234.5" width="60" height="24"/><polygon class="cls-6" points="116.5 81.5 152.5 81.5 157.5 81.5 157.5 82.5 157.5 86.5 157.5 106.5 157.5 110.5 157.5 120.5 140.1 120.5 133.1 120.5 126.1 120.5 107.5 120.5 107.5 115.5 107.5 111.5 107.5 91.5 107.5 87.5 107.5 81.5 112.5 81.5 116.5 81.5"/><polygon class="cls-5" points="157.1 196.5 157.1 202.5 109.1 202.5 109.1 184.5 157.1 184.5 157.1 190.5 154.1 190.5 154.1 196.5 157.1 196.5"/><rect class="cls-7" x="121.1" y="209.5" width="24" height="10"/><polygon class="cls-7" points="133.1 120.5 140.1 120.5 140.1 134.5 126.1 134.5 126.1 120.5 133.1 120.5"/><circle class="cls-7" cx="133.1" cy="170.5" r="7"/><path class="cls-5" d="M394.05,398.72h-44a14,14,0,0,1-14-14v-121a14,14,0,0,1,5-10.72h2v36a20,20,0,0,0,13,18.74V327h-4v44a20,20,0,0,0,20,20H397.5v7.74Z" transform="translate(-271.4 -124.48)"/><path class="cls-7" d="M386.5,278v14a3,3,0,0,1-3,3h-3V281h-7v-6h10A3,3,0,0,1,386.5,278Z" transform="translate(-271.4 -124.48)"/><polygon class="cls-7" points="112.1 208.5 112.1 214.5 109.1 214.5 95.1 214.5 92.1 214.5 92.1 208.5 95.1 208.5 109.1 208.5 112.1 208.5"/><rect class="cls-8" x="95.1" y="214.5" width="14" height="5"/><polygon class="cls-8" points="102.1 156.5 109.1 156.5 109.1 170.5 109.1 184.5 109.1 202.5 109.1 208.5 95.1 208.5 95.1 202.5 95.1 184.5 95.1 170.5 95.1 156.5 102.1 156.5"/><polygon class="cls-8" points="102.1 150.5 95.1 150.5 95.1 140.5 109.1 140.5 109.1 150.5 102.1 150.5"/><rect class="cls-8" x="97.5" y="115.5" width="10" height="5"/><rect class="cls-7" x="97.5" y="111.5" width="10" height="4"/><rect class="cls-8" x="97.5" y="91.5" width="10" height="20"/><rect class="cls-7" x="97.5" y="87.5" width="10" height="4"/><polygon class="cls-8" points="107.5 81.5 107.5 87.5 97.5 87.5 97.5 81.5 97.5 77.5 107.5 77.5 107.5 81.5"/><path class="cls-7" d="M373.5,275v6h-7v14h-3a3,3,0,0,1-3-3V278a3,3,0,0,1,3-3h10Z" transform="translate(-271.4 -124.48)"/><path class="cls-6" d="M363.9,206h5v39H347.09a4,4,0,0,0-4,4v1H328.9V206Z" transform="translate(-271.4 -124.48)"/><path class="cls-5" d="M366.5,309v18H356.09V307.72a20.07,20.07,0,0,0,7,1.26Z" transform="translate(-271.4 -124.48)"/><polygon class="cls-5" points="47.45 261.5 42.69 261.5 39.33 219.5 64.69 219.5 64.69 260.24 64.69 261.5 47.45 261.5"/><polygon class="cls-3" points="64.69 211.5 64.69 219.5 39.33 219.5 38.69 211.5 42.69 211.5 62.69 211.5 64.69 211.5"/><path class="cls-9" d="M334.09,336h-20a10,10,0,0,1,7-9.54,10,10,0,0,1,6,0A10,10,0,0,1,334.09,336Z" transform="translate(-271.4 -124.48)"/><polygon class="cls-7" points="58.69 189.2 58.69 195.2 55.69 195.2 49.69 195.2 46.69 195.2 46.69 189.2 58.69 189.2"/><path class="cls-6" d="M328.9,206v44h-4a6,6,0,0,1-5.91-5,5.36,5.36,0,0,1-.09-1V212a5.36,5.36,0,0,1,.09-1,6,6,0,0,1,5.91-5Z" transform="translate(-271.4 -124.48)"/><path class="cls-9" d="M327.09,319.68v6.76a10,10,0,0,0-6,0v-6.76Z" transform="translate(-271.4 -124.48)"/><path class="cls-4" d="M318.9,211H319a5.36,5.36,0,0,0-.09,1v32a5.36,5.36,0,0,0,.09,1h-.09a6,6,0,0,1-6-6V217A6,6,0,0,1,318.9,211Z" transform="translate(-271.4 -124.48)"/></g><g id="shadows"><path class="cls-10" d="M312.9,223v-5a6,6,0,0,1,6-6v5A6,6,0,0,0,312.9,223Z" transform="translate(-271.4 -124.48)"/><path class="cls-10" d="M488.9,217v-5a6,6,0,0,1,6,6v5A6,6,0,0,0,488.9,217Z" transform="translate(-271.4 -124.48)"/><path class="cls-10" d="M318.9,217v-4a6,6,0,0,1,6-6h44v4h-44A6,6,0,0,0,318.9,217Z" transform="translate(-271.4 -124.48)"/><path class="cls-10" d="M482.9,211h-44v-4h44a6,6,0,0,1,6,6v4A6,6,0,0,0,482.9,211Z" transform="translate(-271.4 -124.48)"/><rect class="cls-10" x="107.5" y="82.5" width="50" height="4"/><rect class="cls-10" x="97.5" y="78.5" width="10" height="4"/><line class="cls-11" x1="107.5" y1="82.5" x2="97.5" y2="82.5"/><rect class="cls-10" x="157.5" y="78.5" width="10" height="4"/><rect class="cls-10" x="72.5" y="120.5" width="53.6" height="5.15"/><rect class="cls-10" x="139.5" y="120.5" width="53.6" height="5.15"/><rect class="cls-10" x="87.1" y="135.5" width="30" height="5" rx="2" ry="2"/><rect class="cls-10" x="149.1" y="135.5" width="30" height="5" rx="2" ry="2"/><rect class="cls-10" x="38.69" y="210.65" width="26" height="5.5"/><rect class="cls-12" x="89.38" y="149.65" width="24.5" height="5.88"/><rect class="cls-12" x="151.38" y="149.65" width="24.5" height="5.88"/><path class="cls-12" d="M411.35,292.13A6.92,6.92,0,0,0,407.5,291a7,7,0,0,0-7,7,6.92,6.92,0,0,0,1.15,3.85,7,7,0,1,1,9.7-9.7Z" transform="translate(-271.4 -124.48)"/><rect class="cls-12" x="126.1" y="120.5" width="14.54" height="3.6"/><rect class="cls-11" x="121.1" y="210.65" width="22.85" height="2.75"/><polyline class="cls-10" points="224.69 216.5 200.69 207.5 200.69 203.5 224.69 212.5 224.69 216.5"/><polyline class="cls-10" points="214.69 170.5 200.69 161.5 200.69 157.5 214.69 166.5 214.69 170.5"/><rect class="cls-13" x="200.69" y="232.48" width="19.67" height="4.02"/><rect class="cls-13" x="39.69" y="219.48" width="23.67" height="3.02"/><rect class="cls-13" x="199.54" y="176.99" width="10.67" height="3.02"/><path class="cls-13" d="M442.5,310h2.59a20,20,0,0,0,20-20v4a20,20,0,0,1-20,20H442.5Z" transform="translate(-271.4 -124.48)"/><path class="cls-13" d="M366.5,310v0h-3.41a20,20,0,0,1-20-20v4a20,20,0,0,0,20,20h3.41" transform="translate(-271.4 -124.48)"/><path class="cls-13" d="M442.5,314v0Z" transform="translate(-271.4 -124.48)"/><rect class="cls-13" x="109.1" y="184.5" width="46.72" height="5.38"/><rect class="cls-13" x="80.69" y="226.59" width="104" height="4.02"/><rect class="cls-12" x="92.1" y="208.5" width="19.28" height="4.9"/><rect class="cls-12" x="154.97" y="189.88" width="19.12" height="6.62"/><rect class="cls-10" x="103.88" y="234.49" width="59.22" height="6.01"/></g><g id="lines"><line class="cls-14" x1="157.5" y1="81.5" x2="107.5" y2="81.5"/><path class="cls-14" d="M438.9,206h44a6,6,0,0,1,6,6v32a6,6,0,0,1-6,6H467.09" transform="translate(-271.4 -124.48)"/><path class="cls-14" d="M341.09,250H324.9a6,6,0,0,1-6-6V212a6,6,0,0,1,6-6h44" transform="translate(-271.4 -124.48)"/><path class="cls-14" d="M467.09,253a14,14,0,0,1,5,10.72v121a14,14,0,0,1-14,14h-108a14,14,0,0,1-14-14v-121a14,14,0,0,1,5-10.72" transform="translate(-271.4 -124.48)"/><path class="cls-14" d="M366.5,309h-3.41a20,20,0,0,1-20-20V249a4,4,0,0,1,4-4h114a4,4,0,0,1,4,4v40a20,20,0,0,1-20,20H442.5" transform="translate(-271.4 -124.48)"/><line class="cls-14" x1="157.1" y1="184.5" x2="109.1" y2="184.5"/><path class="cls-14" d="M442.5,327h13.59v44a20,20,0,0,1-20,20h-64a20,20,0,0,1-20-20V327H366.5" transform="translate(-271.4 -124.48)"/><line class="cls-14" x1="157.1" y1="202.5" x2="109.1" y2="202.5"/><polygon class="cls-14" points="64.69 261.5 42.69 261.5 38.69 211.5 64.69 211.5 64.69 261.5"/><line class="cls-14" x1="200.69" y1="261.5" x2="200.69" y2="231.5"/><line class="cls-14" x1="220.69" y1="231.5" x2="218.69" y2="261.5"/><polyline class="cls-14" points="200.69 231.5 224.69 231.5 224.69 211.5 200.69 202.5"/><rect class="cls-14" x="46.69" y="189.2" width="12" height="6"/><line class="cls-14" x1="49.69" y1="201.96" x2="49.69" y2="195.2"/><line class="cls-14" x1="55.69" y1="201.96" x2="55.69" y2="195.2"/><path class="cls-15" d="M327.09,326.44a10,10,0,0,1,7,9.54" transform="translate(-271.4 -124.48)"/><path class="cls-15" d="M314.09,336a10,10,0,0,1,7-9.54" transform="translate(-271.4 -124.48)"/><polyline class="cls-14" points="157.5 120.5 157.5 77.5 167.5 77.5 167.5 120.5"/><polyline class="cls-14" points="97.5 120.5 97.5 77.5 107.5 77.5 107.5 120.5"/><line class="cls-14" x1="57.5" y1="81.5" x2="57.5" y2="87.5"/><line class="cls-16" x1="57.5" y1="98.17" x2="57.5" y2="114.17"/><line class="cls-14" x1="57.5" y1="119.5" x2="57.5" y2="125.5"/><line class="cls-14" x1="207.5" y1="81.5" x2="207.5" y2="87.5"/><line class="cls-16" x1="207.5" y1="98.17" x2="207.5" y2="114.17"/><line class="cls-14" x1="207.5" y1="119.5" x2="207.5" y2="125.5"/><line class="cls-17" x1="39.33" y1="219.5" x2="64.69" y2="219.5"/><polyline class="cls-14" points="210.69 175.5 208.69 195.5 200.69 195.5 200.69 165.5"/><polyline class="cls-14" points="200.69 175.5 214.69 175.5 214.69 165.5 200.69 156.5"/><polyline class="cls-14" points="95.1 150.5 95.1 140.5 109.1 140.5 109.1 150.5"/><line class="cls-14" x1="95.1" y1="208.5" x2="95.1" y2="156.5"/><line class="cls-14" x1="109.1" y1="208.5" x2="109.1" y2="156.5"/><polyline class="cls-14" points="109.1 214.5 109.1 219.5 95.1 219.5 95.1 214.5"/><rect class="cls-14" x="92.1" y="208.5" width="20" height="6"/><path class="cls-14" d="M380.5,295h3a3,3,0,0,0,3-3V278a3,3,0,0,0-3-3h-20a3,3,0,0,0-3,3v14a3,3,0,0,0,3,3h3" transform="translate(-271.4 -124.48)"/><line class="cls-14" x1="109.1" y1="156.5" x2="95.1" y2="156.5"/><line class="cls-14" x1="95.1" y1="140.5" x2="89.1" y2="140.5"/><line class="cls-14" x1="109.1" y1="140.5" x2="115.1" y2="140.5"/><polyline class="cls-14" points="171.1 190.5 171.1 176.5 171.1 156.5"/><polyline class="cls-14" points="157.1 190.5 157.1 176.5 157.1 156.5"/><polyline class="cls-14" points="157.1 150.5 157.1 140.5 171.1 140.5 171.1 150.5"/><polyline class="cls-14" points="171.1 196.5 171.1 219.5 157.1 219.5 157.1 196.5"/><rect class="cls-14" x="154.1" y="190.5" width="20" height="6"/><path class="cls-14" d="M442.5,295h3a3,3,0,0,0,3-3V278a3,3,0,0,0-3-3h-20a3,3,0,0,0-3,3v14a3,3,0,0,0,3,3h3" transform="translate(-271.4 -124.48)"/><line class="cls-14" x1="171.1" y1="156.5" x2="157.1" y2="156.5"/><line class="cls-14" x1="157.1" y1="140.5" x2="151.1" y2="140.5"/><line class="cls-14" x1="171.1" y1="140.5" x2="177.1" y2="140.5"/><line class="cls-14" x1="102.1" y1="160.5" x2="102.1" y2="148.5"/><line class="cls-14" x1="102.1" y1="166.5" x2="102.1" y2="166.5"/><line class="cls-14" x1="102.1" y1="172.5" x2="102.1" y2="172.5"/><line class="cls-14" x1="164.1" y1="166.5" x2="164.1" y2="166.5"/><line class="cls-14" x1="164.1" y1="172.5" x2="164.1" y2="172.5"/><line class="cls-14" x1="164.1" y1="160.5" x2="164.1" y2="148.5"/><circle class="cls-14" cx="133.1" cy="170.5" r="7"/><line class="cls-14" x1="133.1" y1="170.5" x2="133.1" y2="170.5"/><line class="cls-17" x1="156.69" y1="240.5" x2="155.69" y2="240.5"/><line class="cls-18" x1="151.69" y1="240.5" x2="111.69" y2="240.5"/><line class="cls-17" x1="109.69" y1="240.5" x2="108.69" y2="240.5"/><line class="cls-14" x1="42.69" y1="261.5" x2="12.73" y2="261.5"/><line class="cls-14" x1="200.69" y1="261.5" x2="235.58" y2="261.5"/><line class="cls-14" x1="245.43" y1="261.5" x2="253.2" y2="261.5"/><line class="cls-17" x1="200.69" y1="225.5" x2="224.69" y2="225.5"/><line class="cls-17" x1="200.69" y1="170.5" x2="214.69" y2="170.5"/><path class="cls-17" d="M496.09,350.94c5.53,10.65,6.6,21.45,2.68,18.45-4.94-3.77,8.22-8.55.77,7.2" transform="translate(-271.4 -124.48)"/><line class="cls-17" x1="112.5" y1="81.5" x2="112.5" y2="90.7"/><line class="cls-17" x1="92.5" y1="81.5" x2="92.5" y2="90.7"/><line class="cls-17" x1="116.5" y1="81.5" x2="116.5" y2="87.7"/><line class="cls-17" x1="152.5" y1="81.5" x2="152.5" y2="86.7"/><line class="cls-17" x1="172.5" y1="81.5" x2="172.5" y2="90.7"/><line class="cls-17" x1="105.1" y1="207.88" x2="105.1" y2="202.88"/><line class="cls-17" x1="99.1" y1="207.88" x2="99.1" y2="202.88"/><line class="cls-17" x1="166.1" y1="201.88" x2="166.1" y2="196.88"/><line class="cls-17" x1="161.1" y1="189.88" x2="161.1" y2="184.88"/><line class="cls-17" x1="166.1" y1="189.88" x2="166.1" y2="186.88"/><line class="cls-17" x1="113.88" y1="135.5" x2="92.5" y2="135.5"/><line class="cls-17" x1="165.19" y1="135.5" x2="153.19" y2="135.5"/><line class="cls-17" x1="174.19" y1="135.5" x2="170.19" y2="135.5"/><line class="cls-14" x1="80.69" y1="226.59" x2="184.69" y2="226.59"/><rect class="cls-14" x="121.1" y="209.5" width="24" height="10"/><line class="cls-19" x1="126.1" y1="214.5" x2="140.1" y2="214.5"/><line class="cls-17" x1="46.14" y1="248.38" x2="47.45" y2="261.5"/><path class="cls-17" d="M452.09,398.72a14,14,0,0,0,12.69-8.08" transform="translate(-271.4 -124.48)"/><path class="cls-17" d="M345.22,392.6a14,14,0,0,0,11.56,6.12" transform="translate(-271.4 -124.48)"/><line class="cls-17" x1="122.65" y1="274.24" x2="122.65" y2="270.2"/><line class="cls-17" x1="126.1" y1="274.24" x2="126.1" y2="266.5"/><path class="cls-17" d="M348.09,390.64a14,14,0,0,0,12.69,8.08" transform="translate(-271.4 -124.48)"/><line class="cls-17" x1="72.2" y1="265.25" x2="71.34" y2="263.54"/><line class="cls-14" x1="89.38" y1="274.24" x2="55.42" y2="274.24"/><line class="cls-14" x1="44.3" y1="274.24" x2="27.71" y2="274.24"/><line class="cls-14" x1="227.38" y1="274.24" x2="185.42" y2="274.24"/><path class="cls-17" d="M486.09,300c-.52,6.66,1.9,12.33,2.81,12.88" transform="translate(-271.4 -124.48)"/><line class="cls-17" x1="205.69" y1="250.15" x2="205.69" y2="261.5"/><rect class="cls-14" x="126.1" y="120.5" width="14" height="14"/><line class="cls-17" x1="133.1" y1="129.5" x2="133.1" y2="120.5"/><line class="cls-17" x1="180.69" y1="202.5" x2="180.69" y2="183.24"/><line class="cls-17" x1="84.69" y1="202.85" x2="84.69" y2="183.24"/><rect class="cls-14" x="103.1" y="234.5" width="60" height="24"/><line class="cls-14" x1="109.08" y1="240.5" x2="109.08" y2="245.5"/><path class="cls-15" d="M318.9,245a6,6,0,0,1-6-6V217a6,6,0,0,1,6-6" transform="translate(-271.4 -124.48)"/><path class="cls-15" d="M488.9,211a6,6,0,0,1,6,6v22a6,6,0,0,1-6,6" transform="translate(-271.4 -124.48)"/><line class="cls-17" x1="97.5" y1="87.5" x2="107.5" y2="87.5"/><line class="cls-17" x1="97.5" y1="91.5" x2="107.5" y2="91.5"/><line class="cls-17" x1="97.5" y1="111.5" x2="107.5" y2="111.5"/><line class="cls-17" x1="97.5" y1="115.5" x2="107.5" y2="115.5"/><line class="cls-17" x1="157.5" y1="82.5" x2="167.5" y2="82.5"/><line class="cls-17" x1="157.5" y1="86.5" x2="167.5" y2="86.5"/><line class="cls-17" x1="157.5" y1="106.5" x2="167.5" y2="106.5"/><line class="cls-17" x1="157.5" y1="110.5" x2="167.5" y2="110.5"/></g></svg>