<svg id="campfire_copy" data-name="campfire copy" xmlns="http://www.w3.org/2000/svg" xmlns:xlink="http://www.w3.org/1999/xlink" viewBox="0 0 271.49 320.08"><defs><style>.cls-1{fill:url(#radial-gradient);}.cls-15,.cls-2{fill:#fff2bb;}.cls-16,.cls-2,.cls-24{opacity:0.25;}.cls-19,.cls-3{fill:#fff;}.cls-3{opacity:0.08;}.cls-4{fill:#ffe589;}.cls-11,.cls-12,.cls-20,.cls-21,.cls-22,.cls-23,.cls-5,.cls-6,.cls-7,.cls-8,.cls-9{fill:none;}.cls-5,.cls-6,.cls-7,.cls-8,.cls-9{stroke-miterlimit:10;}.cls-5{stroke:url(#radial-gradient-2);}.cls-6{stroke:url(#radial-gradient-4);}.cls-7{stroke:url(#radial-gradient-6);}.cls-8{stroke:url(#radial-gradient-8);}.cls-9{stroke:url(#radial-gradient-10);}.cls-10{opacity:0.33;}.cls-11,.cls-12,.cls-22,.cls-23{stroke:#333;}.cls-11,.cls-12,.cls-20,.cls-22,.cls-23{stroke-linecap:round;stroke-linejoin:round;}.cls-11{stroke-width:3px;}.cls-12{stroke-width:1.5px;}.cls-13{fill:#515151;}.cls-14{fill:#d67878;}.cls-17{opacity:0.75;}.cls-18{fill:#c95b5b;}.cls-20{stroke:#7f2f2f;}.cls-20,.cls-22{stroke-width:4px;}.cls-23{stroke-width:2px;}.cls-24{fill:url(#radial-gradient-12);}.cls-25,.cls-26,.cls-27,.cls-28,.cls-29{opacity:0.1;}.cls-25{fill:url(#radial-gradient-13);}.cls-26{fill:url(#radial-gradient-14);}.cls-27{fill:url(#radial-gradient-15);}.cls-28{fill:url(#radial-gradient-16);}.cls-29{fill:url(#radial-gradient-17);}</style><radialGradient id="radial-gradient" cx="125.12" cy="258.08" r="107.52" gradientUnits="userSpaceOnUse"><stop offset="0" stop-color="#4f4c59"/><stop offset="1" stop-color="#3f3d47"/></radialGradient><radialGradient id="radial-gradient-2" cx="3" cy="128.76" r="2.15" gradientUnits="userSpaceOnUse"><stop offset="0" stop-color="#ffe589"/><stop offset="0.09" stop-color="#ffe589" stop-opacity="0.86"/><stop offset="0.29" stop-color="#ffe589" stop-opacity="0.6"/><stop offset="0.47" stop-color="#ffe589" stop-opacity="0.39"/><stop offset="0.63" stop-color="#ffe589" stop-opacity="0.22"/><stop offset="0.78" stop-color="#ffe589" stop-opacity="0.1"/><stop offset="0.91" stop-color="#ffe589" stop-opacity="0.03"/><stop offset="1" stop-color="#ffe589" stop-opacity="0"/></radialGradient><radialGradient id="radial-gradient-4" cx="188.07" cy="108.08" r="4.26" xlink:href="#radial-gradient-2"/><radialGradient id="radial-gradient-6" cx="93.86" cy="56.56" r="2.85" xlink:href="#radial-gradient-2"/><radialGradient id="radial-gradient-8" cx="85.91" cy="153.48" r="2.15" xlink:href="#radial-gradient-2"/><radialGradient id="radial-gradient-10" cx="19" cy="144.76" r="4.96" xlink:href="#radial-gradient-2"/><radialGradient id="radial-gradient-12" cx="404.48" cy="450.75" r="101.5" xlink:href="#radial-gradient-2"/><radialGradient id="radial-gradient-13" cx="127.04" cy="82" r="5" xlink:href="#radial-gradient-2"/><radialGradient id="radial-gradient-14" cx="138.87" cy="137.76" r="6" xlink:href="#radial-gradient-2"/><radialGradient id="radial-gradient-15" cx="103.48" cy="171.56" r="6" xlink:href="#radial-gradient-2"/><radialGradient id="radial-gradient-16" cx="158.4" cy="199.56" r="6" xlink:href="#radial-gradient-2"/><radialGradient id="radial-gradient-17" cx="233.99" cy="67.59" r="37.5" xlink:href="#radial-gradient-2"/></defs><title>camp-fire</title><g id="tent-color"><polygon class="cls-1" points="129.72 105.08 244.61 302.82 14.82 302.82 129.71 105.08 129.72 105.08"/></g><g id="back_shadwos" data-name="back shadwos"><path class="cls-2" d="M480.05,523.89l48.24-.76-41.54-71.47,36.4,71.47-7.92.76-10.55-20.63,7.05,19.87h-4l-5.79-11.68,2.9,11.68h-8.1l-23.44-55.59,19.86,55.59H481.32c-.5-15.42-23.72-24-18.58-21.4C475.48,508.14,483,514.51,480.05,523.89Z" transform="translate(-283.66 -220.31)"/><polygon class="cls-2" points="35.78 302.82 40.75 282.96 30.82 302.82 25.99 302.82 42.21 266.96 21.99 302.82 19.49 302.82 50.99 242.08 12.32 302.82 35.78 302.82"/><polygon class="cls-3" points="134.72 122.59 194.82 218.91 129.72 105.09 86.24 179.9 128.83 115.91 140.61 140.41 134.72 122.59"/></g><g id="background_copy" data-name="background copy"><path class="cls-4" d="M499.34,277.77a15.44,15.44,0,0,1,8.09,28.3h.46a15.45,15.45,0,1,0-8.55-28.31Z" transform="translate(-283.66 -220.31)"/><line class="cls-5" x1="3" y1="125.76" x2="3" y2="131.76"/><line class="cls-5" x1="6" y1="128.76" y2="128.76"/><line class="cls-6" x1="188.07" y1="102.08" x2="188.07" y2="114.08"/><line class="cls-6" x1="194.07" y1="108.08" x2="182.07" y2="108.08"/><line class="cls-7" x1="93.86" y1="52.56" x2="93.86" y2="60.56"/><line class="cls-7" x1="97.86" y1="56.56" x2="89.86" y2="56.56"/><line class="cls-8" x1="85.91" y1="150.48" x2="85.91" y2="156.48"/><line class="cls-8" x1="88.91" y1="153.48" x2="82.91" y2="153.48"/><line class="cls-9" x1="19" y1="137.76" x2="19" y2="151.76"/><line class="cls-9" x1="26" y1="144.76" x2="12" y2="144.76"/><g class="cls-10"><line class="cls-11" x1="70.86" y1="206.37" x2="70.86" y2="80.5"/><polyline class="cls-11" points="96.86 106.5 70.86 80.5 44.86 106.5"/><polyline class="cls-11" points="228.07 150.41 208.07 130.41 188.07 150.41"/><polyline class="cls-11" points="228.07 163.48 208.07 143.48 188.07 163.48"/><line class="cls-11" x1="208.07" y1="239.93" x2="208.07" y2="130.41"/><polyline class="cls-11" points="228.07 193.83 208.07 173.83 188.07 193.83"/><polyline class="cls-11" points="96.86 136.5 70.86 110.5 44.86 136.5"/><line class="cls-11" x1="32.07" y1="273.13" x2="32.07" y2="188.41"/><polyline class="cls-11" points="47.07 203.41 32.07 188.41 17.07 203.41"/><polyline class="cls-11" points="47.07 223.41 32.07 208.41 17.07 223.41"/></g><polyline class="cls-11" points="140.61 86.33 14.82 302.82 8.24 282.96"/><line class="cls-11" x1="244.61" y1="302.82" x2="118.82" y2="86.33"/><line class="cls-12" x1="31.2" y1="287.33" x2="22.82" y2="302.82"/><line class="cls-12" x1="42.21" y1="266.96" x2="33.9" y2="282.33"/><line class="cls-12" x1="40.75" y1="282.96" x2="30.82" y2="302.82"/><line class="cls-11" x1="124.72" y1="105.08" x2="134.72" y2="105.08"/><line class="cls-11" x1="5.91" y1="283.73" x2="9.91" y2="282.41"/><line class="cls-11" x1="244.63" y1="302.82" x2="246.94" y2="282.03"/><line class="cls-11" x1="249.38" y1="282.3" x2="245.19" y2="281.83"/><line class="cls-12" x1="196.39" y1="263.27" x2="195.32" y2="260.72"/><line class="cls-12" x1="193.16" y1="255.61" x2="189.63" y2="247.23"/><line class="cls-12" x1="213.07" y1="302.82" x2="198.55" y2="268.39"/><line class="cls-12" x1="231.57" y1="302.82" x2="221.02" y2="282.33"/><line class="cls-12" x1="224.07" y1="302.82" x2="218.28" y2="290.69"/></g><g id="shadows_top" data-name="shadows top"><rect class="cls-2" x="527.56" y="500.89" width="5.5" height="1.7" rx="0.85" ry="0.85" transform="translate(-232.14 -269.69) rotate(5.6)"/><rect class="cls-2" x="289.15" y="501.79" width="5.5" height="1.7" rx="0.85" ry="0.85" transform="translate(435.94 675.93) rotate(162.77)"/></g><g id="color_copy" data-name="color copy"><path class="cls-13" d="M475.73,523.13h-7.21c-1.08-5-3.58-10.1-9.29-13.49a46.74,46.74,0,0,0-13.07-5.39h0c13.18-9.22,28.07,3.9,32.15,7.32s3,11.57,3,11.57Z" transform="translate(-283.66 -220.31)"/><path class="cls-13" d="M453.52,531.56H440.31c-1-2.09-2.59-3.86-5.33-3.92.46-4.45,1.68-13.25-3-19.66,1.75-3.36,5.36-4.58,9.71-4.36a24.73,24.73,0,0,1,4.43.63,46.74,46.74,0,0,1,13.07,5.39c5.71,3.39,8.21,8.48,9.29,13.49a42.31,42.31,0,0,1,.82,8.43Z" transform="translate(-283.66 -220.31)"/><path class="cls-14" d="M441.73,445.39c14.25,13.75,14.5,38.75,0,58.23-4.35-.22-8,1-9.71,4.36a15.15,15.15,0,0,0-1.93-2.19c3.56-8.57,1.56-20.23-3.61-24.57-.5,9.67-3.8,16-9.82,19.32-.62-.07-1.26-.12-1.93-.15,4.58-11.67-11.62-34.33-3.35-60.33-10.73,22-40.48,31.61-19,67.13A11.06,11.06,0,0,0,391,511a42.84,42.84,0,0,0-8.61-5.19h0c-27.87-25.57-21.41-59.06-2.91-77.39,19.33-19.16,33.25-34.25,28-55.75,37.5,26,28.25,76.25,18.25,93.23C431.48,463.35,439.23,455.89,441.73,445.39Z" transform="translate(-283.66 -220.31)"/><path class="cls-13" d="M432,508c4.64,6.41,3.42,15.21,3,19.66,2.74.06,4.36,1.83,5.33,3.92a18.75,18.75,0,0,1,1.42,6.83h-57.5a37.23,37.23,0,0,1-.75-6.83c-.19-10.1,4-17.48,7.25-18.92.08-.36.14-.94.28-1.66a11.06,11.06,0,0,1,1.42-3.79c2.24-3.67,7.8-7.56,22.3-6.8.67,0,1.31.08,1.93.15,6.34.62,10.6,2.6,13.43,5.25A15.15,15.15,0,0,1,432,508Z" transform="translate(-283.66 -220.31)"/><path class="cls-15" d="M426.48,481.22c5.17,4.34,7.17,16,3.61,24.57-2.83-2.65-7.09-4.63-13.43-5.25C422.68,497.18,426,490.89,426.48,481.22Z" transform="translate(-283.66 -220.31)"/><path class="cls-15" d="M411.38,440.06c-8.27,26,7.93,48.66,3.35,60.33-14.5-.76-20.06,3.13-22.3,6.8C370.9,471.67,400.65,462.06,411.38,440.06Z" transform="translate(-283.66 -220.31)"/><path class="cls-13" d="M375.29,531.56H350.06s-2.33-3.42-2.16-5.25a12.82,12.82,0,0,1,1.92-3.18c3.91-5.43,12.88-16,18.82-19.4h0a6.69,6.69,0,0,1,3.16-1.09c3,0,7,1.44,10.58,3.14h0A42.84,42.84,0,0,1,391,511c-.14.72-.2,1.3-.28,1.66-3.29,1.44-7.44,8.82-7.25,18.92h-8.19Z" transform="translate(-283.66 -220.31)"/><path class="cls-13" d="M340.4,523.13s13.24-29.14,28.24-19.4c-5.94,3.4-14.91,14-18.82,19.4Z" transform="translate(-283.66 -220.31)"/></g><g id="shadows_copy" data-name="shadows copy"><path class="cls-16" d="M418.92,511.23c.84-.34,4-1.81,4,.59.84-.75,1.88-2.28,0-3S418.14,509.2,418.92,511.23Z" transform="translate(-283.66 -220.31)"/><path class="cls-16" d="M361.8,519.26c.21-.89.88-4.33,2.83-2.93-.12-1.12-.76-2.85-2.46-1.77S359.7,518.71,361.8,519.26Z" transform="translate(-283.66 -220.31)"/><g class="cls-17"><path class="cls-15" d="M398.32,514.22c-.83-3.92,8.58-16.31,30.58-7-5-5.09-17.73-8.88-27.11-5.93A15.43,15.43,0,0,0,391,512.62,9.75,9.75,0,0,1,398.32,514.22Z" transform="translate(-283.66 -220.31)"/><path class="cls-15" d="M388.82,512.65c-12.33-4.85-17.67-10.93-38.75,13.15-2.75-1.75,14.47-20.44,18.36-22.22s21.91,7.8,21.91,7.8Z" transform="translate(-283.66 -220.31)"/><path class="cls-15" d="M434.86,511c7.13-4.23,15.65-4.55,32.82,9.11-8.57-11.84-19.05-18.59-28.32-16.45s-8.13,4.91-8.13,4.91Z" transform="translate(-283.66 -220.31)"/><path class="cls-15" d="M364,507.19c-4.28-1-10.13-.52-16.12,4.88,12.51-11.52,11.9-12.71,20.54-8.49A25,25,0,0,1,364,507.19Z" transform="translate(-283.66 -220.31)"/><path class="cls-15" d="M454.54,507.11c5.19-2,13.32-1.32,20.52,4.34-1.41-6.71-3.81-6.06-11.25-8.81s-16.63.95-16.63.95Z" transform="translate(-283.66 -220.31)"/><path class="cls-15" d="M407.53,537.3c2.52-8.6,3-9.29,10.58-11.91-6,4.38-5.61,8.35-6.46,13.67C409.55,539.37,407.53,537.3,407.53,537.3Z" transform="translate(-283.66 -220.31)"/><path class="cls-15" d="M398.32,514.89c2.54,3.56-11.83-3.38-11.83,22.13-2.39.65-2.75,0-2.75,0s-1.25-21.94,7.28-23.81S398.32,514.89,398.32,514.89Z" transform="translate(-283.66 -220.31)"/><path class="cls-15" d="M425,537.3c.63-4,3.25-8.62,9.58-9.12,5.69.94,5.29,6.83,5.29,6.83-3.19-5.56-11.37-2.37-13.94,2C425.23,538.39,425,537.3,425,537.3Z" transform="translate(-283.66 -220.31)"/><path class="cls-15" d="M453.1,529.82c.76-5.94,0-13.56,13-9.35,2.1,1.83,1.53,5.54,1.53,5.54-4.64-6.31-13.26-4.19-13.76,3.81C453.55,530.32,453.1,529.82,453.1,529.82Z" transform="translate(-283.66 -220.31)"/></g><path class="cls-18" d="M439.36,503.65C449.61,482,449,466.74,442,460.24c-3.12,5.75-13.09,10.9-22,10.27,7.13-16.5,15.71-53.18-5.17-76.3-2.87,20.58-35,40.18-41.33,53.43-4.08,8.55-11,29.18,10.19,58.28-15.81-12.4-27.29-35.62-15.24-62.19S411.8,407.91,408,374.51c15.84,5.63,37.8,45.36,18.09,90.75,6.32-1.37,15-13.48,15.89-19.61,18.24,28.49,9.8,39.12.46,57.62A5,5,0,0,1,439.36,503.65Z" transform="translate(-283.66 -220.31)"/><ellipse class="cls-18" cx="374.47" cy="459.39" rx="5.88" ry="2.25" transform="translate(-419.39 540.69) rotate(-81.41)"/><path class="cls-19" d="M397.54,503.26c-4.37-4.92-6.81-12.62,1.78-18.62,5.63-4.11,9,7.55,5.8,16C402.58,500.42,397.54,503.26,397.54,503.26Z" transform="translate(-283.66 -220.31)"/><path class="cls-18" d="M432,505.91c3.47-6,5.22-7.28,5.59-14.15,2,3.63,5.89,5.46,9-9.46-1.13,9.08-4,20.74-7.26,21.35A47.6,47.6,0,0,0,432,505.91Z" transform="translate(-283.66 -220.31)"/><ellipse class="cls-18" cx="441.4" cy="484.63" rx="5.3" ry="2.58" transform="translate(-396.39 614.53) rotate(-79.97)"/><circle class="cls-18" cx="159.65" cy="255.61" r="1.25"/><path class="cls-18" d="M427.22,421.89c.66,13.73-5.61,27.62-8.61,31,4.5-1.87,8-1.19,5.07,7.35,0,0,5.31-5.12,6.81-19.17S427.22,421.89,427.22,421.89Zm-1.67,26.63c-.66,1.42-1.77,2.3-2.47,2s-.73-1.74-.07-3.16,1.77-2.3,2.47-2S426.21,447.1,425.55,448.52Z" transform="translate(-283.66 -220.31)"/><path class="cls-18" d="M392.83,426.24s1.78-7.73-12.6,7.52-9.55,21.31-9.55,21.31c3.58-15.19,14.17-12.31,9.42-4,6.13-4.56,12.75-9.69,17.38-21.69C391.86,435.51,386.79,432.07,392.83,426.24Zm-6,17.31c-.39.54-1,.79-1.28.57s-.25-.85.14-1.39,1-.79,1.28-.57S387.19,443,386.8,443.55Zm2-5.49c-1.16,1.45-2.84,2-3.74,1.3s-.69-2.48.47-3.93,2.84-2,3.74-1.3S389.94,436.61,388.77,438.06Z" transform="translate(-283.66 -220.31)"/></g><g id="lines_copy" data-name="lines copy"><path class="cls-20" d="M441.73,503.61c14.5-19.48,14.25-44.48,0-58.23-2.5,10.5-10.25,18-16,20.48,10-17,19.25-67.23-18.25-93.23,5.25,21.5-8.67,36.59-28,55.75-18.5,18.33-25,51.83,2.92,77.4" transform="translate(-283.66 -220.31)"/><path class="cls-21" d="M430.09,505.79c3.56-8.57,1.56-20.23-3.61-24.57-.5,9.67-3.8,16-9.82,19.31" transform="translate(-283.66 -220.31)"/><path class="cls-21" d="M414.73,500.39c4.58-11.67-11.62-34.33-3.35-60.33-10.73,22-40.49,31.61-18.94,67.14" transform="translate(-283.66 -220.31)"/><path class="cls-22" d="M384.23,538.39h57.5s0-10.62-6.75-10.75c.75-7.25,3.5-26-20.25-27.25s-23.5,10-24,12.25C386.73,514.39,381.48,524.89,384.23,538.39Z" transform="translate(-283.66 -220.31)"/><path class="cls-22" d="M383.48,531.56H350.07s-2.33-3.42-2.17-5.25,17.33-23.67,23.92-23.67,17.63,6.77,19.2,8.34" transform="translate(-283.66 -220.31)"/><path class="cls-22" d="M432,508h0c3.91-7.51,17.08-4.34,27.21,1.66,9.09,5.39,10,15.1,10.11,21.92" transform="translate(-283.66 -220.31)"/><path class="cls-22" d="M349.83,523.13H340.4s13.26-29.15,28.25-19.41" transform="translate(-283.66 -220.31)"/><path class="cls-22" d="M468.52,523.13h12.8s1.08-8.16-3-11.58-19-16.54-32.15-7.31" transform="translate(-283.66 -220.31)"/><line class="cls-22" x1="56.74" y1="302.82" x2="4.82" y2="302.82"/><line class="cls-22" x1="197.65" y1="302.82" x2="254.61" y2="302.82"/><line class="cls-22" x1="66.4" y1="311.25" x2="56.4" y2="311.25"/><line class="cls-22" x1="100.57" y1="318.08" x2="90.57" y2="318.08"/><polyline class="cls-22" points="195.68 311.25 185.68 311.25 156.65 311.25"/><line class="cls-22" x1="158.07" y1="318.08" x2="168.07" y2="318.08"/><path class="cls-23" d="M390,528.26a18.35,18.35,0,0,0,1,10.13" transform="translate(-283.66 -220.31)"/><path class="cls-23" d="M390.73,512.64c2.75-.25,6.33.25,7.58,2.25" transform="translate(-283.66 -220.31)"/><path class="cls-23" d="M429.57,530.8a7.8,7.8,0,0,0-4.33,7.58" transform="translate(-283.66 -220.31)"/><line class="cls-23" x1="124.74" y1="313.91" x2="122.99" y2="318.08"/><path class="cls-23" d="M418.61,510.53c0-1,1.27-1.9,2.83-1.9s2.83.85,2.83,1.9-1.27,1.9-2.83,1.9" transform="translate(-283.66 -220.31)"/><path class="cls-23" d="M361.37,519.18c-.84-.49-.82-2.07,0-3.54s2.23-2.26,3.07-1.77.82,2.07,0,3.54" transform="translate(-283.66 -220.31)"/><line class="cls-23" x1="91.63" y1="306.02" x2="91.63" y2="311.25"/><line class="cls-23" x1="86.95" y1="307.95" x2="86.95" y2="311.25"/><path class="cls-23" d="M456,521.72c-2.33,2.25-3.92,7.5-2.08,10.67" transform="translate(-283.66 -220.31)"/><line class="cls-23" x1="192.07" y1="298.5" x2="192.07" y2="302.82"/><line class="cls-22" x1="49.4" y1="311.25" x2="45.4" y2="311.25"/><line class="cls-22" x1="179.07" y1="318.08" x2="175.07" y2="318.08"/><line class="cls-20" x1="137.32" y1="135.42" x2="139.5" y2="140.1"/><line class="cls-20" x1="104.71" y1="169.22" x2="102.52" y2="173.9"/><line class="cls-20" x1="127.04" y1="80.5" x2="126.52" y2="83.5"/><line class="cls-20" x1="158.33" y1="198.06" x2="157.81" y2="201.06"/></g><g id="lights_gradients" data-name="lights gradients"><path class="cls-24" d="M468.67,523.89l-.15-.76c-1.08-5-3.58-10.1-9.29-13.49-10.13-6-23.3-9.17-27.21-1.66-2.91-4-8.13-7.11-17.29-7.59-20-1-23,6.75-23.72,10.59-1.57-1.57-12.61-8.34-19.2-8.34a6.69,6.69,0,0,0-3.16,1.09h0c-15-9.74-28.24,19.4-28.24,19.4h9.42c-.19.27-.37.52-.53.76H291.5l-.24-.76a117,117,0,0,1-5.42-35.35c0-64.88,52.59-267.47,117.47-267.47S520.78,422.9,520.78,487.78a117,117,0,0,1-5.42,35.35Z" transform="translate(-283.66 -220.31)"/><path class="cls-22" d="M468.52,523.13h12.8s1.08-8.16-3-11.58-19-16.54-32.15-7.31" transform="translate(-283.66 -220.31)"/><circle class="cls-25" cx="127.04" cy="82" r="5"/><circle class="cls-26" cx="138.87" cy="137.76" r="6"/><circle class="cls-27" cx="103.48" cy="171.56" r="6"/><circle class="cls-28" cx="158.4" cy="199.56" r="6"/><circle class="cls-29" cx="233.99" cy="67.59" r="37.5"/></g></svg>