<?xml version="1.0" encoding="UTF-8"?>
<svg width="469px" height="313px" viewBox="0 0 469 313" version="1.1" xmlns="http://www.w3.org/2000/svg" xmlns:xlink="http://www.w3.org/1999/xlink">
    <!-- Generator: Sketch 45.2 (43514) - http://www.bohemiancoding.com/sketch -->
    <title>herbal-potion</title>
    <desc>Created with Sketch.</desc>
    <defs>
        <linearGradient x1="55.2505793%" y1="-83.0487292%" x2="47.0103762%" y2="100.811503%" id="linearGradient-1">
            <stop stop-color="#FF5983" offset="0%"></stop>
            <stop stop-color="#A736F7" offset="100%"></stop>
        </linearGradient>
        <linearGradient x1="0%" y1="0%" x2="101.999998%" y2="100.999999%" id="linearGradient-2">
            <stop stop-color="#9D45D2" offset="0%"></stop>
            <stop stop-color="#CB44C7" offset="100%"></stop>
        </linearGradient>
        <linearGradient x1="-0.0238834488%" y1="50.0099711%" x2="100%" y2="50.0099711%" id="linearGradient-3">
            <stop stop-color="#FFFFFF" stop-opacity="0.8" offset="0%"></stop>
            <stop stop-color="#B0B0B0" stop-opacity="0.25" offset="88%"></stop>
            <stop stop-color="#FFFFFF" stop-opacity="0" offset="100%"></stop>
        </linearGradient>
        <linearGradient x1="45316%" y1="36761%" x2="45577%" y2="36761%" id="linearGradient-4">
            <stop stop-color="#FFFFFF" stop-opacity="0.8" offset="0%"></stop>
            <stop stop-color="#B0B0B0" stop-opacity="0.25" offset="88%"></stop>
            <stop stop-color="#FFFFFF" stop-opacity="0" offset="100%"></stop>
        </linearGradient>
        <linearGradient x1="0%" y1="50.0190186%" x2="100%" y2="50.0190186%" id="linearGradient-5">
            <stop stop-color="#FFFFFF" stop-opacity="0.8" offset="0%"></stop>
            <stop stop-color="#959595" stop-opacity="0.33" offset="86%"></stop>
            <stop stop-color="#FFFFFF" stop-opacity="0" offset="100%"></stop>
        </linearGradient>
        <linearGradient x1="3495.71168%" y1="30998%" x2="3009.60991%" y2="24577%" id="linearGradient-6">
            <stop stop-color="#FFFFFF" stop-opacity="0.8" offset="0%"></stop>
            <stop stop-color="#959595" stop-opacity="0.33" offset="86%"></stop>
            <stop stop-color="#FFFFFF" stop-opacity="0" offset="100%"></stop>
        </linearGradient>
        <radialGradient cx="100%" cy="100.107837%" fx="100%" fy="100.107837%" r="35.7142857%" gradientTransform="translate(1.000000,1.001078),scale(0.141786,1.000000),translate(-1.000000,-1.001078)" id="radialGradient-7">
            <stop stop-color="#FFFFFF" stop-opacity="0.1" offset="0%"></stop>
            <stop stop-color="#FFFFFF" stop-opacity="0.08" offset="39%"></stop>
            <stop stop-color="#FFFFFF" stop-opacity="0.04" offset="80%"></stop>
            <stop stop-color="#FFFFFF" stop-opacity="0" offset="100%"></stop>
        </radialGradient>
        <linearGradient x1="49.7480607%" y1="-231.256713%" x2="50.2384588%" y2="346.938776%" id="linearGradient-8">
            <stop stop-color="#FFFFFF" stop-opacity="0.8" offset="0%"></stop>
            <stop stop-color="#FFFFFF" stop-opacity="0.74" offset="12%"></stop>
            <stop stop-color="#FFFFFF" stop-opacity="0.57" offset="35%"></stop>
            <stop stop-color="#FFFFFF" stop-opacity="0.3" offset="67%"></stop>
            <stop stop-color="#FFFFFF" stop-opacity="0" offset="100%"></stop>
        </linearGradient>
        <linearGradient x1="140.581034%" y1="45.1063073%" x2="-41.8052257%" y2="54.8633912%" id="linearGradient-9">
            <stop stop-color="#FFFFFF" stop-opacity="0.8" offset="0%"></stop>
            <stop stop-color="#DADADA" stop-opacity="0.12" offset="93%"></stop>
            <stop stop-color="#FFFFFF" stop-opacity="0" offset="100%"></stop>
        </linearGradient>
        <linearGradient x1="1293.97493%" y1="19130%" x2="1278.3933%" y2="19996%" id="linearGradient-10">
            <stop stop-color="#FFFFFF" stop-opacity="0.6" offset="0%"></stop>
            <stop stop-color="#FFFFFF" stop-opacity="0.59" offset="21%"></stop>
            <stop stop-color="#FFFFFF" stop-opacity="0.55" offset="37%"></stop>
            <stop stop-color="#FFFFFF" stop-opacity="0.48" offset="51%"></stop>
            <stop stop-color="#FFFFFF" stop-opacity="0.39" offset="65%"></stop>
            <stop stop-color="#FFFFFF" stop-opacity="0.28" offset="78%"></stop>
            <stop stop-color="#FFFFFF" stop-opacity="0.13" offset="90%"></stop>
            <stop stop-color="#FFFFFF" stop-opacity="0" offset="100%"></stop>
        </linearGradient>
        <linearGradient x1="32752%" y1="38433%" x2="41039%" y2="38433%" id="linearGradient-11">
            <stop stop-color="#FFFFFF" stop-opacity="0.6" offset="0%"></stop>
            <stop stop-color="#FFFFFF" stop-opacity="0.59" offset="21%"></stop>
            <stop stop-color="#FFFFFF" stop-opacity="0.55" offset="37%"></stop>
            <stop stop-color="#FFFFFF" stop-opacity="0.48" offset="51%"></stop>
            <stop stop-color="#FFFFFF" stop-opacity="0.39" offset="65%"></stop>
            <stop stop-color="#FFFFFF" stop-opacity="0.28" offset="78%"></stop>
            <stop stop-color="#FFFFFF" stop-opacity="0.13" offset="90%"></stop>
            <stop stop-color="#FFFFFF" stop-opacity="0" offset="100%"></stop>
        </linearGradient>
        <linearGradient x1="34138%" y1="39267%" x2="37783%" y2="39267%" id="linearGradient-12">
            <stop stop-color="#FFFFFF" stop-opacity="0.6" offset="0%"></stop>
            <stop stop-color="#FFFFFF" stop-opacity="0.59" offset="21%"></stop>
            <stop stop-color="#FFFFFF" stop-opacity="0.55" offset="37%"></stop>
            <stop stop-color="#FFFFFF" stop-opacity="0.48" offset="51%"></stop>
            <stop stop-color="#FFFFFF" stop-opacity="0.39" offset="65%"></stop>
            <stop stop-color="#FFFFFF" stop-opacity="0.28" offset="78%"></stop>
            <stop stop-color="#FFFFFF" stop-opacity="0.13" offset="90%"></stop>
            <stop stop-color="#FFFFFF" stop-opacity="0" offset="100%"></stop>
        </linearGradient>
        <linearGradient x1="38423%" y1="16334%" x2="40501%" y2="16334%" id="linearGradient-13">
            <stop stop-color="#FFFFFF" stop-opacity="0.6" offset="0%"></stop>
            <stop stop-color="#FFFFFF" stop-opacity="0.59" offset="21%"></stop>
            <stop stop-color="#FFFFFF" stop-opacity="0.55" offset="37%"></stop>
            <stop stop-color="#FFFFFF" stop-opacity="0.48" offset="51%"></stop>
            <stop stop-color="#FFFFFF" stop-opacity="0.39" offset="65%"></stop>
            <stop stop-color="#FFFFFF" stop-opacity="0.28" offset="78%"></stop>
            <stop stop-color="#FFFFFF" stop-opacity="0.13" offset="90%"></stop>
            <stop stop-color="#FFFFFF" stop-opacity="0" offset="100%"></stop>
        </linearGradient>
        <linearGradient x1="36322%" y1="30407%" x2="43083%" y2="30407%" id="linearGradient-14">
            <stop stop-color="#FFFFFF" stop-opacity="0.6" offset="0%"></stop>
            <stop stop-color="#FFFFFF" stop-opacity="0.59" offset="21%"></stop>
            <stop stop-color="#FFFFFF" stop-opacity="0.55" offset="37%"></stop>
            <stop stop-color="#FFFFFF" stop-opacity="0.48" offset="51%"></stop>
            <stop stop-color="#FFFFFF" stop-opacity="0.39" offset="65%"></stop>
            <stop stop-color="#FFFFFF" stop-opacity="0.28" offset="78%"></stop>
            <stop stop-color="#FFFFFF" stop-opacity="0.13" offset="90%"></stop>
            <stop stop-color="#FFFFFF" stop-opacity="0" offset="100%"></stop>
        </linearGradient>
        <linearGradient x1="20343%" y1="5141.5654%" x2="27248%" y2="4286.39348%" id="linearGradient-15">
            <stop stop-color="#FFFFFF" stop-opacity="0.6" offset="0%"></stop>
            <stop stop-color="#FFFFFF" stop-opacity="0.59" offset="21%"></stop>
            <stop stop-color="#FFFFFF" stop-opacity="0.55" offset="37%"></stop>
            <stop stop-color="#FFFFFF" stop-opacity="0.48" offset="51%"></stop>
            <stop stop-color="#FFFFFF" stop-opacity="0.39" offset="65%"></stop>
            <stop stop-color="#FFFFFF" stop-opacity="0.28" offset="78%"></stop>
            <stop stop-color="#FFFFFF" stop-opacity="0.13" offset="90%"></stop>
            <stop stop-color="#FFFFFF" stop-opacity="0" offset="100%"></stop>
        </linearGradient>
        <radialGradient cx="19696.25%" cy="14008.5%" fx="19696.25%" fy="14008.5%" r="3354%" id="radialGradient-16">
            <stop stop-color="#FFFFFF" stop-opacity="0.1" offset="0%"></stop>
            <stop stop-color="#FFFFFF" stop-opacity="0.08" offset="39%"></stop>
            <stop stop-color="#FFFFFF" stop-opacity="0.04" offset="80%"></stop>
            <stop stop-color="#FFFFFF" stop-opacity="0" offset="100%"></stop>
        </radialGradient>
        <linearGradient x1="25719%" y1="26568%" x2="28825%" y2="26568%" id="linearGradient-17">
            <stop stop-color="#FFFFFF" stop-opacity="0.6" offset="0%"></stop>
            <stop stop-color="#FFFFFF" stop-opacity="0.59" offset="21%"></stop>
            <stop stop-color="#FFFFFF" stop-opacity="0.55" offset="37%"></stop>
            <stop stop-color="#FFFFFF" stop-opacity="0.48" offset="51%"></stop>
            <stop stop-color="#FFFFFF" stop-opacity="0.39" offset="65%"></stop>
            <stop stop-color="#FFFFFF" stop-opacity="0.28" offset="78%"></stop>
            <stop stop-color="#FFFFFF" stop-opacity="0.13" offset="90%"></stop>
            <stop stop-color="#FFFFFF" stop-opacity="0" offset="100%"></stop>
        </linearGradient>
        <linearGradient x1="18633%" y1="17566%" x2="16667%" y2="17566%" id="linearGradient-18">
            <stop stop-color="#FFFFFF" stop-opacity="0.6" offset="0%"></stop>
            <stop stop-color="#FFFFFF" stop-opacity="0.59" offset="21%"></stop>
            <stop stop-color="#FFFFFF" stop-opacity="0.55" offset="37%"></stop>
            <stop stop-color="#FFFFFF" stop-opacity="0.48" offset="51%"></stop>
            <stop stop-color="#FFFFFF" stop-opacity="0.39" offset="65%"></stop>
            <stop stop-color="#FFFFFF" stop-opacity="0.28" offset="78%"></stop>
            <stop stop-color="#FFFFFF" stop-opacity="0.13" offset="90%"></stop>
            <stop stop-color="#FFFFFF" stop-opacity="0" offset="100%"></stop>
        </linearGradient>
        <linearGradient x1="20919%" y1="9299.02011%" x2="26458%" y2="8193.41078%" id="linearGradient-19">
            <stop stop-color="#FFFFFF" stop-opacity="0.6" offset="0%"></stop>
            <stop stop-color="#FFFFFF" stop-opacity="0.59" offset="21%"></stop>
            <stop stop-color="#FFFFFF" stop-opacity="0.55" offset="37%"></stop>
            <stop stop-color="#FFFFFF" stop-opacity="0.48" offset="51%"></stop>
            <stop stop-color="#FFFFFF" stop-opacity="0.39" offset="65%"></stop>
            <stop stop-color="#FFFFFF" stop-opacity="0.28" offset="78%"></stop>
            <stop stop-color="#FFFFFF" stop-opacity="0.13" offset="90%"></stop>
            <stop stop-color="#FFFFFF" stop-opacity="0" offset="100%"></stop>
        </linearGradient>
        <linearGradient x1="42674%" y1="38408%" x2="46938%" y2="38408%" id="linearGradient-20">
            <stop stop-color="#FFFFFF" stop-opacity="0.6" offset="0%"></stop>
            <stop stop-color="#FFFFFF" stop-opacity="0.59" offset="21%"></stop>
            <stop stop-color="#FFFFFF" stop-opacity="0.55" offset="37%"></stop>
            <stop stop-color="#FFFFFF" stop-opacity="0.48" offset="51%"></stop>
            <stop stop-color="#FFFFFF" stop-opacity="0.39" offset="65%"></stop>
            <stop stop-color="#FFFFFF" stop-opacity="0.28" offset="78%"></stop>
            <stop stop-color="#FFFFFF" stop-opacity="0.13" offset="90%"></stop>
            <stop stop-color="#FFFFFF" stop-opacity="0" offset="100%"></stop>
        </linearGradient>
        <radialGradient cx="20045.3%" cy="5116.5%" fx="20045.3%" fy="5116.5%" r="2567%" id="radialGradient-21">
            <stop stop-color="#FFFFFF" stop-opacity="0.1" offset="0%"></stop>
            <stop stop-color="#FFFFFF" stop-opacity="0.08" offset="39%"></stop>
            <stop stop-color="#FFFFFF" stop-opacity="0.04" offset="80%"></stop>
            <stop stop-color="#FFFFFF" stop-opacity="0" offset="100%"></stop>
        </radialGradient>
        <linearGradient x1="25512%" y1="12831%" x2="30900%" y2="12831%" id="linearGradient-22">
            <stop stop-color="#FFFFFF" stop-opacity="0.6" offset="0%"></stop>
            <stop stop-color="#FFFFFF" stop-opacity="0.59" offset="21%"></stop>
            <stop stop-color="#FFFFFF" stop-opacity="0.55" offset="37%"></stop>
            <stop stop-color="#FFFFFF" stop-opacity="0.48" offset="51%"></stop>
            <stop stop-color="#FFFFFF" stop-opacity="0.39" offset="65%"></stop>
            <stop stop-color="#FFFFFF" stop-opacity="0.28" offset="78%"></stop>
            <stop stop-color="#FFFFFF" stop-opacity="0.13" offset="90%"></stop>
            <stop stop-color="#FFFFFF" stop-opacity="0" offset="100%"></stop>
        </linearGradient>
        <radialGradient cx="50%" cy="50%" fx="50%" fy="50%" r="50%" id="radialGradient-23">
            <stop stop-color="#FFFFFF" stop-opacity="0.6" offset="0%"></stop>
            <stop stop-color="#FFFFFF" stop-opacity="0" offset="100%"></stop>
        </radialGradient>
        <radialGradient cx="20176%" cy="15362%" fx="20176%" fy="15362%" r="1052%" id="radialGradient-24">
            <stop stop-color="#FFFFFF" stop-opacity="0.6" offset="0%"></stop>
            <stop stop-color="#FFFFFF" stop-opacity="0" offset="100%"></stop>
        </radialGradient>
        <radialGradient cx="20725%" cy="5322%" fx="20725%" fy="5322%" r="1052%" id="radialGradient-25">
            <stop stop-color="#FFFFFF" stop-opacity="0.6" offset="0%"></stop>
            <stop stop-color="#FFFFFF" stop-opacity="0" offset="100%"></stop>
        </radialGradient>
        <linearGradient x1="31858%" y1="35316.6219%" x2="49525%" y2="52127.7949%" id="linearGradient-26">
            <stop stop-color="#FFFFFF" stop-opacity="0.6" offset="0%"></stop>
            <stop stop-color="#FFFFFF" stop-opacity="0.59" offset="21%"></stop>
            <stop stop-color="#FFFFFF" stop-opacity="0.55" offset="37%"></stop>
            <stop stop-color="#FFFFFF" stop-opacity="0.48" offset="51%"></stop>
            <stop stop-color="#FFFFFF" stop-opacity="0.39" offset="65%"></stop>
            <stop stop-color="#FFFFFF" stop-opacity="0.28" offset="78%"></stop>
            <stop stop-color="#FFFFFF" stop-opacity="0.13" offset="90%"></stop>
            <stop stop-color="#FFFFFF" stop-opacity="0" offset="100%"></stop>
        </linearGradient>
    </defs>
    <g id="Page-1" stroke="none" stroke-width="1" fill="none" fill-rule="evenodd">
        <g id="herbal-potion" fill-rule="nonzero">
            <g id="background" transform="translate(22.000000, 104.000000)">
                <g id="colors" transform="translate(2.000000, 2.000000)">
                    <path d="M415.56,30.56 C421.388868,36.3934765 421.388868,45.8465235 415.56,51.68 L381.34,85.9 L339.1,85.9 L394.44,30.56 C400.273476,24.731132 409.726524,24.731132 415.56,30.56 Z" id="Shape" fill="#F9F7F2"></path>
                    <path d="M367.56,186.88 L367.56,195.12 C367.562658,197.192155 366.740675,199.180204 365.275439,200.645439 C363.810204,202.110675 361.822155,202.932658 359.75,202.93 L287.14,202.93 C282.826656,202.93 279.33,199.433344 279.33,195.12 L279.33,186.88 L367.56,186.88 Z" id="Shape" fill="#F2EFEC"></path>
                    <path d="M335.72,1.79 C338.83,4.3 337.82,10.74 333.44,16.17 C329.06,21.6 323,23.96 319.88,21.45 C316.76,18.94 317.78,12.5 322.16,7.07 C326.54,1.64 332.6,-0.75 335.72,1.79 Z" id="Shape" fill="#F2FFED"></path>
                    <path d="M325.25,43.55 C327.91,44.55 328.61,49.19 326.8,53.83 C324.99,58.47 321.37,61.39 318.71,60.36 C316.05,59.33 315.34,54.72 317.15,50.08 C318.96,45.44 322.58,42.51 325.25,43.55 Z" id="Shape" fill="#F2FFED"></path>
                    <path d="M301.84,18.43 C302.38,23.38 300.5,27.64 297.66,27.95 C294.82,28.26 292.08,24.49 291.54,19.54 C291,14.59 292.89,10.32 295.73,10.02 C298.57,9.72 301.31,13.48 301.84,18.43 Z" id="Shape" fill="#F2FFED"></path>
                    <path d="M284.17,61.79 C291.292192,67.6869714 295.097663,76.6820613 294.37,85.9 L286.57,85.9 C282.56,74.62 284.17,61.79 284.17,61.79 Z" id="Shape" fill="#F2FFED"></path>
                    <path d="M282.08,31.58 C283.618769,31.5759559 285.008084,32.5003106 285.598815,33.9211777 C286.189546,35.3420449 285.86507,36.9789149 284.776993,38.0669926 C283.688915,39.1550704 282.052045,39.4795462 280.631178,38.8888152 C279.210311,38.2980841 278.285956,36.908769 278.29,35.37 C278.29,34.3648295 278.689302,33.4008282 279.400065,32.6900653 C280.110828,31.9793024 281.07483,31.58 282.08,31.58 Z" id="Shape" fill="#FFFDE9"></path>
                    <path d="M271.63,44.97 C273.168769,44.9659559 274.558084,45.8903106 275.148815,47.3111777 C275.739546,48.7320449 275.41507,50.3689149 274.326993,51.4569926 C273.238915,52.5450704 271.602045,52.8695462 270.181178,52.2788152 C268.760311,51.6880841 267.835956,50.298769 267.84,48.76 C267.845495,46.6691212 269.539121,44.9754951 271.63,44.97 L271.63,44.97 Z" id="Shape" fill="#FFFDE9"></path>
                    <path d="M271,66.27 C273.098682,66.27 274.8,67.971318 274.8,70.07 C274.8,72.168682 273.098682,73.87 271,73.87 C268.901318,73.87 267.2,72.168682 267.2,70.07 C267.2,67.971318 268.901318,66.27 271,66.27 L271,66.27 Z" id="Shape" fill="#FFFDE9"></path>
                    <path d="M255.1,53.66 C254.1,62.55 253.84,77.29 261.85,85.9 L250,85.9 C245.31,75.21 249.61,61.3 253.06,53.11 C253.275575,52.6309166 253.807062,52.3792016 254.314301,52.5159571 C254.82154,52.6527127 255.154466,53.1374803 255.1,53.66 L255.1,53.66 Z" id="Shape" fill="#F2FFED"></path>
                    <path d="M176.64,190.97 C176.641121,197.385436 171.504316,202.620085 165.09,202.74 C146.95,203.08 118.91,202.14 99,188.55 C96.2495703,186.682289 93.6785312,184.56319 91.32,182.22 L103.17,167.36 C109.753638,172.56359 117.384709,176.281903 125.54,178.26 C135.66,180.83 148.05,181.52 163.28,179.32 C163.836526,179.240962 164.39789,179.200864 164.96,179.2 C171.429801,179.238535 176.651127,184.500093 176.64,190.97 L176.64,190.97 Z" id="Shape" fill="#FFFBF3"></path>
                    <path d="M157.32,135.06 C161.854605,139.593746 161.921328,146.924465 157.47,151.54 C149.57,159.77 138.53,170.39 125.54,178.26 C117.384709,176.281903 109.753638,172.56359 103.17,167.36 L103.98,166.36 C115.45,161.61 127.58,152.36 139.63,136.29 C141.829105,133.332574 145.304628,131.598525 148.99,131.62 C152.11418,131.610571 155.112819,132.848905 157.32,135.06 Z" id="Shape" fill="#FFFBF3"></path>
                    <path d="M104,166.35 L103.19,167.35 L91.34,182.21 L91.34,182.21 L87.83,186.61 C86.28,188.55 82.83,188.08 80.83,185.66 L76.27,180.1 L74.69,178.18 L74.69,178.18 L74.54,177.65 C76.28,175.65 78.08,173.47 79.9,171.26 C82.28,168.38 84.68,165.38 87.02,162.4 C88.2,160.89 89.37,159.4 90.5,157.9 L90.5,157.9 C91.86,156.12 93.18,154.36 94.44,152.66 L103.53,157.19 C106.33,158.59 107.53,161.89 106.03,163.83 L104,166.35 Z" id="Shape" fill="#FFFBF3"></path>
                    <path d="M68.21,184.68 C65.7756884,186.961755 62.427625,187.997884 59.13,187.49 C57.1751586,187.20532 55.3372859,186.385026 53.82,185.12 C52.9573443,184.414858 52.2114866,183.577877 51.61,182.64 L32.8,153.64 L21.64,136.4 C17.5725413,130.122435 17.9723404,121.947731 22.6329545,116.097028 C27.2935687,110.246325 35.1719619,108.028999 42.2,110.59 L64,118.49 C62.3435271,120.393968 62.1362512,123.160542 63.4905277,125.290079 C64.8448042,127.419617 67.4382003,128.405108 69.8649459,127.712358 C72.2916915,127.019609 73.9740149,124.813553 74,122.29 C74.005411,122.230122 74.005411,122.169878 74,122.11 L94.1,129.44 C99.6267423,131.443582 102.565693,137.471971 100.74,143.06 C100.653141,143.352304 100.405807,143.56852 100.104515,143.61553 C99.8032239,143.66254 99.5017782,143.53195 99.33,143.28 C98.16,141.61 95.33,139.05 89.12,139.28 C88.4994065,139.302396 87.9642019,139.722765 87.7954091,140.320383 C87.6266164,140.918 87.8628219,141.556249 88.38,141.9 C91.28,143.8 94.8,147.08 95.04,151.9 L95.04,151.9 L94.48,152.66 C93.22,154.36 91.9,156.12 90.54,157.9 L90.54,157.9 C89.41,159.39 88.24,160.9 87.06,162.4 L86.98,162.34 C85.8925764,161.099002 84.3199963,160.391159 82.67,160.4 C80.0350981,160.40135 77.7358216,162.1875 77.0829081,164.740227 C76.4299946,167.292953 77.5893228,169.963714 79.9,171.23 L79.9,171.23 C78.08,173.44 76.28,175.59 74.54,177.62 C74.4963534,177.679088 74.4496218,177.735833 74.4,177.79 C72.46,180.04 70.62,182.13 68.9,184.01 C68.66,184.256667 68.43,184.48 68.21,184.68 Z M76.21,144.25 C76.2099947,142.712135 75.2830687,141.325888 73.8618779,140.738311 C72.4406871,140.150734 70.8054578,140.477683 69.7194564,141.56655 C68.633455,142.655417 68.3108161,144.291502 68.902136,145.71114 C69.4934559,147.130777 70.8821399,148.054047 72.42,148.05 C73.4286372,148.052665 74.3967312,147.653165 75.1099479,146.939948 C75.8231647,146.226731 76.2226648,145.258637 76.22,144.25 L76.21,144.25 Z M62.36,167.36 C62.3640443,165.048706 60.9743319,162.962934 58.8397457,162.07657 C56.7051594,161.190207 54.2467635,161.678095 52.612429,163.312429 C50.9780945,164.946763 50.4902071,167.405159 51.3765704,169.539746 C52.2629337,171.674332 54.3487056,173.064044 56.66,173.06 C58.1734659,173.062655 59.6258535,172.463294 60.6969747,171.394048 C61.7680958,170.324803 62.3700023,168.873468 62.37,167.36 L62.36,167.36 Z M48.77,146.16 C48.77,144.061318 47.068682,142.36 44.97,142.36 C42.871318,142.36 41.17,144.061318 41.17,146.16 C41.17,148.258682 42.871318,149.96 44.97,149.96 C45.9795542,149.962657 46.94867,149.563474 47.6634726,148.850547 C48.3782751,148.137621 48.7800035,147.169558 48.78,146.16 L48.77,146.16 Z M44.97,126.96 C44.9644794,123.813285 42.4100631,121.266325 39.263345,121.270004 C36.1166269,121.273683 33.5681728,123.826608 33.5700097,126.973327 C33.5718467,130.120047 36.1232797,132.669995 39.27,132.67 C40.7886599,132.677995 42.2477198,132.079618 43.3234651,131.007628 C44.3992104,129.935637 45.0026854,128.478679 45,126.96 L44.97,126.96 Z" id="Shape" fill="#FAECEB"></path>
                    <path d="M99,188.55 C96.2878228,188.981519 93.5462797,189.20218 90.8,189.21 L90.43,189.21 L91.32,182.28 L91.32,182.28 C93.6811762,184.602355 96.2521306,186.701298 99,188.55 L99,188.55 Z" id="Shape" fill="#FFFBF3"></path>
                    <path d="M86.88,162.35 L86.96,162.41 C84.62,165.41 82.22,168.41 79.84,171.27 L79.84,171.27 C77.5293228,170.003714 76.3699946,167.332953 77.0229081,164.780227 C77.6758216,162.2275 79.9750981,160.44135 82.61,160.44 C84.2413236,160.435122 85.796276,161.130663 86.88,162.35 L86.88,162.35 Z" id="Shape" fill="#FFFFFF"></path>
                    <path d="M76.22,180.12 L80.78,185.68 C82.78,188.1 86.26,188.57 87.78,186.63 L91.29,182.23 L90.4,189.16 L89.99,192.34 C89.8918575,193.08121 89.4745817,193.74247 88.8477831,194.150082 C88.2209845,194.557693 87.447314,194.670913 86.73,194.46 L78.14,191.93 L78.14,191.93 C78.1196814,191.174178 78.0157143,190.422932 77.83,189.69 C77.37,187.85 76.83,185.84 76.23,183.76 L74.63,178.2 L76.22,180.12 Z" id="Shape" fill="#FFFBF3"></path>
                    <path d="M72.43,140.46 C73.9678654,140.460005 75.3541117,141.386931 75.9416888,142.808122 C76.5292658,144.229313 76.2023169,145.864542 75.1134501,146.950544 C74.0245833,148.036545 72.388498,148.359184 70.9688605,147.767864 C69.549223,147.176544 68.625953,145.78786 68.63,144.25 C68.6299965,143.243094 69.0306713,142.277575 69.7435985,141.566524 C70.4565257,140.855473 71.423098,140.457343 72.43,140.46 L72.43,140.46 Z" id="Shape" fill="#FFFFFF"></path>
                    <path d="M74.64,178.2 L76.24,183.76 C76.84,185.84 77.38,187.85 77.84,189.69 C78.6145622,192.744017 77.9357331,195.984578 76.0005733,198.470965 C74.0654135,200.957352 71.0907084,202.411029 67.94,202.41 L25.22,202.19 L25.22,202.19 C26.9198045,200.298105 27.1605318,197.508984 25.8100266,195.353819 C24.4595214,193.198653 21.8446007,192.198985 19.4008132,192.903616 C16.9570257,193.608247 15.2757586,195.846659 15.28,198.39 C15.2735553,199.777362 15.7832538,201.117548 16.71,202.15 L16.53,202.15 C13.1261408,202.126444 9.81618421,201.031289 7.07,199.02 C4.31871997,197.041232 2.26679903,194.239975 1.21,191.02 C-0.959414853,184.395424 1.33793985,177.125161 6.92,172.95 L16.81,165.57 C18.5713193,167.926167 21.4558455,169.163702 24.3770053,168.816438 C27.2981652,168.469174 29.8121651,166.589868 30.9720055,163.886438 C32.1318459,161.183007 31.7613195,158.066167 30,155.71 L32.82,153.6 L51.63,182.6 C52.2314866,183.537877 52.9773443,184.374858 53.84,185.08 C50.800202,185.439804 48.5873212,188.136315 48.8275859,191.187889 C49.0678505,194.239463 51.6754661,196.556434 54.734117,196.436078 C57.7927679,196.315723 60.2102609,193.801018 60.21,190.74 C60.2110635,189.559209 59.8401828,188.408079 59.15,187.45 C62.447625,187.957884 65.7956884,186.921755 68.23,184.64 C68.45,184.44 68.66,184.23 68.86,184.01 C70.58,182.13 72.42,180.01 74.36,177.79 L74.65,178.15 L74.64,178.2 Z M41.16,180.12 C41.16,178.587088 40.2365961,177.205117 38.8203702,176.618497 C37.4041443,176.031877 35.7739977,176.356133 34.6900653,177.440065 C33.6061329,178.523998 33.2818766,180.154144 33.8684966,181.57037 C34.4551166,182.986596 35.8370881,183.91 37.37,183.91 C39.4631592,183.91 41.16,182.213159 41.16,180.12 L41.16,180.12 Z M15.39,182.12 C15.39,179.645764 13.3842357,177.64 10.91,177.64 C8.43576432,177.64 6.43,179.645764 6.43,182.12 C6.43,184.594236 8.43576432,186.6 10.91,186.6 C12.1051329,186.600048 13.2507425,186.122562 14.0920648,185.273728 C14.9333871,184.424894 15.4006708,183.275085 15.39,182.08 L15.39,182.12 Z" id="Shape" fill="#FAECEB"></path>
                    <path d="M74.63,178.19 L74.34,177.83 C74.3896218,177.775833 74.4363534,177.719088 74.48,177.66 L74.63,178.19 Z" id="Shape" fill="#F0E3FF"></path>
                    <path d="M73.9,122.11 C73.905411,122.169878 73.905411,122.230122 73.9,122.29 C73.8740149,124.813553 72.1916915,127.019609 69.7649459,127.712358 C67.3382003,128.405108 64.7448042,127.419617 63.3905277,125.290079 C62.0362512,123.160542 62.2435271,120.393968 63.9,118.49 L73.9,122.11 Z" id="Shape" fill="#FFFFFF"></path>
                    <ellipse id="Oval" fill="#FFFFFF" cx="56.67" cy="167.36" rx="5.71" ry="5.7"></ellipse>
                    <path d="M59.13,187.49 C59.8201828,188.448079 60.1910635,189.599209 60.19,190.78 C60.1963035,193.849285 57.7751041,196.37447 54.7082659,196.497163 C51.6414277,196.619856 49.0262421,194.296159 48.7873359,191.236179 C48.5484296,188.1762 50.7712815,185.474776 53.82,185.12 C55.3372859,186.385026 57.1751586,187.20532 59.13,187.49 L59.13,187.49 Z" id="Shape" fill="#FFFFFF"></path>
                    <path d="M45,142.37 C46.538769,142.365956 47.9280841,143.290311 48.5188152,144.711178 C49.1095462,146.132045 48.7850704,147.768915 47.6969926,148.856993 C46.6089149,149.94507 44.9720449,150.269546 43.5511777,149.678815 C42.1303106,149.088084 41.2059559,147.698769 41.21,146.16 C41.2154951,144.069121 42.9091212,142.375495 45,142.37 L45,142.37 Z" id="Shape" fill="#FFFFFF"></path>
                    <circle id="Oval" fill="#FFFFFF" cx="39.28" cy="126.96" r="5.7"></circle>
                    <path d="M37.37,176.32 C38.9078601,176.315953 40.2965441,177.239223 40.887864,178.65886 C41.4791839,180.078498 41.156545,181.714583 40.0705436,182.80345 C38.9845422,183.892317 37.3493129,184.219266 35.9281221,183.631689 C34.5069313,183.044112 33.5800053,181.657865 33.58,180.12 C33.5773433,179.113098 33.9754725,178.146526 34.6865236,177.433598 C35.3975746,176.720671 36.3630945,176.319996 37.37,176.32 Z" id="Shape" fill="#FFFFFF"></path>
                    <path d="M30,155.71 C31.9203772,158.051546 32.3977625,161.25933 31.2424468,164.058604 C30.087131,166.857877 27.4862568,168.795203 24.4733916,169.100702 C21.4605263,169.406201 18.5237058,168.030388 16.83,165.52 L30,155.71 Z" id="Shape" fill="#FFFFFF"></path>
                    <path d="M26.69,198.38 C26.6887099,199.78523 26.1647309,201.139733 25.22,202.18 L25.22,202.18 L16.71,202.18 C15.7832538,201.147548 15.2735553,199.807362 15.28,198.42 C15.4080549,195.36206 17.9243797,192.948904 20.985,192.948904 C24.0456203,192.948904 26.5619451,195.36206 26.69,198.42 L26.69,198.38 Z" id="Shape" fill="#FFFFFF"></path>
                    <path d="M10.91,177.61 C12.7228999,177.610005 14.3570995,178.702607 15.0499284,180.377896 C15.7427573,182.053185 15.3576311,183.980895 14.0742858,185.261376 C12.7909404,186.541857 10.8623747,186.922674 9.18863779,186.226103 C7.5149009,185.529533 6.42595335,183.892895 6.43,182.08 C6.43551414,179.60967 8.43966431,177.609994 10.91,177.61 Z" id="Shape" fill="#FFFFFF"></path>
                    <path d="M367.57,186.88 L279.33,186.88 L279.33,187.01 C249.15329,170.774376 230.331705,139.277029 230.33,105.01 C230.33,104.6 230.33,104.18 230.33,103.76 C230.461362,93.881216 238.510345,85.9436532 248.39,85.95 L398.52,85.95 C408.368479,85.9158046 416.415917,93.8028285 416.58,103.65 C416.58,104.86 416.58,106.07 416.58,107.29 C415.654027,140.676109 396.965742,171.02503 367.57,186.88 Z" id="Shape" fill="#F2EFEC"></path>
                </g>
                <g id="shadows" transform="translate(3.000000, 2.000000)">
                    <path d="M103.88,167.36 L111.38,173.36 L125.1,177.97 L155.76,153.64 C150.01,160.45 124.64,171.28 119.83,156.24 L103.88,167.36 Z" id="Shape" fill="#D5E0E5" opacity="0.2"></path>
                    <path d="M147.29,151.15 C141.45,156.99 133.35,158.37 129.21,154.23 C128.314536,153.333388 127.651953,152.231371 127.28,151.02 C127.154153,150.618086 127.060523,150.206785 127,149.79 L141.27,133.34 L149.34,132.18 C149.699589,132.438365 150.034364,132.72962 150.34,133.05 C151.223013,133.937159 151.878315,135.024755 152.25,136.22 C153.71,140.6 151.87,146.57 147.29,151.15 Z" id="Shape" fill="#FFFFFF" opacity="0.8"></path>
                    <path d="M109.24,171.62 L109.24,171.62 C107.434129,174.319333 106.981768,177.703382 108.015238,180.782263 C109.048708,183.861143 111.451219,186.286914 114.52,187.35 C126.38,191.46 144.89,195.78 161.52,190.67 L169.68,202.41 L128.5,202.41 L114,196.48 L95.45,186.69 L90.8,181.69 L102.19,167.4 L109.24,171.62 Z" id="Shape" fill="#D5E0E5" opacity="0.2"></path>
                    <path d="M24,113.63 C19.5,119.24 24,126.96 24,126.96 L40.57,153.25 C44.6523706,159.742811 51.4664532,164.02617 59.0872236,164.89 C66.707994,165.75383 74.3079306,163.10433 79.74,157.69 L80.06,157.37 C83.8743165,153.408106 85.6681315,147.919842 84.93,142.47 L84.67,140.47 L90.79,144.87 L93.4,152.68 L65.4,186.04 L58.1,187.5 L51,184.68 L17.85,131.61 L19.15,120.33 L24,113.63 Z" id="Shape" fill="#D5E0E5" opacity="0.25"></path>
                    <path d="M17.18,187.54 L21.18,183.13 C26.8949607,176.770654 27.6407098,167.370938 23,160.19 L23,160.19 L4.1,174.53 L4.52,175.04 C1.87718816,177.037318 0.545228262,180.324984 1.05259746,183.598562 C1.55996667,186.87214 3.82463506,189.602367 6.94805793,190.705981 C10.0714808,191.809595 13.5486727,191.108167 16,188.88 L16,188.88 C16.4367773,188.47355 16.8320553,188.024675 17.18,187.54 Z" id="Shape" fill="#FFFFFF" opacity="0.42"></path>
                    <path d="M26.9,157.25 L38.54,176.66 C41.6709978,181.840585 40.4533359,188.542013 35.7,192.29 L35.7,192.29 C32.7834479,194.643825 29.2548484,196.114942 25.53,196.53 C17.81,197.32 9.53,195.89 0.6,192.05 L9.9,202.41 L66.9,202.41 L75.18,198.19 L77.11,191.93 L72,178.19 L63.33,187.03 L54.71,186.39 L50.5,183.03 L30.82,153.59 L26.9,156.35 L26.9,157.25 Z" id="Shape" fill="#D5E0E5" opacity="0.25"></path>
                    <path d="M96.71,154.32 L95.84,155.87 C94.465358,158.320473 95.2418993,161.417864 97.61,162.93 L102.17,165.84 L99.5,169.3 L86.94,162.5 L82.38,167.36 L83.93,168.77 C88.1893191,172.626736 89.5941748,178.729078 87.45,184.06 C86.99,185.2 86.45,186.34 85.88,187.49 L90.78,182.67 L97.56,188.25 L88.63,189.86 L86.94,194.56 L77.15,191.93 L73.64,178.2 L82.38,166.92 L92.87,152.67 L96.71,154.32 Z" id="Shape" fill="#D5E0E5" opacity="0.25"></path>
                    <path d="M118.78,176.52 L118.78,176.52 C117.650255,180.991635 120.323747,185.541027 124.78,186.73 C130.7,188.28 140.18,189.47 153.78,187.56 C155.532274,187.311898 157.085637,186.302866 158.024643,184.802771 C158.963648,183.302676 159.192503,181.46455 158.65,179.78 L158.65,179.78 L138.86,180.44 L118.78,176.52 Z" id="Shape" fill="#FFFFFF" opacity="0.8"></path>
                    <path d="M96.63,130.61 L89.43,127.99 L89.62,128.18 L77.35,123.97 L77.5,123.68 C77.58,123.51 77.64,123.4 77.69,123.32 L77.69,123.24 L59.08,116.74 L45.32,111.56 L32.57,109.5 L26.89,112.23 L26.89,112.3 C26.89,112.83 26.89,113.36 26.89,113.89 C27.4686592,123.536465 33.2373389,132.108833 41.9556347,136.27782 C50.6739306,140.446807 60.9680398,139.555478 68.84,133.95 C73.1590922,130.778211 78.7361728,129.867288 83.84,131.5 L90.46,133.7 C93.3151939,134.605621 95.1074841,137.431113 94.71,140.4 L94.71,140.46 L99.57,143.06 L100.02,138.36 L96.63,130.61 Z" id="Shape" fill="#FFFFFF" opacity="0.42"></path>
                    <circle id="Oval" fill="#FFFFFF" opacity="0.8" cx="401.23" cy="34.79" r="9.06"></circle>
                    <rect id="Rectangle-path" fill="#FFFFFF" opacity="0.8" transform="translate(377.983971, 57.694738) rotate(-45.000000) translate(-377.983971, -57.694738) " x="359.823971" y="49.4347379" width="36.32" height="16.52" rx="8.26"></rect>
                    <path d="M413.68,30.14 C413.905014,34.1136885 413.263537,38.0887989 411.8,41.79 C410.970885,43.7290402 409.767996,45.4858029 408.26,46.96 L385.67,69.29 C379.195237,75.6939759 370.456781,79.2870911 361.35,79.29 L344.35,79.29 L338.26,85.38 L379.95,85.93 L414.55,51.32 L418.45,42.77 L418.16,37.77 L413.68,30.14 Z" id="Shape" fill="#D5E0E5" opacity="0.25"></path>
                    <path d="M410.54,93.98 C410.54,89.8433872 407.186613,86.49 403.05,86.49 L240.49,86.49 C236.353387,86.49 233,89.8433872 233,93.98 L243.73,93.98 C251.061383,94.0020308 256.994525,99.9485858 257,107.28 L257,127.57 C257,133.303981 259.277815,138.803112 263.332351,142.857649 C267.386888,146.912185 272.886019,149.19 278.62,149.19 L278.62,149.19 C290.560396,149.19 300.24,139.510396 300.24,127.57 L300.24,107.28 C300.24,99.92909 306.19909,93.97 313.55,93.97 L410.54,93.98 Z" id="Shape" fill="#FFFFFF" opacity="0.35"></path>
                    <rect id="Rectangle-path" fill="#D5E0E5" opacity="0.35" x="278.33" y="187.01" width="88.23" height="8.16"></rect>
                    <path d="M412,93.15 C410.74,104.42 404.94,115.03 397.36,124.41 C377.54,148.93 347.36,162.72 315.82,162.72 L249.37,162.72 L262.28,176.06 L278.28,187.06 L366.51,187.06 L381.8,176.57 L396.63,161.07 L408.63,140.13 L413.38,121.24 L415.52,107.24 L415.52,99.9 L412,93.15 Z" id="Shape" fill="#D5E0E5" opacity="0.25"></path>
                    <path d="M318.88,21.42 C318.88,21.42 331.63,8.53 333.25,0.76 L336.44,5.06 L334.37,10.01 L330.48,20.01 L322.32,22.75 L318.88,21.42 Z" id="Shape" fill="#D5E0E5" opacity="0.35"></path>
                    <path d="M290.45,21.86 C290.45,21.86 297.7,23.34 299.23,13.16 L300.84,18.43 L299.84,25.43 L297.17,28.01 L293.17,26.23 L290.45,21.86 Z" id="Shape" fill="#D5E0E5" opacity="0.35"></path>
                    <path d="M323.57,42.43 C323.57,42.43 320.42,57.38 317.71,61.78 L322.45,58.89 L326.45,51.65 L326.45,46.22 L323.57,42.43 Z" id="Shape" fill="#D5E0E5" opacity="0.35"></path>
                    <path d="M252.5,54.13 C252.5,54.13 247.32,79.13 253.91,85.9 L260.37,85.35 L257.57,81.26 L253.89,68.26 L252.5,54.13 Z" id="Shape" fill="#D5E0E5" opacity="0.35"></path>
                    <path d="M284,61.79 C284,61.79 290.07,78.93 290.45,85.9 L293.37,85.9 L293.1,79.26 L289.49,69.2 L284,61.79 Z" id="Shape" fill="#D5E0E5" opacity="0.35"></path>
                </g>
                <g id="lines" fill="#D8E1E5">
                    <path d="M400.52,85.9 L388.17,85.9 L419,55.09 C423.278255,50.8028129 424.944339,44.5588666 423.370654,38.7101952 C421.796969,32.8615237 417.222595,28.2966795 411.370654,26.7351952 C405.518714,25.1737108 399.278255,26.8528129 395,31.14 L340.25,85.9 L319.92,85.9 C322.68506,83.6013841 325.19604,81.0132979 327.41,78.18 C328.559052,78.3822703 329.723287,78.4859809 330.89,78.49 C338.5,78.49 341.89,73.75 342.03,73.49 C342.662366,72.584253 342.440747,71.3373662 341.535,70.7050002 C340.629253,70.0726342 339.382366,70.2942531 338.75,71.2 C338.63,71.37 336.11,74.72 330.13,74.43 C331.820294,71.9327352 333.356487,69.3345649 334.73,66.65 C341.889521,65.4142523 347.947409,60.6603885 350.85,54 C351.242122,52.9672275 350.722772,51.8121222 349.69,51.42 C348.657228,51.0278778 347.502122,51.5472275 347.11,52.58 C345.138668,56.9346609 341.493406,60.309503 337,61.94 C339.160045,56.9827914 340.938544,51.8679336 342.32,46.64 C343.06,44.2066667 343.693333,41.7766667 344.22,39.35 C348.082043,39.0541356 351.412184,36.5222898 352.73,32.88 C353.13869,31.8527504 352.637249,30.688691 351.61,30.2800004 C350.58275,29.8713097 349.418691,30.3727506 349.01,31.4 C348.386537,33.2457009 346.887983,34.661834 345.01,35.18 C345.508853,32.2007094 345.842695,29.1961292 346.01,26.18 C346.049299,25.4654688 345.704415,24.7842488 345.105263,24.392949 C344.50611,24.0016492 343.743715,23.9597175 343.105263,24.282949 C342.466811,24.6061805 342.049299,25.2454688 342.01,25.96 C341.660073,31.9420858 340.654038,37.8676274 339.01,43.63 C338.742417,43.4653889 338.497078,43.267101 338.28,43.04 C337.34,42.04 336.28,39.95 336.35,35.38 C336.35,34.2754305 335.454569,33.38 334.35,33.38 C333.245431,33.38 332.35,34.2754305 332.35,35.38 C332.23,40.27 333.35,43.86 335.55,46.06 C336.224798,46.7324512 337.022619,47.2688583 337.9,47.64 C333.35,63.5 326.9,73.03 322.13,78.3 C319.495352,81.3897343 316.341293,83.9955554 312.81,86 L305.74,86 C307.893966,81.3682991 309.372357,76.4515541 310.13,71.4 C310.36,71.4 310.59,71.4 310.82,71.4 C316.2,71.4 319.95,67.63 321.82,64.62 L321.82,64.62 C325.16,64.62 328.82,61.47 330.68,56.62 C332.92,50.86 331.74,45.21 327.98,43.75 C324.22,42.29 319.54,45.66 317.3,51.41 C315.5,56.05 315.92,60.61 318.11,62.98 C316.95,64.74 314.48,67.5 310.61,67.38 C310.86,64.16 310.85,61.15 310.84,58.28 C310.84,47.93 310.76,38.98 323.15,26.28 C323.748041,26.4337555 324.362536,26.514345 324.98,26.52 C328.81,26.52 333.42,23.98 336.98,19.52 C339.196904,16.8694631 340.697939,13.6952568 341.34,10.3 C341.89,6.85 341.04,4.02 338.95,2.3 C336.86,0.58 333.95,0.39 330.66,1.66 C327.497328,2.98738919 324.723862,5.0967375 322.6,7.79 C317.92,13.6 316.8,20.37 319.68,23.99 C311.99,32.07 308.88,38.89 307.68,45.32 C303.16,42.32 301.91,34.71 301.58,31.45 C303.092621,30.647466 304.269706,29.3321098 304.9,27.74 C305.872167,25.3604237 306.216513,22.7709432 305.9,20.22 C305.24,14.08 301.57,9.6 297.58,10.03 C295.49,10.25 293.68,11.78 292.58,14.23 C291.607833,16.6095763 291.263487,19.1990568 291.58,21.75 C292.11,26.66 294.58,30.49 297.58,31.61 C297.96,35.61 299.65,46.16 307.11,49.55 C306.86,52.46 306.87,55.32 306.88,58.23 C306.88,66.31 306.94,74.67 301.39,85.89 L298.5,85.89 C298.56828,79.6792369 296.72497,73.5977112 293.22,68.47 C295.97,57.88 290.57,45.47 288.45,41.23 C290.36489,39.1193446 290.487129,35.9382247 288.739857,33.6868454 C286.992584,31.4354662 283.880661,30.764346 281.360784,32.0954678 C278.840906,33.4265896 277.641173,36.3753362 278.515945,39.0876125 C279.390716,41.7998888 282.087235,43.492004 284.91,43.1 C286.24453,45.8379109 287.361318,48.6766909 288.25,51.59 C285.265989,51.8300711 282.266068,51.3995585 279.47,50.33 C279.26952,47.5276615 277.089382,45.2719459 274.2955,44.976118 C271.501617,44.68029 268.89743,46.4294212 268.114528,49.1276351 C267.331627,51.825849 268.595151,54.697218 271.113471,55.9427543 C273.63179,57.1882906 276.680709,56.4498142 278.35,54.19 C281.018852,55.1769432 283.844589,55.6716165 286.69,55.65 C287.5,55.65 288.36,55.65 289.25,55.52 C289.895977,58.4260759 290.108278,61.4117592 289.88,64.38 C289.115388,63.5771637 288.289571,62.8349313 287.41,62.16 C286.837602,61.7441931 286.088115,61.6617344 285.439009,61.943151 C284.789902,62.2245677 284.337771,62.8279805 284.25,63.53 C283.470101,71.022757 284.032228,78.5945477 285.91,85.89 L276.7,85.89 C275.609861,83.2250231 275.029812,80.3790483 274.99,77.5 C277.62318,76.5307804 279.18245,73.8130143 278.690206,71.0506388 C278.197962,68.2882633 275.795891,66.2763916 272.99,66.2763916 C270.184109,66.2763916 267.782038,68.2882633 267.289794,71.0506388 C266.79755,73.8130143 268.35682,76.5307804 270.99,77.5 C271.032775,80.3608797 271.518536,83.1978614 272.43,85.91 L264.8,85.91 C257.8,77.66 258.19,63.66 259.09,55.91 C259.27155,54.3895207 258.304889,52.9677468 256.82419,52.5774267 C255.343492,52.1871065 253.801572,52.9476048 253.21,54.36 C249.49,63.19 246,75.52 249.21,85.98 C238.756818,86.6392598 230.557873,95.2079193 230.36,105.68 C230.36,106.12 230.36,106.55 230.36,106.98 C230.339426,141.570587 249.104256,173.443991 279.36,190.21 L279.36,197.15 C279.365512,202.565629 283.754371,206.954488 289.17,206.96 L361.78,206.96 C367.195629,206.954488 371.584488,202.565629 371.59,197.15 L371.59,190.08 C401.016944,173.684043 419.634644,143.002834 420.59,109.33 C420.59,107.98 420.59,106.76 420.59,105.61 C420.383058,94.6710546 411.460899,85.9089346 400.52,85.9 L400.52,85.9 Z M321,52.79 C322.4,49.2 324.76,47.33 326.1,47.33 C326.239839,47.3275292 326.378903,47.3512719 326.51,47.4 C327.72,47.87 328.51,51.1 326.93,55.09 C325.82,57.93 324.12,59.68 322.79,60.29 C323.763353,58.3697293 324.550289,56.3605305 325.14,54.29 C325.241741,53.937896 325.142713,53.5583458 324.881915,53.300832 C324.621118,53.0433182 324.240344,52.9491059 323.889557,53.0553 C323.53877,53.161494 323.274183,53.4510774 323.2,53.81 C322.595022,55.9062931 321.780933,57.9364911 320.77,59.87 C320,58.68 319.78,55.98 321,52.79 Z M296.2,15.79 C296.68,14.71 297.33,14.02 297.94,13.96 L298.04,13.96 C299.34,13.96 301.4,16.46 301.85,20.6 C302.088714,22.4539528 301.858344,24.3381692 301.18,26.08 C301.006994,26.4895423 300.778157,26.8731793 300.5,27.22 C300.336318,24.4924161 299.880374,21.7902761 299.14,19.16 C299.054245,18.7978718 298.774493,18.5133178 298.413877,18.4214116 C298.053261,18.3295055 297.671438,18.4454516 297.422819,18.7223613 C297.174199,18.9992711 297.099912,19.3913341 297.23,19.74 C297.950069,22.3214635 298.385988,24.9738622 298.53,27.65 C297.31,26.9 295.9,24.65 295.53,21.28 C295.289584,19.4227695 295.51998,17.5349005 296.2,15.79 L296.2,15.79 Z M325.71,10.25 C327.396888,8.0713734 329.604597,6.35197371 332.13,5.25 C332.917503,4.92381307 333.757959,4.74419939 334.61,4.72 C335.272561,4.68961816 335.925516,4.8872695 336.46,5.28 C337.37,6.02 337.72,7.55 337.46,9.5 C336.917618,12.2040235 335.703699,14.7281498 333.93,16.84 C331.01,20.47 327.55,22.31 325.18,22.38 C328.124535,19.1870704 330.61466,15.6033091 332.58,11.73 C332.728265,11.4048883 332.691823,11.0253742 332.484401,10.7344169 C332.276978,10.4434596 331.930088,10.2852625 331.574401,10.3194169 C331.218713,10.3535713 330.908265,10.5748883 330.76,10.9 C329.16,14.4 326.24,18.17 323.09,21.73 C321.23,20.12 321.86,15.09 325.71,10.3 L325.71,10.25 Z M273.63,52.51 C272.64141,52.51 271.84,51.7085897 271.84,50.72 C271.84,49.7314103 272.64141,48.93 273.63,48.93 C274.61859,48.93 275.42,49.7314103 275.42,50.72 C275.428022,51.2008372 275.243301,51.6648908 274.907028,52.0086778 C274.570756,52.3524648 274.110897,52.5473952 273.63,52.55 L273.63,52.51 Z M282.29,37.33 C282.301855,36.4681724 282.926214,35.7371674 283.775582,35.5906674 C284.624949,35.4441674 285.458116,35.9237766 285.757996,36.7318357 C286.057875,37.5398948 285.739306,38.4469261 285,38.89 L284.85,38.96 L284.75,39.03 C284.196712,39.265092 283.562361,39.2067484 283.061237,38.8746782 C282.560113,38.542608 282.259144,37.9811616 282.26,37.38 L282.29,37.33 Z M273,70.27 C273.98859,70.27 274.79,71.0714103 274.79,72.06 C274.79,73.0485897 273.98859,73.85 273,73.85 C272.01141,73.85 271.21,73.0485897 271.21,72.06 C271.215464,71.0736826 272.013683,70.2754645 273,70.27 L273,70.27 Z M397.84,33.97 C402.890644,28.9193563 411.079356,28.9193565 416.13,33.9700004 C421.180644,39.0206443 421.180644,47.2093559 416.13,52.26 L382.49,85.9 L345.93,85.9 L397.84,33.97 Z M287.84,68.21 C292.109452,73.109466 294.439175,79.4014946 294.39,85.9 L290,85.9 C288.35854,80.1533018 287.642909,74.1818269 287.88,68.21 L287.84,68.21 Z M254.56,62.05 C254.16,73.66 256.72,81.13 259.77,85.9 L253.31,85.9 C250.61,78.34 252.32,69.13 254.6,62.05 L254.56,62.05 Z M367.56,197.12 C367.554495,200.326491 364.956491,202.924495 361.75,202.93 L289.14,202.93 C285.933509,202.924495 283.335505,200.326491 283.33,197.12 L283.33,195.96 L294,195.96 C294.552285,195.96 295,195.512285 295,194.96 C295,194.407715 294.552285,193.96 294,193.96 L283.33,193.96 L283.33,190.88 L357.51,190.88 L357.51,194.24 C357.51,194.792285 357.957715,195.24 358.51,195.24 C359.062285,195.24 359.51,194.792285 359.51,194.24 L359.51,190.88 L362.14,190.88 L362.14,196.88 C362.14,197.432285 362.587715,197.88 363.14,197.88 C363.692285,197.88 364.14,197.432285 364.14,196.88 L364.14,190.88 L367.56,190.88 L367.56,197.12 Z M416.56,109.19 C416.37482,116.732544 415.239194,124.221627 413.18,131.48 L399.72,131.48 C399.167715,131.48 398.72,131.927715 398.72,132.48 C398.72,133.032285 399.167715,133.48 399.72,133.48 L412.6,133.48 C410.478782,140.357445 407.551795,146.959949 403.88,153.15 L377.63,153.15 C377.077715,153.15 376.63,153.597715 376.63,154.15 C376.63,154.702285 377.077715,155.15 377.63,155.15 L402.63,155.15 C401.863333,156.363333 401.07,157.56 400.25,158.74 L388.09,158.74 C387.537715,158.74 387.09,159.187715 387.09,159.74 C387.09,160.292285 387.537715,160.74 388.09,160.74 L398.84,160.74 C390.912627,171.519662 380.729251,180.440354 369,186.88 L281.62,186.88 C252.428191,170.882928 234.285636,140.237653 234.3,106.95 C234.3,106.56 234.3,106.16 234.3,105.73 C234.318341,104.779284 234.422092,103.832141 234.61,102.9 L262.27,102.9 C262.822285,102.9 263.27,102.452285 263.27,101.9 C263.27,101.347715 262.822285,100.9 262.27,100.9 L235.13,100.9 C237.330925,94.3485919 243.458823,89.9255682 250.37,89.9 L263.51,89.9 C263.760829,89.9503721 264.019171,89.9503721 264.27,89.9 L288.33,89.9 C288.413247,89.905375 288.496753,89.905375 288.58,89.9 C288.703068,89.9114328 288.826932,89.9114328 288.95,89.9 L302.21,89.9 C302.406773,89.9508067 302.613227,89.9508067 302.81,89.9 L400.51,89.9 C405.203132,89.907606 409.659029,91.9638925 412.71,95.53 L403.26,95.53 C402.707715,95.53 402.26,95.9777153 402.26,96.53 C402.26,97.0822847 402.707715,97.53 403.26,97.53 L414.17,97.53 C415.698906,99.9625097 416.532389,102.767303 416.58,105.64 C416.6,106.79 416.59,107.9 416.56,109.19 L416.56,109.19 Z" id="Shape"></path>
                    <path d="M175.88,182.54 C172.889684,179.944754 168.91922,178.77697 165,179.34 C153.033333,181.066667 142.28,181.066667 132.74,179.34 C144.52,171.46 154.33,161.82 160.92,154.96 C166.090799,149.546536 166.015454,141.001443 160.75,135.68 C157.940992,132.858436 154.045515,131.395156 150.073556,131.669547 C146.101596,131.943939 142.444337,133.928978 140.05,137.11 C130.86,149.4 120.99,158.39 110.66,163.94 C110.666808,163.47283 110.619832,163.006429 110.52,162.55 C109.975616,160.31533 108.460763,158.441021 106.39,157.44 L98.95,153.73 C98.67,148.98 95.75,145.57 92.88,143.34 C96.97,143.58 98.88,145.34 99.62,146.45 C100.227035,147.322744 101.277295,147.774666 102.328395,147.615408 C103.379495,147.456151 104.248744,146.713394 104.57,145.7 C106.752692,139.084425 103.266413,131.934448 96.71,129.58 L44.91,110.69 C37.0807943,107.852304 28.3139215,110.327823 23.1252536,116.841402 C17.9365858,123.35498 17.483748,132.453397 22,139.45 L32.14,155.11 L7.76,173.3 C1.4794089,177.979025 -1.10592299,186.149801 1.34,193.59 C2.52183694,197.212686 4.82649626,200.364955 7.92,202.59 C11.0053154,204.850179 14.7254581,206.078561 18.55,206.1 L69.96,206.37 L70,206.37 C75.8544345,206.397708 80.8975322,202.24976 82,196.5 L88.26,198.34 C89.5390361,198.716996 90.9190694,198.513953 92.0353207,197.784541 C93.151572,197.055128 93.8916746,195.872772 94.06,194.55 L94.24,193.14 C96.3552064,193.080066 98.4652862,192.899774 100.56,192.6 C118.56,204.6 142.62,206.76 161.66,206.76 C163.55,206.76 165.4,206.76 167.19,206.71 C172.89597,206.600504 177.944009,202.985073 179.884546,197.6181 C181.825084,192.251128 180.256518,186.243329 175.94,182.51 L175.88,182.54 Z M143.24,139.48 C145.059278,137.029004 147.937654,135.591673 150.99,135.61 C153.58815,135.600253 156.08138,136.634295 157.91,138.48 C161.647461,142.255312 161.700657,148.319704 158.03,152.16 C150.97,159.51 140.15,170.16 127.24,178.09 C120.535906,176.360591 114.204938,173.418792 108.56,169.41 C120.87,163.79 132.53,153.79 143.24,139.47 L143.24,139.48 Z M106.6,163.39 C106.721098,163.796889 106.655149,164.236548 106.42,164.59 L88.26,187.38 C87.9659835,187.692296 87.5480547,187.857268 87.12,187.83 L87.12,187.83 C86.0394748,187.772365 85.0351091,187.255626 84.36,186.41 L78.97,179.86 L80.38,178.2 L84.64,183.27 C84.9962237,183.692498 85.6275022,183.746224 86.05,183.39 C86.4724978,183.033776 86.5262237,182.402498 86.17,181.98 L81.68,176.64 L83.05,174.99 L89.23,181.66 C89.6055536,182.065929 90.2390707,182.090554 90.645,181.715 C91.0509293,181.339446 91.0755536,180.705929 90.7,180.3 L84.33,173.42 L86.09,171.26 L89.32,174 C89.743139,174.304517 90.3292285,174.232876 90.6665587,173.835402 C91.0038888,173.437927 90.9792717,172.847989 90.61,172.48 L87.34,169.7 C88.3466667,168.44 89.3466667,167.18 90.34,165.92 L92.81,167.47 C93.279442,167.762711 93.897289,167.619442 94.1899999,167.15 C94.4827107,166.680558 94.3394419,166.062711 93.87,165.77 L91.57,164.33 L93.57,161.74 L101.25,166.27 C101.717292,166.48119 102.268601,166.304681 102.526344,165.861363 C102.784088,165.418045 102.664722,164.851609 102.25,164.55 L94.77,160.14 L96.97,157.21 L104.56,161 C105.554598,161.462895 106.299033,162.335052 106.6,163.39 L106.6,163.39 Z M79.8,168.18 C79.8055008,165.547884 81.9378836,163.415501 84.57,163.41 C85.3345308,163.416926 86.0859882,163.60908 86.76,163.97 C84.83,166.42 82.87,168.86 80.92,171.24 C80.1982925,170.38353 79.8017066,169.3 79.8,168.18 Z M65.8,122.57 L74.61,125.78 C74.0695422,127.397908 72.6932636,128.594806 71.016017,128.905554 C69.3387703,129.216302 67.6250539,128.591894 66.5408562,127.27499 C65.4566585,125.958086 65.1729553,124.156359 65.8,122.57 Z M26.17,119.31 C30.2903832,114.130415 37.2609363,112.16529 43.48,114.43 L64,121.88 C63.076837,124.151124 63.4678031,126.745107 65.0193584,128.64324 C66.5709137,130.541374 69.0352815,131.440535 71.444657,130.987606 C73.8540326,130.534677 75.823649,128.801988 76.58,126.47 L95.36,133.32 C99.1099571,134.66573 101.502549,138.346641 101.21,142.32 C99.32,140.71 96.14,139.14 90.99,139.32 C89.5082256,139.389359 88.2377989,140.400768 87.8380834,141.829297 C87.438368,143.257825 87.9994006,144.781694 89.23,145.61 C91.6,147.17 94.44,149.74 94.93,153.35 L94.83,153.49 C93.56,155.21 92.22,156.99 90.83,158.79 L90.83,158.79 C89.93,159.97 89.0133333,161.156667 88.08,162.35 C85.1812783,160.527944 81.3780229,161.160795 79.225529,163.823359 C77.0730351,166.485922 77.2510626,170.337358 79.64,172.79 C78.06,174.7 76.5,176.56 74.98,178.33 L74.92,178.4 L74.82,178.51 C72.82,180.88 70.99,182.9 69.36,184.69 C69.18,184.89 68.99,185.07 68.79,185.24 L68.79,185.24 C66.8592789,187.012409 64.2454885,187.84371 61.6456357,187.512224 C59.0457828,187.180738 56.7242101,185.720169 55.3,183.52 L25.3,137.24 C21.7171254,131.687004 22.0793564,124.466532 26.2,119.3 L26.17,119.31 Z M61.17,192.78 C61.1825161,195.11382 59.4840415,197.104858 57.1774151,197.460311 C54.8707886,197.815764 52.6517033,196.428425 51.9610364,194.199109 C51.2703695,191.969792 52.3164305,189.570875 54.42,188.56 C56.2820733,190.141211 58.5589032,191.154678 60.98,191.48 C61.1127973,191.904257 61.1835296,192.345492 61.19,192.79 L61.17,192.78 Z M32.8,162.89 C32.7926687,165.678108 31.1763011,168.211362 28.6508502,169.39276 C26.1253994,170.574157 23.1448884,170.191307 21,168.41 L32.24,160.03 C32.6254626,160.93057 32.8228333,161.900409 32.82,162.88 L32.8,162.89 Z M27.29,202.19 L18.61,202.19 C17.8902397,200.430669 18.3010817,198.411004 19.650969,197.072683 C21.0008562,195.734362 23.0239821,195.340914 24.7770539,196.075787 C26.5301258,196.81066 27.667946,198.529149 27.66,200.43 C27.6581807,201.030537 27.5392964,201.624959 27.31,202.18 L27.29,202.19 Z M76.41,199.27 C74.8671064,201.259559 72.4876913,202.419708 69.97,202.41 L69.97,202.41 L29.45,202.2 C29.6164697,201.611096 29.7006018,201.00198 29.7,200.39 C29.7282756,197.786442 28.2456272,195.402277 25.8980066,194.276226 C23.5503859,193.150174 20.7629886,193.486184 18.7502119,195.137863 C16.7374352,196.789542 15.8638286,199.457744 16.51,201.98 C14.2450778,201.640042 12.096737,200.754624 10.25,199.4 C7.84170035,197.668961 6.04536322,195.217819 5.12,192.4 C3.20918646,186.594144 5.22227023,180.216695 10.12,176.56 L19.33,169.69 C22.5905537,172.772571 27.5980364,173.056812 31.1864753,170.363011 C34.7749141,167.669211 35.8998314,162.781447 33.85,158.79 L34.28,158.47 L51.93,185.72 C52.233702,186.194392 52.5677308,186.648672 52.93,187.08 C50.0140293,188.848777 48.878834,192.516988 50.2860128,195.623643 C51.6931915,198.730298 55.1992268,200.296235 58.4519314,199.270871 C61.704636,198.245508 63.6788157,194.952021 63.05,191.6 C66.2101332,191.53448 69.2342739,190.302027 71.54,188.14 L71.63,188.05 C71.85,187.84 72.07,187.63 72.28,187.41 C73.3,186.296667 74.39,185.08 75.55,183.76 L76.29,186.32 C76.86,188.32 77.39,190.26 77.87,192.2 C78.5161334,194.652353 77.9838466,197.265733 76.43,199.27 L76.41,199.27 Z M89.77,194.47 C89.6362412,194.56446 89.465802,194.590396 89.31,194.54 L82,192.38 C81.94,191.99 81.87,191.6 81.77,191.21 C81.58,190.44 81.37,189.65 81.16,188.87 L81.23,188.95 C82.6561746,190.731658 84.7983832,191.789946 87.08,191.84 L87.08,191.84 C88.2731202,191.85084 89.4377462,191.475493 90.4,190.77 L89.97,194.09 C89.9626976,194.235507 89.8979613,194.372173 89.79,194.47 L89.77,194.47 Z M94.68,189.17 L94.79,188.31 L95.72,189.1 L94.68,189.17 Z M167.03,202.74 C147.74,203.11 121.2,201.92 102.26,189.02 L102.02,188.85 C99.9065033,187.393616 97.9012581,185.786078 96.02,184.04 L105.51,172.13 C111.933828,176.839769 119.222617,180.237805 126.96,182.13 L127.13,182.13 C138.25,184.93 151.13,185.31 165.55,183.22 C168.321243,182.825535 171.127217,183.653826 173.24,185.49 C176.298213,188.139215 177.409335,192.398104 176.03515,196.203709 C174.660966,200.009314 171.085235,202.575804 167.04,202.66 L167.03,202.74 Z" id="Shape"></path>
                    <path d="M65.37,169.36 C65.37,165.659692 62.3703078,162.66 58.67,162.66 C54.9696922,162.66 51.97,165.659692 51.97,169.36 C51.97,173.060308 54.9696922,176.06 58.67,176.06 C62.3680243,176.054493 65.3644929,173.058024 65.37,169.36 Z M53.96,169.36 C53.96,166.764262 56.0642617,164.66 58.66,164.66 C61.2557383,164.66 63.36,166.764262 63.36,169.36 C63.36,171.955738 61.2557383,174.06 58.66,174.06 C56.0821778,174.032639 54.0053282,171.937962 54,169.36 L53.96,169.36 Z" id="Shape"></path>
                    <path d="M48,128.96 C48,125.259692 45.0003078,122.26 41.3,122.26 C37.5996922,122.26 34.6,125.259692 34.6,128.96 C34.6,132.660308 37.5996922,135.66 41.3,135.66 C44.9980243,135.654493 47.9944929,132.658024 48,128.96 L48,128.96 Z M41.3,133.66 C38.7042617,133.66 36.6,131.555738 36.6,128.96 C36.6,126.364262 38.7042617,124.26 41.3,124.26 C43.8957383,124.26 46,126.364262 46,128.96 C46.0000028,130.210904 45.5023996,131.410429 44.6169393,132.294013 C43.7314789,133.177598 42.5309014,133.672656 41.28,133.67 L41.3,133.66 Z" id="Shape"></path>
                    <path d="M74.43,151.04 C77.075444,151.04 79.22,148.895444 79.22,146.25 C79.22,143.604556 77.075444,141.46 74.43,141.46 C71.784556,141.46 69.64,143.604556 69.64,146.25 C69.6455009,148.893162 71.7868379,151.034499 74.43,151.04 Z M74.43,143.45 C75.9708745,143.45 77.22,144.699126 77.22,146.24 C77.22,147.780874 75.9708745,149.03 74.43,149.03 C72.8891255,149.03 71.64,147.780874 71.64,146.24 C71.6509527,144.70531 72.8952806,143.465442 74.43,143.46 L74.43,143.45 Z" id="Shape"></path>
                    <path d="M12.91,178.6 C9.88347957,178.6 7.43,181.05348 7.43,184.08 C7.43,187.10652 9.88347957,189.56 12.91,189.56 C15.9365204,189.56 18.39,187.10652 18.39,184.08 C18.39,181.05348 15.9365204,178.6 12.91,178.6 Z M12.91,187.6 C10.9880491,187.6 9.43,186.041951 9.43,184.12 C9.43,182.198049 10.9880491,180.64 12.91,180.64 C14.8319509,180.64 16.39,182.198049 16.39,184.12 C16.3680869,186.026312 14.8164377,187.560126 12.91,187.56 L12.91,187.6 Z" id="Shape"></path>
                    <path d="M47,143.37 C44.354556,143.37 42.21,145.514556 42.21,148.16 C42.21,150.805444 44.354556,152.95 47,152.95 C49.645444,152.95 51.79,150.805444 51.79,148.16 C51.7844991,145.516838 49.6431621,143.375501 47,143.37 Z M47,150.96 C45.4591255,150.96 44.21,149.710874 44.21,148.17 C44.21,146.629126 45.4591255,145.38 47,145.38 C48.5408745,145.38 49.79,146.629126 49.79,148.17 C49.7845148,149.708597 48.5385967,150.954515 47,150.96 L47,150.96 Z" id="Shape"></path>
                    <path d="M39.37,177.32 C37.4326258,177.32 35.686018,178.487046 34.944617,180.276946 C34.203216,182.066847 34.6130281,184.127111 35.9829585,185.497041 C37.3528889,186.866972 39.4131533,187.276784 41.2030536,186.535383 C42.992954,185.793982 44.16,184.047374 44.16,182.11 C44.1544991,179.466838 42.0131621,177.325501 39.37,177.32 L39.37,177.32 Z M39.37,184.91 C37.8291255,184.91 36.58,183.660874 36.58,182.12 C36.58,180.579126 37.8291255,179.33 39.37,179.33 C40.9108745,179.33 42.16,180.579126 42.16,182.12 C42.1545148,183.658597 40.9085967,184.904515 39.37,184.91 Z" id="Shape"></path>
                    <path d="M382.8,102.52 L306.57,102.52 C306.017715,102.52 305.57,102.967715 305.57,103.52 C305.57,104.072285 306.017715,104.52 306.57,104.52 L382.8,104.52 C383.352285,104.52 383.8,104.072285 383.8,103.52 C383.8,102.967715 383.352285,102.52 382.8,102.52 Z" id="Shape"></path>
                    <path d="M369.2,110.6 C369.752285,110.6 370.2,110.152285 370.2,109.6 C370.2,109.047715 369.752285,108.6 369.2,108.6 L344.33,108.6 C343.777715,108.6 343.33,109.047715 343.33,109.6 C343.33,110.152285 343.777715,110.6 344.33,110.6 L369.2,110.6 Z" id="Shape"></path>
                    <path d="M264.28,158.54 C264.28,159.092285 264.727715,159.54 265.28,159.54 L303.67,159.54 C304.222285,159.54 304.67,159.092285 304.67,158.54 C304.67,157.987715 304.222285,157.54 303.67,157.54 L265.28,157.54 C264.727715,157.54 264.28,157.987715 264.28,158.54 Z" id="Shape"></path>
                    <path d="M314.09,163.72 L264.69,163.72 C264.137715,163.72 263.69,164.167715 263.69,164.72 C263.69,165.272285 264.137715,165.72 264.69,165.72 L314.08,165.72 C314.632285,165.72 315.08,165.272285 315.08,164.72 C315.08,164.167715 314.632285,163.72 314.08,163.72 L314.09,163.72 Z" id="Shape"></path>
                    <path d="M327.51,163.72 L322.68,163.72 C322.127715,163.72 321.68,164.167715 321.68,164.72 C321.68,165.272285 322.127715,165.72 322.68,165.72 L327.51,165.72 C328.062285,165.72 328.51,165.272285 328.51,164.72 C328.51,164.167715 328.062285,163.72 327.51,163.72 Z" id="Shape"></path>
                    <path d="M399.68,113.79 L394.85,113.79 C394.297715,113.79 393.85,114.237715 393.85,114.79 C393.85,115.342285 394.297715,115.79 394.85,115.79 L399.68,115.79 C400.232285,115.79 400.68,115.342285 400.68,114.79 C400.68,114.237715 400.232285,113.79 399.68,113.79 Z" id="Shape"></path>
                    <path d="M353,137.45 L310.87,137.45 C310.317715,137.45 309.87,137.897715 309.87,138.45 C309.87,139.002285 310.317715,139.45 310.87,139.45 L353,139.45 C353.552285,139.45 354,139.002285 354,138.45 C354,137.897715 353.552285,137.45 353,137.45 Z" id="Shape"></path>
                    <path d="M344.69,143.05 L327.51,143.05 C326.957715,143.05 326.51,143.497715 326.51,144.05 C326.51,144.602285 326.957715,145.05 327.51,145.05 L344.69,145.05 C345.242285,145.05 345.69,144.602285 345.69,144.05 C345.69,143.497715 345.242285,143.05 344.69,143.05 L344.69,143.05 Z" id="Shape"></path>
                    <path d="M264.69,120.7 L291.53,120.7 C292.082285,120.7 292.53,120.252285 292.53,119.7 C292.53,119.147715 292.082285,118.7 291.53,118.7 L264.69,118.7 C264.137715,118.7 263.69,119.147715 263.69,119.7 C263.69,120.252285 264.137715,120.7 264.69,120.7 Z" id="Shape"></path>
                    <path d="M374.93,174.36 L357.13,174.36 C356.577715,174.36 356.13,174.807715 356.13,175.36 C356.13,175.912285 356.577715,176.36 357.13,176.36 L374.94,176.36 C375.492285,176.36 375.94,175.912285 375.94,175.36 C375.94,174.807715 375.492285,174.36 374.94,174.36 L374.93,174.36 Z" id="Shape"></path>
                    <path d="M256.73,106.27 L240.09,106.27 C239.537715,106.27 239.09,106.717715 239.09,107.27 C239.09,107.822285 239.537715,108.27 240.09,108.27 L256.73,108.27 C257.282285,108.27 257.73,107.822285 257.73,107.27 C257.73,106.717715 257.282285,106.27 256.73,106.27 L256.73,106.27 Z" id="Shape"></path>
                    <path d="M312.48,177.41 L291.54,177.41 C290.987715,177.41 290.54,177.857715 290.54,178.41 C290.54,178.962285 290.987715,179.41 291.54,179.41 L312.48,179.41 C313.032285,179.41 313.48,178.962285 313.48,178.41 C313.48,177.857715 313.032285,177.41 312.48,177.41 Z" id="Shape"></path>
                    <path d="M324.61,51.79 C324.698954,51.8862472 324.808282,51.9614104 324.93,52.01 C325.053324,52.0625365 325.185952,52.0897423 325.32,52.09 C325.583769,52.086243 325.83537,51.9784143 326.02,51.79 C326.204744,51.6037394 326.308895,51.3523399 326.31,51.09 C326.311537,50.824197 326.207187,50.5687188 326.02,50.38 C325.928734,50.2864613 325.820017,50.2117189 325.7,50.16 C325.32563,50.0059407 324.895308,50.0927947 324.61,50.38 C324.419144,50.5670714 324.311109,50.8227541 324.31,51.09 C324.31158,51.2206773 324.338759,51.3497777 324.39,51.47 C324.43859,51.5917181 324.513753,51.7010464 324.61,51.79 L324.61,51.79 Z" id="Shape"></path>
                    <path d="M376.79,65.39 L391.79,50.39 C392.129777,49.9932397 392.106932,49.4018058 391.737563,49.0324368 C391.368194,48.6630677 390.77676,48.6402232 390.38,48.98 L375.38,63.98 C375.094624,64.2243899 374.970318,64.6081184 375.05819,64.973419 C375.146062,65.3387195 375.43128,65.6239383 375.796581,65.7118101 C376.161882,65.7996819 376.54561,65.6753762 376.79,65.39 L376.79,65.39 Z" id="Shape"></path>
                    <path d="M395.17,56.67 C395.435803,56.6715368 395.691281,56.5671865 395.88,56.38 L409,43.28 C409.339777,42.8832397 409.316932,42.2918058 408.947563,41.9224368 C408.578194,41.5530677 407.98676,41.5302232 407.59,41.87 L394.5,54.96 C394.21154,55.2460905 394.124838,55.6782668 394.280629,56.0534815 C394.43642,56.4286962 394.803735,56.6723626 395.21,56.67 L395.17,56.67 Z" id="Shape"></path>
                    <path d="M391.65,58.19 C391.648407,58.3200129 391.672184,58.4490887 391.72,58.57 C391.774357,58.6915321 391.848723,58.803081 391.94,58.9 C392.033869,58.9926027 392.146357,59.0641858 392.27,59.11 C392.639617,59.2621284 393.06432,59.1795473 393.35,58.9 C393.44463,58.8057915 393.519435,58.693585 393.57,58.57 C393.621241,58.4497777 393.64842,58.3206773 393.65,58.19 C393.648891,57.9227541 393.540856,57.6670714 393.35,57.48 L393.2,57.36 C393.148542,57.3210527 393.091138,57.2906623 393.03,57.27 C392.786539,57.169982 392.513461,57.169982 392.27,57.27 C392.147249,57.3175944 392.035104,57.3889594 391.94,57.48 C391.752813,57.6687188 391.648463,57.924197 391.65,58.19 L391.65,58.19 Z" id="Shape"></path>
                    <path d="M386.33,75.33 C386.669777,74.9332397 386.646932,74.3418058 386.277563,73.9724368 C385.908194,73.6030677 385.31676,73.5802232 384.92,73.92 L376.29,82.55 C376.004624,82.7943899 375.880318,83.1781184 375.96819,83.543419 C376.056062,83.9087195 376.34128,84.1939383 376.706581,84.2818101 C377.071882,84.3696819 377.45561,84.2453762 377.7,83.96 L386.33,75.33 Z" id="Shape"></path>
                    <path d="M366.39,75.48 L361.32,80.55 C361.034624,80.7943899 360.910318,81.1781184 360.99819,81.543419 C361.086062,81.9087195 361.37128,82.1939383 361.736581,82.2818101 C362.101882,82.3696819 362.48561,82.2453762 362.73,81.96 L367.8,76.89 C368.139777,76.4932397 368.116932,75.9018058 367.747563,75.5324368 C367.378194,75.1630677 366.78676,75.1402232 366.39,75.48 L366.39,75.48 Z" id="Shape"></path>
                    <path d="M404.61,57.1 C404.324624,57.3443899 404.200318,57.7281184 404.28819,58.093419 C404.376062,58.4587195 404.66128,58.7439383 405.026581,58.8318101 C405.391882,58.9196819 405.77561,58.7953762 406.02,58.51 L410.54,53.99 C410.879777,53.5932397 410.856932,53.0018058 410.487563,52.6324368 C410.118194,52.2630677 409.52676,52.2402232 409.13,52.58 L404.61,57.1 Z" id="Shape"></path>
                </g>
            </g>
            <g id="bung" transform="translate(210.000000, 0.000000)">
                <g id="colors-2" transform="translate(3.000000, 3.000000)">
                    <path d="M21,6.31088724e-30 L21,6.31088724e-30 C15.4916047,-0.000399555303 10.2229391,2.2531718 6.41867225,6.23688521 C2.61440539,10.2205986 0.605892464,15.5874689 0.86,21.09 L3.39,75.62 C3.82801972,85.0218848 11.5779174,92.4195144 20.99,92.42 L20.99,92.42 C30.4020826,92.4195144 38.1519803,85.0218848 38.59,75.62 L41.12,21.09 C41.3739497,15.590937 39.3681286,10.2272022 35.5682354,6.24411346 C31.7683423,2.26102468 26.5049213,0.00506182347 21,-2.84217094e-14 L21,6.31088724e-30 Z" id="Shape" fill="#E38D71"></path>
                    <circle id="Oval" fill="#000000" opacity="0.1" cx="13.03" cy="23.32" r="3.83"></circle>
                    <circle id="Oval" fill="#000000" opacity="0.1" cx="28.58" cy="56.76" r="3.27"></circle>
                </g>
                <g id="shadows-2" transform="translate(4.000000, 4.000000)">
                    <path d="M8.2,38.56 L7.34,22.44 C7.11167187,18.3199977 8.59063995,14.287886 11.4288123,11.292668 C14.2669847,8.29745012 18.2136805,6.60367794 22.34,6.61 L35.76,6.61 L26.76,0.17 L14.63,0.17 L5.53,5.17 L0.89,12.79 L2.29,38.6 L8.2,38.56 Z" id="Shape" fill="#FFFFFF" opacity="0.25"></path>
                    <path d="M40.16,15.03 L30.16,15.03 C22.2512824,15.03 15.84,21.4412824 15.84,29.35 L15.84,38.56 L18.31,69.44 C18.31,69.44 17.25,78.57 2.73,77.44 L7.06,85.81 L12.83,90.41 L22.65,91.26 L32.76,88.05 L36.37,80.31 L38.12,63.13 L39.07,38.58 L40.15,38.58 L40.16,15.03 Z" id="Shape" fill="#000000" opacity="0.1"></path>
                    <polygon id="Shape" fill="#000000" opacity="0.1" points="9.52 25.22 14.47 19.36 11.06 18.49 9.03 19.94"></polygon>
                    <polygon id="Shape" fill="#000000" opacity="0.1" points="23.9 54.17 28.06 52.67 29.63 53.86 25.34 58.15"></polygon>
                </g>
                <g id="lines-2" fill="#463D73">
                    <path d="M40.75,7.17 C34.0772706,0.186678197 23.7713138,-1.92230196 14.8917642,1.87844805 C6.01221472,5.67919806 0.423755441,14.5915304 0.87,24.24 L3.4,78.79 C3.88590693,89.8143077 12.9649891,98.5020352 24,98.5020352 C35.0350109,98.5020352 44.1140931,89.8143077 44.6,78.79 L47.13,24.26 C47.4499297,17.9274455 45.1414348,11.7437186 40.75,7.17 L40.75,7.17 Z M38.61,78.49 C38.2559924,86.2989255 31.8219456,92.4479011 24.005,92.4479011 C16.1880544,92.4479011 9.75400762,86.2989255 9.4,78.49 L6.87,23.96 C6.56454834,17.6389205 9.76296612,11.6627919 15.1919332,8.41076729 C20.6209002,5.15874268 27.3990998,5.15874268 32.8280668,8.41076729 C38.2570339,11.6627919 41.4554517,17.6389205 41.15,23.96 L38.61,78.49 Z" id="Shape"></path>
                    <path d="M16,20.99 C13.0563223,20.99 10.67,23.3763223 10.67,26.32 C10.67,29.2636777 13.0563223,31.65 16,31.65 C18.9436777,31.65 21.33,29.2636777 21.33,26.32 C21.3244969,23.3786048 18.9413952,20.9955031 16,20.99 L16,20.99 Z M16,28.66 C14.7131765,28.66 13.67,27.6168235 13.67,26.33 C13.67,25.0431765 14.7131765,24 16,24 C17.2868235,24 18.33,25.0431765 18.33,26.33 C18.3245221,27.6145476 17.2845476,28.6545221 16,28.66 L16,28.66 Z" id="Shape"></path>
                    <path d="M31.58,54.99 C28.9456017,54.99 26.81,57.1256017 26.81,59.76 C26.81,62.3943983 28.9456017,64.53 31.58,64.53 C34.2143983,64.53 36.35,62.3943983 36.35,59.76 C36.3444992,57.1278836 34.2121164,54.9955008 31.58,54.99 Z M31.58,61.53 C30.602456,61.53 29.81,60.737544 29.81,59.76 C29.81,58.782456 30.602456,57.99 31.58,57.99 C32.557544,57.99 33.35,58.782456 33.35,59.76 C33.352662,60.2311634 33.1673562,60.6839431 32.8351278,61.0180485 C32.5028995,61.3521538 32.0511709,61.5400075 31.58,61.54 L31.58,61.53 Z" id="Shape"></path>
                    <path d="M33.35,21.67 C33.35,22.9513006 34.3886994,23.99 35.67,23.99 C36.9513006,23.99 37.99,22.9513006 37.99,21.67 C37.99,20.3886994 36.9513006,19.35 35.67,19.35 C34.3886994,19.35 33.35,20.3886994 33.35,21.67 Z M36.35,21.67 C36.35,22.0455536 36.0455536,22.35 35.67,22.35 C35.2944464,22.35 34.99,22.0455536 34.99,21.67 C34.99,21.2944464 35.2944464,20.99 35.67,20.99 C36.0455536,20.99 36.35,21.2944464 36.35,21.67 Z" id="Shape"></path>
                    <path d="M16.44,70.3 C15.1586994,70.3 14.12,71.3386994 14.12,72.62 C14.12,73.9013006 15.1586994,74.94 16.44,74.94 C17.7213006,74.94 18.76,73.9013006 18.76,72.62 C18.76,71.3386994 17.7213006,70.3 16.44,70.3 Z M16.44,73.3 C16.0644464,73.3 15.76,72.9955536 15.76,72.62 C15.76,72.2444464 16.0644464,71.94 16.44,71.94 C16.8155536,71.94 17.12,72.2444464 17.12,72.62 C17.12,72.9955536 16.8155536,73.3 16.44,73.3 L16.44,73.3 Z" id="Shape"></path>
                    <path d="M31.17,34.79 C32.2248639,34.79 33.08,33.9348639 33.08,32.88 C33.08,31.8251361 32.2248639,30.97 31.17,30.97 C30.1151361,30.97 29.26,31.8251361 29.26,32.88 C29.26,33.3865635 29.4612316,33.8723795 29.819426,34.230574 C30.1776205,34.5887684 30.6634365,34.79 31.17,34.79 Z M31.17,31.79 C31.7719904,31.79 32.26,32.2780096 32.26,32.88 C32.26,33.4819904 31.7719904,33.97 31.17,33.97 C30.5680096,33.97 30.08,33.4819904 30.08,32.88 C30.08,32.2780096 30.5680096,31.79 31.17,31.79 Z" id="Shape"></path>
                    <path d="M16.44,56.28 C17.4948639,56.28 18.35,55.4248639 18.35,54.37 C18.35,53.3151361 17.4948639,52.46 16.44,52.46 C15.3851361,52.46 14.53,53.3151361 14.53,54.37 C14.53,55.4248639 15.3851361,56.28 16.44,56.28 L16.44,56.28 Z M16.44,53.28 C17.0419904,53.28 17.53,53.7680096 17.53,54.37 C17.53,54.9719904 17.0419904,55.46 16.44,55.46 C15.8380096,55.46 15.35,54.9719904 15.35,54.37 C15.35,53.7680096 15.8380096,53.28 16.44,53.28 Z" id="Shape"></path>
                    <path d="M27.89,67.67 C26.8351361,67.67 25.98,68.5251361 25.98,69.58 C25.98,70.6348639 26.8351361,71.49 27.89,71.49 C28.9448639,71.49 29.8,70.6348639 29.8,69.58 C29.8,69.0734365 29.5987684,68.5876205 29.240574,68.229426 C28.8823795,67.8712316 28.3965635,67.67 27.89,67.67 L27.89,67.67 Z M27.89,70.67 C27.2880096,70.67 26.8,70.1819904 26.8,69.58 C26.8,68.9780096 27.2880096,68.49 27.89,68.49 C28.4919904,68.49 28.98,68.9780096 28.98,69.58 C28.98,70.1819904 28.4919904,70.67 27.89,70.67 L27.89,70.67 Z" id="Shape"></path>
                    <path d="M27.08,84.93 C26.3039094,84.934329 25.6076012,85.4078423 25.3183065,86.1280117 C25.0290117,86.8481811 25.2042568,87.6718006 25.7616849,88.2118091 C26.3191131,88.7518176 27.1478796,88.9008343 27.8585045,88.5888286 C28.5691294,88.2768228 29.0203048,87.565837 29,86.79 C28.9728031,85.7508157 28.119524,84.9242016 27.08,84.93 Z M27.08,87.93 C26.4780096,87.93 25.99,87.4419904 25.99,86.84 C25.99,86.2380096 26.4780096,85.75 27.08,85.75 C27.6819904,85.75 28.17,86.2380096 28.17,86.84 C28.17,87.4419904 27.6819904,87.93 27.08,87.93 Z" id="Shape"></path>
                    <path d="M23.59,11.66 C22.5351361,11.66 21.68,12.5151361 21.68,13.57 C21.68,14.6248639 22.5351361,15.48 23.59,15.48 C24.6448639,15.48 25.5,14.6248639 25.5,13.57 C25.5,12.5151361 24.6448639,11.66 23.59,11.66 Z M23.59,14.66 C23.1491362,14.66 22.7516826,14.39443 22.5829713,13.9871249 C22.41426,13.5798199 22.5075158,13.1109914 22.8192536,12.7992536 C23.1309914,12.4875158 23.5998199,12.39426 24.0071249,12.5629713 C24.41443,12.7316826 24.68,13.1291362 24.68,13.57 C24.68,14.1719904 24.1919904,14.66 23.59,14.66 Z" id="Shape"></path>
                </g>
            </g>
            <g id="bottle" transform="translate(0.000000, 1.000000)">
                <g id="colors-3" transform="translate(161.000000, 41.000000)">
                    <path d="M138,89.79 C140.043742,93.9122969 141.684689,98.222294 142.9,102.66 C138.79,88.66 107.65,85.16 85.51,121.93 L0.51,121.93 C0.491924333,110.782094 3.05555269,99.7814247 8,89.79 C15.2216535,75.2862179 30.0377952,66.1268667 46.24,66.15 L99.72,66.15 C115.93661,66.1116514 130.771942,75.273283 138,89.79 L138,89.79 Z" id="Shape" fill="#F2F4FF" opacity="0.5"></path>
                    <path d="M109.78,6.93 L109.78,32.03 C109.78,35.5535767 106.923577,38.41 103.4,38.41 L42.6,38.41 C39.0764233,38.41 36.22,35.5535767 36.22,32.03 L36.22,6.93 C36.2255167,3.41032917 39.0803248,0.559995677 42.6,0.56 L103.4,0.56 C106.919675,0.559995677 109.774483,3.41032917 109.78,6.93 Z" id="Shape" fill="#F2F4FF" opacity="0.5"></path>
                    <rect id="Rectangle-path" fill="#F2F4FF" opacity="0.5" x="46.26" y="38.41" width="53.48" height="27.7"></rect>
                    <path d="M7.49,153.88 C10.15,133.82 48.28,129.88 72.76,138.77 C51.3,163.53 25.57,176.63 11.65,164.51 C9.49769799,162.65988 8.04956591,160.123883 7.55,157.33 C7.35475745,156.189735 7.33452493,155.026365 7.49,153.88 Z" id="Shape" fill="url(#linearGradient-1)"></path>
                    <path d="M7.49,153.88 C7.33452493,155.026365 7.35475745,156.189735 7.55,157.33 L7.23,157.39 L0.52,121.89 L85.52,121.89 C81.6572869,127.807901 77.3939875,133.454434 72.76,138.79 C48.28,129.89 10.15,133.79 7.49,153.88 Z" id="Shape" fill="#F2F4FF" opacity="0.5"></path>
                    <path d="M142.88,102.62 C138.77,88.62 107.63,85.12 85.49,121.89 C81.636937,127.806979 77.383678,133.45349 72.76,138.79 C51.3,163.55 25.57,176.65 11.65,164.53 C9.49769799,162.67988 8.04956591,160.143883 7.55,157.35 L7.23,157.41 L25.16,252.32 C26.7508599,260.730753 34.1001164,266.820137 42.66,266.82 L103.34,266.82 C111.899884,266.820137 119.24914,260.730753 120.84,252.32 L145.48,121.89 C145.488666,115.378651 144.614026,108.896217 142.88,102.62 Z" id="Shape" fill="url(#linearGradient-2)"></path>
                    <circle id="Oval" fill="#FFFFFF" opacity="0.2" cx="69.65" cy="178.42" r="6.31"></circle>
                    <circle id="Oval" fill="#FFFFFF" opacity="0.2" cx="114.92" cy="197.05" r="5.14"></circle>
                    <circle id="Oval" fill="#FFFFFF" opacity="0.2" cx="36.16" cy="237.22" r="4.39"></circle>
                </g>
                <g id="shadows-3" transform="translate(161.000000, 41.000000)">
                    <path d="M46.26,38.41 L46.26,52.26 L73.73,52.26 C81.3791438,52.26 87.58,58.4608562 87.58,66.11 L99.74,66.11 L99.74,38.41 L46.26,38.41 Z" id="Shape" fill="#000000" opacity="0.12"></path>
                    <path d="M92.08,66.36 L100.54,66.36 L100.54,38.36 L92.08,38.36 C94.7764469,47.4985791 94.7764469,57.2214209 92.08,66.36 Z" id="Shape" fill="#F2F4FF" opacity="0.35"></path>
                    <path d="M54.9,39.46 L46.44,39.46 L46.44,67.41 L54.9,67.41 C52.213379,58.2870167 52.213379,48.5829833 54.9,39.46 Z" id="Shape" fill="#F2F4FF" opacity="0.21"></path>
                    <path d="M100.54,38.26 L109,38.26 L109,1.86 L100.54,1.86 C103.22637,13.8446399 103.22637,26.2753601 100.54,38.26 L100.54,38.26 Z" id="Shape" fill="#F2F4FF" opacity="0.15"></path>
                    <path d="M45.26,38.26 L36.8,38.26 L36.8,1.86 L45.26,1.86 C42.5736295,13.8446399 42.5736295,26.2753601 45.26,38.26 L45.26,38.26 Z" id="Shape" fill="#F2F4FF" opacity="0.15"></path>
                    <path d="M52.78,74.35 C78.47,71.03 115.9,69.98 126.16,75.95 L120.25,69.34 L100.54,66.34 L41.64,66.34 L28.46,69.96 L16.06,78.56 L8.67,88.47 L3.55,101.08 L0.55,121.87 L23.8,249.7 L29.09,260.47 L36.19,265.56 L52.88,266.92 C50.7486704,266.640811 48.6423077,266.196135 46.58,265.59 C38.2677314,263.01202 32.1956242,255.860341 31,247.24 L13.62,127.86 C12.793427,122.358704 12.894832,116.75777 13.92,111.29 C14.1466667,110.123333 14.4033333,108.956667 14.69,107.79 C19.15,89.79 28.83,77.45 52.78,74.35 Z" id="Shape" fill="url(#linearGradient-3)" opacity="0.1"></path>
                    <path d="M126.16,75.95 L128.76,78.86 C128.323257,77.5778784 127.385042,76.527799 126.16,75.95 L126.16,75.95 Z" id="Shape" fill="url(#linearGradient-4)" opacity="0.1"></path>
                    <path d="M36.8,11.96 C39.33,29.79 99.74,33.69 109,14.49 L109,35.08 L104.77,38.25 L38,38.25 L36.8,11.96 Z" id="Shape" fill="url(#linearGradient-5)" opacity="0.12"></path>
                    <polygon id="Shape" fill="url(#linearGradient-6)" opacity="0.1" points="20.39 229.68 52.84 229.68 96.31 220.23 130.64 198.78 120.71 251.2 115.32 260.49 105.93 265.12 33 263.88 27.87 257.23"></polygon>
                    <path d="M40.55,266.79 C40.55,254.43 105.93,254.43 105.93,266.79 L40.55,266.79 Z" id="Shape" fill="url(#radialGradient-7)"></path>
                    <path d="M25,252.3 L121.4,252.3 L121.4,247.93 C85.49,247.93 46,249.24 23.04,242.99 L25,252.3 Z" id="Shape" fill="url(#linearGradient-8)" opacity="0.2"></path>
                    <circle id="Oval" fill="#FFFFFF" opacity="0.1" cx="67.26" cy="178.42" r="4.16"></circle>
                    <circle id="Oval" fill="#FFFFFF" opacity="0.15" cx="35.81" cy="235.62" r="2.79"></circle>
                    <circle id="Oval" fill="#FFFFFF" opacity="0.15" cx="112.13" cy="197.2" r="2.79"></circle>
                    <path d="M126.23,121.54 C125.23,163.11 112.06,207.09 92.7,252.3 L90.81,266.79 L109.13,266.79 L115.91,259.7 L124.4,242.98 L145.54,121.89 L126.23,121.54 Z" id="Shape" fill="url(#linearGradient-9)" opacity="0.03"></path>
                    <rect id="Rectangle-path" fill="url(#linearGradient-10)" opacity="0.8" transform="translate(62.325000, 57.550000) rotate(180.000000) translate(-62.325000, -57.550000) " x="55.28" y="54.59" width="14.09" height="5.92" rx="2.96"></rect>
                    <path d="M83.39,121.54 C24.33,121.54 15.5,86.86 47,66.36 L28.46,69.98 L16.06,78.58 L7.23,92.04 L2.33,105.86 L0.52,121.86 L83.39,121.54 Z" id="Shape" fill="url(#linearGradient-11)" opacity="0.24"></path>
                    <path d="M24.34,85.86 C24.34,85.86 14.09,101.99 14.34,118.93 L50.78,118.93 C50.78,118.93 21.86,122.94 24.34,85.86 Z" id="Shape" fill="url(#linearGradient-12)" opacity="0.39"></path>
                    <path d="M88.77,35.46 L88.77,38.26 L107,38.26 L109.53,34.33 L106.67,11.64 C106.69,28.21 100.85,34.04 88.77,35.46 Z" id="Shape" fill="url(#linearGradient-13)" opacity="0.43"></path>
                    <path d="M103.83,3.46 L56.21,3.46 L57,3.36 L57,0.56 L38.75,0.56 L36.22,4.49 L39.08,27.18 C39.08,21.55 39.75,17.18 41.08,13.77 C42.9745293,9.21186489 48.1315057,6.96451815 52.76,8.68 C70.18,15.06 88.94,13.07 103.83,3.46 Z" id="Shape" fill="url(#linearGradient-14)" opacity="0.88"></path>
                    <path d="M50.67,0.56 C50.67,9.44 95.17,9.44 95.17,0.56 L50.67,0.56 Z" id="Shape" fill="#000000" opacity="0.12"></path>
                </g>
                <g id="lines-3" transform="translate(0.000000, 38.000000)" fill="#463D73">
                    <path d="M466,266.79 L441.57,266.79 C439.913146,266.79 438.57,268.133146 438.57,269.79 C438.57,271.446854 439.913146,272.79 441.57,272.79 L466,272.79 C467.656854,272.79 469,271.446854 469,269.79 C469,268.133146 467.656854,266.79 466,266.79 Z" id="Shape"></path>
                    <path d="M429.37,266.79 L279,266.79 C282.012678,263.822579 284.046809,260.00553 284.83,255.85 L309.47,125.44 C309.47,125.38 309.47,125.32 309.47,125.27 C309.47803,125.143461 309.47803,125.016539 309.47,124.89 C309.502402,113.278075 306.828355,101.818363 301.66,91.42 C294.467208,76.8142492 279.991251,67.1903335 263.74,66.21 L263.74,44.41 L264.4,44.41 C269.574249,44.4045013 273.768982,40.2142406 273.78,35.04 L273.78,9.94 C273.768999,4.76965542 269.580345,0.58100077 264.41,0.57 L203.6,0.57 C198.425759,0.58101785 194.235499,4.77575061 194.23,9.95 L194.23,35.05 C194.235512,40.2281463 198.431854,44.4244884 203.61,44.43 L204.27,44.43 L204.27,66.23 C188.018749,67.2103335 173.542792,76.8342492 166.35,91.44 C161.181645,101.838363 158.507598,113.298075 158.54,124.91 C158.53197,125.036539 158.53197,125.163461 158.54,125.29 C158.54,125.35 158.54,125.41 158.54,125.46 L183.18,255.87 C183.964246,260.017201 185.994546,263.82663 189,266.79 L14.15,266.79 C12.4931458,266.79 11.15,268.133146 11.15,269.79 C11.15,271.446854 12.4931458,272.79 14.15,272.79 L429.37,272.79 C431.026854,272.79 432.37,271.446854 432.37,269.79 C432.37,268.133146 431.026854,266.79 429.37,266.79 L429.37,266.79 Z M279.07,253.79 L262.81,253.79 C261.981573,253.79 261.31,254.461573 261.31,255.29 C261.31,256.118427 261.981573,256.79 262.81,256.79 L278.33,256.79 C276.288517,262.735513 270.716072,266.744466 264.43,266.79 L255.22,266.79 L269.63,127.89 L302.85,127.89 L279.07,253.79 Z M224.34,253.79 L217.47,253.79 L208.52,167.55 C217.64,162.13 227.15,153.98 236.04,143.72 L236.04,143.72 C240.367056,138.695934 244.374916,133.40556 248.04,127.88 L263.6,127.88 L249.19,266.79 L218.81,266.79 L217.81,256.79 L224.37,256.79 C225.198427,256.79 225.87,256.118427 225.87,255.29 C225.87,254.461573 225.198427,253.79 224.37,253.79 L224.34,253.79 Z M205.68,140.26 L206.68,140.26 C214.036484,140.258911 221.358251,141.268346 228.44,143.26 C222.328895,150.014203 215.402543,155.983227 207.82,161.03 L205.68,140.26 Z M202.14,164.26 C197.508274,166.827751 192.406854,168.436398 187.14,168.99 C182.14,169.34 177.91,168.07 174.62,165.2 C172.281783,163.239706 171.096012,160.228224 171.47,157.2 C172.05,152.83 174.76,149.2 179.47,146.27 C184.62,143.15 191.77,141.21 199.65,140.49 L202.14,164.26 Z M204.4,127.85 L240.81,127.85 C238.26,131.47 235.59,134.94 232.81,138.23 C223.842289,135.404672 214.469442,134.080175 205.07,134.31 L204.4,127.85 Z M301,106.36 C302.398932,111.427201 303.214221,116.63767 303.43,121.89 L252,121.89 C264.91,103.12 279.9,97.61 290.06,98.89 C295.6,99.63 299.77,102.48 301,106.36 Z M200.22,35.03 L200.22,9.93 C200.225511,8.06718398 201.737176,6.55999185 203.6,6.56 L264.4,6.56 C266.266722,6.56 267.78,8.07327755 267.78,9.94 L267.78,35.04 C267.780008,36.9028242 266.272816,38.4144887 264.41,38.42 L203.6,38.42 C202.701833,38.4200039 201.840598,38.0625254 201.206437,37.426488 C200.572275,36.7904506 200.217343,35.9281631 200.22,35.03 Z M257.74,44.41 L257.74,66.11 L210.26,66.11 L210.26,44.41 L257.74,44.41 Z M171.74,94.08 C178.399677,80.5443426 192.204939,72.0010018 207.29,72.08 L248.5,72.08 C251.852988,74.5345881 254.684537,77.6312759 256.83,81.19 C257.258021,81.8996858 258.180314,82.1280205 258.89,81.6999999 C259.599686,81.2719792 259.828021,80.3496859 259.4,79.64 C257.714477,76.8357776 255.633017,74.2895253 253.22,72.08 L256.47,72.08 C257.913728,73.3848324 259.214395,74.8397024 260.35,76.42 C260.671539,76.8487187 261.197372,77.0733321 261.729423,77.0092305 C262.261474,76.9451289 262.718911,76.6020508 262.929423,76.1092305 C263.139935,75.6164102 263.071539,75.0487187 262.75,74.62 C262.02,73.62 261.35,72.82 260.7,72.08 L260.76,72.08 C275.845061,72.0010018 289.650323,80.5443426 296.31,94.08 L296.44,94.36 C294.636135,93.6707549 292.755997,93.2007204 290.84,92.96 C278.27,91.34 259.7,98.15 244.84,121.89 L181.24,121.89 C181.24,120.64 181.24,119.42 181.34,118.26 C181.370368,117.724102 181.11253,117.21271 180.663612,116.918462 C180.214694,116.624213 179.642898,116.591812 179.163612,116.833462 C178.684327,117.075112 178.370368,117.554102 178.34,118.09 C178.27,119.32 178.24,120.59 178.23,121.89 L175.23,121.89 C175.38,116.14 176.07,111.89 178.33,107.51 C178.664916,106.78245 178.369158,105.920127 177.658205,105.551286 C176.947252,105.182446 176.071945,105.437224 175.67,106.13 C172.95,111.39 172.34,116.46 172.22,121.89 L164.55,121.89 C164.948534,112.218763 167.388625,102.741257 171.71,94.08 L171.74,94.08 Z M198.4,127.89 L199.1,134.68 C190.29,135.49 182.24,137.68 176.42,141.22 C173.504481,142.93247 170.966641,145.218567 168.96,147.94 L165.17,127.94 L198.4,127.89 Z M173.44,171.79 C177.061684,174.011157 181.242074,175.152525 185.49,175.08 C186.156667,175.08 186.846667,175.056667 187.56,175.01 C192.867341,174.499459 198.034357,173.01106 202.8,170.62 L211.43,253.79 L188.93,253.79 L173.44,171.79 Z M189.67,256.79 L211.74,256.79 L212.74,266.79 L203.53,266.79 C197.258665,266.727583 191.706598,262.721762 189.67,256.79 L189.67,256.79 Z" id="Shape"></path>
                    <path d="M230.35,255.29 C230.35,256.118427 231.021573,256.79 231.85,256.79 L245.1,256.79 C245.928427,256.79 246.6,256.118427 246.6,255.29 C246.6,254.461573 245.928427,253.79 245.1,253.79 L231.85,253.79 C231.021573,253.79 230.35,254.461573 230.35,255.29 Z" id="Shape"></path>
                    <path d="M238.47,181.42 C238.464479,177.107962 234.965382,173.616323 230.653342,173.620003 C226.341302,173.623682 222.848169,177.121288 222.850007,181.433329 C222.851845,185.74537 226.347959,189.239996 230.66,189.24 C234.974961,189.234482 238.470004,185.734965 238.47,181.42 L238.47,181.42 Z M225.84,181.42 C225.845523,178.766122 227.999443,176.618171 230.653326,176.620012 C233.30721,176.621853 235.458147,178.77279 235.459988,181.426674 C235.461829,184.080557 233.313878,186.234477 230.66,186.24 C227.997988,186.24 225.84,184.082012 225.84,181.42 L225.84,181.42 Z" id="Shape"></path>
                    <path d="M269.28,200.05 C269.275956,202.74149 270.894692,205.17002 273.380532,206.201878 C275.866373,207.233735 278.72908,206.665425 280.632253,204.762253 C282.535425,202.85908 283.103735,199.996373 282.071878,197.510532 C281.04002,195.024692 278.61149,193.405956 275.92,193.41 C272.255113,193.415507 269.285507,196.385113 269.28,200.05 L269.28,200.05 Z M275.92,196.41 C277.398099,196.405956 278.732719,197.293764 279.300233,198.65858 C279.867747,200.023396 279.556104,201.595748 278.510926,202.640926 C277.465748,203.686104 275.893396,203.997747 274.52858,203.430233 C273.163764,202.862719 272.275956,201.528099 272.28,200.05 C272.285494,198.041964 273.911964,196.415494 275.92,196.41 L275.92,196.41 Z" id="Shape"></path>
                    <path d="M197.16,246.11 C200.412957,246.11 203.05,243.472957 203.05,240.22 C203.05,236.967043 200.412957,234.33 197.16,234.33 C193.907043,234.33 191.27,236.967043 191.27,240.22 C191.275505,243.470674 193.909326,246.104495 197.16,246.11 Z M197.16,237.33 C198.756103,237.33 200.05,238.623897 200.05,240.22 C200.05,241.816103 198.756103,243.11 197.16,243.11 C195.563897,243.11 194.27,241.816103 194.27,240.22 C194.27,239.453524 194.574481,238.718442 195.116461,238.176461 C195.658442,237.634481 196.393524,237.33 197.16,237.33 L197.16,237.33 Z" id="Shape"></path>
                    <path d="M278,165.5 C278.164589,165.608734 278.338623,165.702445 278.52,165.78 C278.70183,165.851524 278.889095,165.908372 279.08,165.95 C279.46595,166.029489 279.86405,166.029489 280.25,165.95 C280.440852,165.908168 280.628101,165.851324 280.81,165.78 C280.991307,165.7023 281.165329,165.608596 281.33,165.5 C281.492859,165.393195 281.643731,165.269145 281.78,165.13 C282.34277,164.567931 282.6593,163.805381 282.66,163.01 C282.659535,162.811834 282.639437,162.614202 282.6,162.42 C282.56818,162.226676 282.511021,162.038388 282.43,161.86 C282.360405,161.679957 282.269776,161.50877 282.16,161.35 C282.049957,161.186435 281.926176,161.032545 281.79,160.89 C281.080575,160.180773 280.063616,159.873059 279.08,160.07 C278.888867,160.11075 278.701531,160.16762 278.52,160.24 C278.336558,160.313201 278.16209,160.407145 278,160.52 C277.834013,160.626719 277.679817,160.750746 277.54,160.89 C277.400968,161.030015 277.27696,161.184187 277.17,161.35 C277.061468,161.511202 276.967752,161.681899 276.89,161.86 C276.818676,162.041899 276.761832,162.229148 276.72,162.42 C276.680563,162.614202 276.660465,162.811834 276.66,163.01 C276.6607,163.805381 276.97723,164.567931 277.54,165.13 C277.679817,165.269254 277.834013,165.393281 278,165.5 L278,165.5 Z" id="Shape"></path>
                    <path d="M289.38,109.79 C289.310152,109.610073 289.219539,109.438914 289.11,109.28 C289.000202,109.113478 288.872802,108.959257 288.73,108.82 C288.593524,108.681081 288.442678,108.557052 288.28,108.45 C288.115329,108.341404 287.941307,108.2477 287.76,108.17 C287.578271,108.098187 287.390982,108.041332 287.2,108 C286.216384,107.803059 285.199425,108.110773 284.49,108.82 C284.350402,108.959508 284.226344,109.113743 284.12,109.28 C284.010935,109.440877 283.917192,109.611624 283.84,109.79 C283.766693,109.974635 283.709806,110.165373 283.67,110.36 C283.630292,110.550784 283.610188,110.745127 283.61,110.94 C283.610063,111.138186 283.630165,111.335858 283.67,111.53 C283.711375,111.720971 283.768229,111.908256 283.84,112.09 C283.917308,112.271496 284.011031,112.445552 284.12,112.61 C284.226221,112.773288 284.350321,112.924221 284.49,113.06 C285.052069,113.62277 285.814619,113.9393 286.61,113.94 C286.808204,113.940285 287.005911,113.920179 287.2,113.88 C287.392128,113.843194 287.579834,113.786212 287.76,113.71 C287.940162,113.633812 288.114035,113.543532 288.28,113.44 C288.443171,113.329808 288.594036,113.202411 288.73,113.06 C288.872874,112.924473 289.000316,112.773555 289.11,112.61 C289.215761,112.445316 289.306143,112.271249 289.38,112.09 C289.460593,111.911451 289.517734,111.72322 289.55,111.53 C289.589835,111.335858 289.609937,111.138186 289.61,110.94 C289.609812,110.745127 289.589708,110.550784 289.55,110.36 C289.519278,110.163207 289.462093,109.971471 289.38,109.79 L289.38,109.79 Z" id="Shape"></path>
                    <path d="M196.15,211.79 C196.227308,211.971496 196.321031,212.145552 196.43,212.31 C196.536719,212.475987 196.660746,212.630183 196.8,212.77 C197.97127,213.939814 199.86873,213.939814 201.04,212.77 C201.182467,212.630435 201.309836,212.476251 201.42,212.31 C201.529913,212.147755 201.620525,211.973242 201.69,211.79 C201.769357,211.610118 201.829685,211.422431 201.87,211.23 C201.90452,211.038445 201.924576,210.844565 201.93,210.65 C201.931957,209.851154 201.615225,209.084517 201.05,208.52 C200.907684,208.383563 200.753771,208.259763 200.59,208.15 C200.427394,208.040694 200.252953,207.95012 200.07,207.88 C199.890197,207.800435 199.702488,207.7401 199.51,207.7 C198.527026,207.515594 197.51584,207.821562 196.8,208.52 C196.23844,209.086156 195.92539,209.852591 195.93,210.65 C195.910136,210.842823 195.910136,211.037177 195.93,211.23 C195.988051,211.422315 196.061626,211.609597 196.15,211.79 L196.15,211.79 Z" id="Shape"></path>
                    <path d="M4.67,267.3 C4.34302238,267.080573 3.97604457,266.927666 3.59,266.85 C3.20073683,266.769977 2.79926317,266.769977 2.41,266.85 C2.02348733,266.926129 1.65621594,267.079159 1.33,267.3 C1.16899476,267.409304 1.0183628,267.533157 0.88,267.67 C0.737662339,267.807026 0.613331334,267.9616 0.51,268.13 C0.401030601,268.294448 0.307308005,268.468504 0.23,268.65 C0.153858139,268.830191 0.0968780798,269.01789 0.06,269.21 C-0.019489471,269.59595 -0.019489471,269.99405 0.06,270.38 C0.0966600424,270.572164 0.15364699,270.759886 0.23,270.94 C0.307155757,271.121569 0.400885694,271.295639 0.51,271.46 C0.613493244,271.625269 0.737850456,271.776515 0.88,271.91 C1.01818957,272.050026 1.16880791,272.177214 1.33,272.29 C1.49363295,272.397565 1.66788044,272.488039 1.85,272.56 C2.02988154,272.639357 2.21756897,272.699685 2.41,272.74 C2.60491109,272.774572 2.80211961,272.794627 3,272.8 C3.79681977,272.796652 4.55957218,272.476439 5.12,271.91 C5.68276995,271.347931 5.99929979,270.585381 6,269.79 C6.00195748,268.991154 5.68522499,268.224517 5.12,267.66 C4.98099082,267.526872 4.83039529,267.406395 4.67,267.3 L4.67,267.3 Z" id="Shape"></path>
                    <path d="M247.34,149.79 C247.412338,149.971947 247.502793,150.146157 247.61,150.31 C247.722518,150.471398 247.849727,150.622039 247.99,150.76 C248.552069,151.32277 249.314619,151.6393 250.11,151.64 C250.905381,151.6393 251.667931,151.32277 252.23,150.76 C252.364297,150.619361 252.48797,150.468947 252.6,150.31 C252.706967,150.144361 252.800595,149.97048 252.88,149.79 C252.951813,149.608271 253.008668,149.420982 253.05,149.23 C253.128118,148.840545 253.128118,148.439455 253.05,148.05 C253.008668,147.859018 252.951813,147.671729 252.88,147.49 C252.803022,147.311519 252.709268,147.140753 252.6,146.98 C252.490788,146.815825 252.36695,146.661864 252.23,146.52 C252.090705,146.380164 251.936443,146.256084 251.77,146.15 C251.606757,146.039033 251.432501,145.945203 251.25,145.87 C251.068256,145.798229 250.880971,145.741375 250.69,145.7 C250.304108,145.619947 249.905892,145.619947 249.52,145.7 C249.329018,145.741332 249.141729,145.798187 248.96,145.87 C248.589098,146.022504 248.249948,146.242952 247.96,146.52 C247.823331,146.662112 247.699514,146.816046 247.59,146.98 C247.480539,147.138961 247.38993,147.31011 247.32,147.49 C247.240574,147.669855 247.180243,147.85755 247.14,148.05 C247.072434,148.440432 247.072434,148.839568 247.14,149.23 C247.186673,149.423215 247.253714,149.610932 247.34,149.79 L247.34,149.79 Z" id="Shape"></path>
                    <path d="M178.89,154.9 C178.780546,155.062518 178.689962,155.236976 178.62,155.42 C178.538979,155.598388 178.48182,155.786676 178.45,155.98 C178.409821,156.174089 178.389715,156.371796 178.39,156.57 C178.390118,156.764876 178.410223,156.959226 178.45,157.15 C178.481706,157.343351 178.538869,157.531653 178.62,157.71 C178.689721,157.893132 178.780319,158.067616 178.89,158.23 C179.000164,158.396251 179.127533,158.550435 179.27,158.69 C179.405779,158.829679 179.556712,158.953779 179.72,159.06 C179.882429,159.169605 180.056905,159.260198 180.24,159.33 C180.419803,159.409565 180.607512,159.4699 180.8,159.51 C180.996365,159.525413 181.193635,159.525413 181.39,159.51 C182.182678,159.505539 182.942695,159.193645 183.51,158.64 C183.649254,158.500183 183.773281,158.345987 183.88,158.18 C183.989163,158.015668 184.082896,157.841594 184.16,157.66 C184.231443,157.478142 184.28829,157.290884 184.33,157.1 C184.369847,156.909237 184.389953,156.71488 184.39,156.52 C184.390285,156.321796 184.370179,156.124089 184.33,155.93 C184.288208,155.739138 184.231364,155.551885 184.16,155.37 C184.082642,155.188528 183.988922,155.014476 183.88,154.85 C183.77304,154.684187 183.649032,154.530015 183.51,154.39 C183.367958,154.253252 183.214016,154.129429 183.05,154.02 C182.886757,153.909033 182.712501,153.815203 182.53,153.74 C182.348256,153.668229 182.160971,153.611375 181.97,153.57 C181.584108,153.489947 181.185892,153.489947 180.8,153.57 C180.608984,153.611201 180.421685,153.66806 180.24,153.74 C179.866523,153.887555 179.526471,154.108589 179.24,154.39 C179.105363,154.546942 178.98802,154.717928 178.89,154.9 L178.89,154.9 Z" id="Shape"></path>
                    <path d="M236.49,228.43 C236.297854,228.466733 236.11014,228.523718 235.93,228.6 C235.748679,228.673702 235.574598,228.76409 235.41,228.87 C235.245167,228.982064 235.091164,229.109284 234.95,229.25 C234.815421,229.390389 234.69173,229.540824 234.58,229.7 C234.472435,229.863633 234.381961,230.03788 234.31,230.22 C234.229302,230.39851 234.172156,230.586754 234.14,230.78 C234.100165,230.974142 234.080063,231.171814 234.08,231.37 C234.078045,232.163949 234.390896,232.926297 234.95,233.49 C235.240383,233.766499 235.579424,233.986875 235.95,234.14 C236.1317,234.211897 236.318995,234.268755 236.51,234.31 C236.704067,234.35032 236.901789,234.370427 237.1,234.37 C238.756854,234.37 240.1,233.026854 240.1,231.37 C240.086151,231.173808 240.05265,230.979502 240,230.79 C239.958755,230.598995 239.901897,230.4117 239.83,230.23 C239.750595,230.04952 239.656967,229.875639 239.55,229.71 C239.441019,229.548753 239.317142,229.398092 239.18,229.26 C238.476866,228.553685 237.468869,228.242667 236.49,228.43 L236.49,228.43 Z" id="Shape"></path>
                </g>
                <g id="lights" transform="translate(131.000000, 0.000000)">
                    <polygon id="Shape" fill="url(#linearGradient-15)" opacity="0.43" points="80.08 230.52 131.27 179.34 128.15 209.04 82.64 254.56"></polygon>
                    <circle id="Oval" fill="url(#radialGradient-16)" cx="66.16" cy="139.07" r="65.35"></circle>
                    <polygon id="Shape" fill="url(#linearGradient-17)" opacity="0.22" points="127.57 273.13 157.25 243.45 154.68 257.42 126.19 285.9"></polygon>
                    <polygon id="Shape" fill="url(#linearGradient-18)" opacity="0.43" points="35.67 174.52 44.36 165.83 55.33 165.83 37.68 183.48"></polygon>
                    <polygon id="Shape" fill="url(#linearGradient-19)" opacity="0.43" points="83.75 265.98 126.66 223.06 125.09 239.03 85.1 279.02"></polygon>
                    <path d="M172.38,159.88 C172.5,145.97 164.93,111.35 129.74,109.88 C161.07,115.01 170.11,149.88 171.17,159.88 L172.38,159.88 Z" id="Shape" fill="url(#linearGradient-20)" opacity="0.8"></path>
                    <circle id="Oval" fill="url(#radialGradient-21)" cx="69.64" cy="50.22" r="50"></circle>
                    <ellipse id="Oval" fill="url(#linearGradient-22)" opacity="0.4" cx="151.06" cy="127.31" rx="26.94" ry="25.19"></ellipse>
                    <g id="Group" opacity="0.85" transform="translate(51.000000, 121.000000)">
                        <polygon id="Shape" fill="#FFFFFF" points="20.8 14.12 20.8 14.12 15.74 12.85 14.33 4.42 14.33 4.42 12.93 12.86 7.87 14.12 12.93 15.38 14.33 23.82 15.74 15.39"></polygon>
                        <circle id="Oval" fill="url(#radialGradient-23)" cx="14.33" cy="14.12" r="14.01"></circle>
                    </g>
                    <g id="Group" opacity="0.85" transform="translate(60.000000, 142.000000)">
                        <polygon id="Shape" fill="#FFFFFF" points="15.62 10.62 15.62 10.62 11.82 9.67 10.76 3.34 10.76 3.33 9.71 9.67 5.91 10.62 9.71 11.57 10.76 17.9 11.82 11.57"></polygon>
                        <circle id="Oval" fill="url(#radialGradient-24)" cx="10.76" cy="10.62" r="10.52"></circle>
                    </g>
                    <g id="Group" opacity="0.85" transform="translate(65.000000, 41.000000)">
                        <polygon id="Shape" fill="#FFFFFF" points="6.39 11.23 6.39 11.22 6.39 11.22"></polygon>
                        <polygon id="Shape" fill="#FFFFFF" points="16.1 11.23 16.11 11.22 12.31 10.27 11.25 3.94 11.25 3.94 10.19 10.27 6.39 11.22 10.19 12.17 11.25 18.51 12.3 12.17"></polygon>
                        <circle id="Oval" fill="url(#radialGradient-25)" cx="11.25" cy="11.22" r="10.52"></circle>
                    </g>
                    <path d="M176.05,163.09 L30.52,163.09 L30.52,169.57 L55.92,169.57 C56.78,169.93 57.62,170.31 58.39,170.7 C61.4164557,172.225705 63.4641282,175.180527 63.83,178.55 L82.83,310.87 L86,310.87 L70.5,169.57 L121.11,169.57 C121.81,169.88 122.49,170.19 123.11,170.51 C125.607778,171.785334 127.056749,174.472299 126.75,177.26 L118.4,311.03 L121.11,310.9 L132.53,200.02 L127.32,259.12 C128.63,242.92 138.17,195.12 142.98,177.64 C143.884404,174.370623 146.626138,171.938314 149.98,171.43 C155.21,170.61 160.49,170.01 165.81,169.58 L176.09,169.58 L176.05,163.09 Z" id="Shape" fill="url(#linearGradient-26)" opacity="0.6"></path>
                </g>
                <g id="lines-overlay" transform="translate(158.000000, 159.000000)" fill="#463D73">
                    <path d="M150.79,1.98 C150.220858,1.29064603 149.373941,0.891018794 148.48,0.89 L3.48,0.89 C2.58579834,0.889186183 1.73784572,1.28730755 1.16729609,1.97583524 C0.596746456,2.66436293 0.363081918,3.57151516 0.53,4.45 L25.17,134.86 C27.0406868,144.696035 35.6476704,151.807613 45.66,151.79 L106.34,151.79 C116.336621,151.782669 124.917039,144.6715 126.78,134.85 L151.42,4.44 C151.584516,3.5671701 151.353807,2.6663081 150.79,1.98 L150.79,1.98 Z M31.11,133.74 L7.11,6.89 L40.33,6.89 L54.78,145.79 L45.66,145.79 C38.5451748,145.789736 32.4359229,140.730184 31.11,133.74 L31.11,133.74 Z M60.81,145.79 L46.4,6.89 L105.6,6.89 L91.19,145.79 L60.81,145.79 Z M120.89,133.73 C119.568302,140.724159 113.457945,145.788826 106.34,145.79 L97.22,145.79 L111.63,6.89 L144.85,6.89 L120.89,133.73 Z" id="Shape"></path>
                </g>
            </g>
        </g>
    </g>
</svg>