<?xml version="1.0" encoding="UTF-8"?>
<svg width="456px" height="288px" viewBox="0 0 456 288" version="1.1" xmlns="http://www.w3.org/2000/svg" xmlns:xlink="http://www.w3.org/1999/xlink">
    <!-- Generator: Sketch 45.2 (43514) - http://www.bohemiancoding.com/sketch -->
    <title>mana-potion</title>
    <desc>Created with Sketch.</desc>
    <defs>
        <linearGradient x1="-0.00979860395%" y1="49.9869907%" x2="100%" y2="49.9869907%" id="linearGradient-1">
            <stop stop-color="#4DE1FF" offset="0%"></stop>
            <stop stop-color="#0090F0" offset="100%"></stop>
        </linearGradient>
        <linearGradient x1="6.07126492%" y1="2.68916961%" x2="106.783833%" y2="93.2451766%" id="linearGradient-2">
            <stop stop-color="#4DE1FF" offset="0%"></stop>
            <stop stop-color="#0078F0" offset="100%"></stop>
        </linearGradient>
        <linearGradient x1="0.0196232339%" y1="49.9448969%" x2="100.019623%" y2="49.9448969%" id="linearGradient-3">
            <stop stop-color="#FFFFFF" stop-opacity="0.8" offset="0%"></stop>
            <stop stop-color="#FFFFFF" stop-opacity="0.79" offset="15%"></stop>
            <stop stop-color="#FFFFFF" stop-opacity="0.74" offset="30%"></stop>
            <stop stop-color="#FFFFFF" stop-opacity="0.67" offset="43%"></stop>
            <stop stop-color="#FFFFFF" stop-opacity="0.57" offset="56%"></stop>
            <stop stop-color="#FFFFFF" stop-opacity="0.43" offset="70%"></stop>
            <stop stop-color="#FFFFFF" stop-opacity="0.27" offset="82%"></stop>
            <stop stop-color="#FFFFFF" stop-opacity="0.08" offset="95%"></stop>
            <stop stop-color="#FFFFFF" stop-opacity="0" offset="100%"></stop>
        </linearGradient>
        <linearGradient x1="0%" y1="50%" x2="100%" y2="50%" id="linearGradient-4">
            <stop stop-color="#FFFFFF" stop-opacity="0" offset="0%"></stop>
            <stop stop-color="#878787" stop-opacity="0.38" offset="15%"></stop>
            <stop stop-color="#FFFFFF" stop-opacity="0.8" offset="100%"></stop>
        </linearGradient>
        <linearGradient x1="16521%" y1="28046%" x2="27780%" y2="28046%" id="linearGradient-5">
            <stop stop-color="#FFFFFF" stop-opacity="0" offset="0%"></stop>
            <stop stop-color="#878787" stop-opacity="0.38" offset="15%"></stop>
            <stop stop-color="#FFFFFF" stop-opacity="0.8" offset="100%"></stop>
        </linearGradient>
        <linearGradient x1="49.9782757%" y1="3.16729363e-14%" x2="49.9782757%" y2="100.02786%" id="linearGradient-6">
            <stop stop-color="#FFFFFF" stop-opacity="0.8" offset="0%"></stop>
            <stop stop-color="#FFFFFF" stop-opacity="0" offset="100%"></stop>
        </linearGradient>
        <linearGradient x1="0%" y1="49.9765588%" x2="100%" y2="49.9765588%" id="linearGradient-7">
            <stop stop-color="#FFFFFF" stop-opacity="0.8" offset="0%"></stop>
            <stop stop-color="#FFFFFF" stop-opacity="0.74" offset="12%"></stop>
            <stop stop-color="#FFFFFF" stop-opacity="0.57" offset="35%"></stop>
            <stop stop-color="#FFFFFF" stop-opacity="0.3" offset="67%"></stop>
            <stop stop-color="#FFFFFF" stop-opacity="0" offset="100%"></stop>
        </linearGradient>
        <linearGradient x1="43375%" y1="32414%" x2="45600%" y2="32414%" id="linearGradient-8">
            <stop stop-color="#FFFFFF" stop-opacity="0.8" offset="0%"></stop>
            <stop stop-color="#FFFFFF" stop-opacity="0.74" offset="12%"></stop>
            <stop stop-color="#FFFFFF" stop-opacity="0.57" offset="35%"></stop>
            <stop stop-color="#FFFFFF" stop-opacity="0.3" offset="67%"></stop>
            <stop stop-color="#FFFFFF" stop-opacity="0" offset="100%"></stop>
        </linearGradient>
        <linearGradient x1="0.168918919%" y1="50%" x2="100%" y2="50%" id="linearGradient-9">
            <stop stop-color="#FFFFFF" stop-opacity="0.6" offset="0%"></stop>
            <stop stop-color="#FFFFFF" stop-opacity="0.59" offset="41%"></stop>
            <stop stop-color="#FFFFFF" stop-opacity="0.57" offset="56%"></stop>
            <stop stop-color="#FFFFFF" stop-opacity="0.52" offset="67%"></stop>
            <stop stop-color="#FFFFFF" stop-opacity="0.45" offset="75%"></stop>
            <stop stop-color="#FFFFFF" stop-opacity="0.37" offset="83%"></stop>
            <stop stop-color="#FFFFFF" stop-opacity="0.26" offset="89%"></stop>
            <stop stop-color="#FFFFFF" stop-opacity="0.14" offset="95%"></stop>
            <stop stop-color="#FFFFFF" stop-opacity="0" offset="100%"></stop>
        </linearGradient>
        <linearGradient x1="39197%" y1="38987%" x2="41087%" y2="38987%" id="linearGradient-10">
            <stop stop-color="#FFFFFF" stop-opacity="0.6" offset="0%"></stop>
            <stop stop-color="#FFFFFF" stop-opacity="0.59" offset="41%"></stop>
            <stop stop-color="#FFFFFF" stop-opacity="0.57" offset="56%"></stop>
            <stop stop-color="#FFFFFF" stop-opacity="0.52" offset="67%"></stop>
            <stop stop-color="#FFFFFF" stop-opacity="0.45" offset="75%"></stop>
            <stop stop-color="#FFFFFF" stop-opacity="0.37" offset="83%"></stop>
            <stop stop-color="#FFFFFF" stop-opacity="0.26" offset="89%"></stop>
            <stop stop-color="#FFFFFF" stop-opacity="0.14" offset="95%"></stop>
            <stop stop-color="#FFFFFF" stop-opacity="0" offset="100%"></stop>
        </linearGradient>
        <linearGradient x1="77.516938%" y1="-2.30693071%" x2="23.5799791%" y2="104.640784%" id="linearGradient-11">
            <stop stop-color="#FFFFFF" stop-opacity="0.8" offset="0%"></stop>
            <stop stop-color="#FFFFFF" stop-opacity="0.78" offset="11%"></stop>
            <stop stop-color="#FFFFFF" stop-opacity="0.72" offset="25%"></stop>
            <stop stop-color="#FFFFFF" stop-opacity="0.61" offset="41%"></stop>
            <stop stop-color="#FFFFFF" stop-opacity="0.47" offset="58%"></stop>
            <stop stop-color="#FFFFFF" stop-opacity="0.29" offset="76%"></stop>
            <stop stop-color="#FFFFFF" stop-opacity="0.07" offset="95%"></stop>
            <stop stop-color="#FFFFFF" stop-opacity="0" offset="100%"></stop>
        </linearGradient>
        <radialGradient cx="49.8715625%" cy="50.0353125%" fx="49.8715625%" fy="50.0353125%" r="25.66875%" id="radialGradient-12">
            <stop stop-color="#FFFFFF" stop-opacity="0.1" offset="0%"></stop>
            <stop stop-color="#FFFFFF" stop-opacity="0.08" offset="39%"></stop>
            <stop stop-color="#FFFFFF" stop-opacity="0.04" offset="80%"></stop>
            <stop stop-color="#FFFFFF" stop-opacity="0" offset="100%"></stop>
        </radialGradient>
        <radialGradient cx="50%" cy="50%" fx="50%" fy="50%" r="50%" id="radialGradient-13">
            <stop stop-color="#FFFFFF" stop-opacity="0.6" offset="0%"></stop>
            <stop stop-color="#FFFFFF" stop-opacity="0" offset="100%"></stop>
        </radialGradient>
        <radialGradient cx="18671%" cy="4868%" fx="18671%" fy="4868%" r="826%" id="radialGradient-14">
            <stop stop-color="#FFFFFF" stop-opacity="0.6" offset="0%"></stop>
            <stop stop-color="#FFFFFF" stop-opacity="0" offset="100%"></stop>
        </radialGradient>
        <radialGradient cx="13305%" cy="18471%" fx="13305%" fy="18471%" r="756%" id="radialGradient-15">
            <stop stop-color="#FFFFFF" stop-opacity="0.6" offset="0%"></stop>
            <stop stop-color="#FFFFFF" stop-opacity="0" offset="100%"></stop>
        </radialGradient>
        <radialGradient cx="-9883%" cy="-2358%" fx="-9883%" fy="-2358%" r="2567%" id="radialGradient-16">
            <stop stop-color="#FFFFFF" stop-opacity="0.1" offset="0%"></stop>
            <stop stop-color="#FFFFFF" stop-opacity="0.08" offset="39%"></stop>
            <stop stop-color="#FFFFFF" stop-opacity="0.04" offset="80%"></stop>
            <stop stop-color="#FFFFFF" stop-opacity="0" offset="100%"></stop>
        </radialGradient>
    </defs>
    <g id="Page-1" stroke="none" stroke-width="1" fill="none" fill-rule="evenodd">
        <g id="mana-potion" transform="translate(0.000000, -3.000000)" fill-rule="nonzero">
            <g id="background" transform="translate(5.000000, 26.000000)">
                <g id="colors" transform="translate(2.000000, 2.000000)">
                    <path d="M323.39,178.68 L323.39,185.33 L297.05,222.07 L123.73,222.07 L112.98,207.26 L109.98,222.07 L93.34,222.07 C90.551198,215.002762 86.8858493,208.313753 82.43,202.16 C71.72,187.52 57.36,178.16 42.24,177.31 L42.24,177.31 C130.28,183.14 241.71,184.36 323.39,178.68 Z" id="Shape" fill="#FCFAF0"></path>
                    <path d="M69.84,218.03 C68.4291931,214.577681 66.3415024,211.442745 63.7,208.81 C59.4616547,204.560986 53.701445,202.181299 47.7,202.2 L82.33,202.2 L82.39,202.2 C86.8458493,208.353753 90.511198,215.042762 93.3,222.11 L109.94,222.11 L112.94,207.3 L123.69,222.11 L297.05,222.11 L286.82,236.35 C283.686371,240.717214 283.258192,246.470143 285.710789,251.253128 C288.163386,256.036114 293.084856,259.045875 298.46,259.05 L39.62,259.05 C48.6836721,258.82822 57.3111049,255.112834 63.7,248.68 C66.5717686,245.813467 68.7862109,242.357026 70.19,238.55 L70.19,238.55 C72.6518262,231.908318 72.5268964,224.583863 69.84,218.03 Z" id="Shape" fill="#FCFAF0"></path>
                    <path d="M39.62,259.01 L38.77,259.01 C29.416362,259.021862 20.443975,255.304062 13.84,248.68 C-2.90776961,231.926906 -3.41570495,204.931247 12.69,187.56 C13.4160606,186.851823 14.1805502,186.184146 14.98,185.56 C23.98,179.33 33.22,176.82 42.24,177.32 C57.36,178.18 71.72,187.53 82.43,202.17 L82.37,202.17 L47.7,202.17 C41.7288568,202.170844 36.0038299,204.549375 31.79,208.78 C28.4039145,212.165172 26.5015546,216.756998 26.5015546,221.545 C26.5015546,226.333002 28.4039145,230.924828 31.79,234.31 C34.5544293,237.078221 38.3286168,238.598731 42.24,238.52 L70.19,238.52 C68.7900781,242.337747 66.5754157,245.804768 63.7,248.68 C57.3046913,255.098151 48.6780384,258.798871 39.62,259.01 Z" id="Shape" fill="#FCFAF0"></path>
                    <path d="M69.84,218.03 C72.5268964,224.583863 72.6518262,231.908318 70.19,238.55 L42.35,238.55 C46.0569258,238.472214 49.5900932,236.963631 52.21,234.34 C56.7200718,229.823062 56.7200718,222.506938 52.21,217.99 L69.84,218.03 Z" id="Shape" fill="#FCFAF0"></path>
                    <path d="M69.84,218.03 L52.21,218.03 C56.7200718,222.546938 56.7200718,229.863062 52.21,234.38 C49.5900932,237.003631 46.0569258,238.512214 42.35,238.59 L42.24,238.59 C38.3286168,238.668731 34.5544293,237.148221 31.79,234.38 C28.4039145,230.994828 26.5015546,226.403002 26.5015546,221.615 C26.5015546,216.826998 28.4039145,212.235172 31.79,208.85 C36.0038299,204.619375 41.7288568,202.240844 47.7,202.24 L47.7,202.24 C53.701445,202.221299 59.4616547,204.600986 63.7,208.85 C66.337081,211.470989 68.4245207,214.591949 69.84,218.03 Z" id="Shape" fill="#FCFAF0"></path>
                    <path d="M443.82,2.98 C449.96,8.91 445.43,24.46 433.48,43.54 L433.48,43.54 L430.38,47.96 L407.21,49.96 L423.56,57.9 C416.57541,67.1239431 409.031224,75.9104645 400.97,84.21 C371.65,114.53 340.97,133.92 326.62,132.12 C342.62,102.19 376.54,65.62 399.25,42.83 C399.711269,42.2950984 399.694188,41.4982478 399.210422,40.9836033 C398.726656,40.4689588 397.932384,40.4026681 397.37,40.83 C372.87,61.76 336.51,96.19 320.15,128.44 C313.48,118.21 327.82,89.44 353.96,59.59 L353.96,59.59 L358.02,69.05 C358.02,69.05 359.66,58.45 360.65,52.2 L360.65,52.2 C361.77,50.9866667 362.916667,49.7766667 364.09,48.57 C397.95,13.53 433.64,-6.86 443.82,2.98 Z" id="Shape" fill="#F7F7F7"></path>
                    <path d="M320.14,128.4 C336.5,96.15 372.86,61.72 397.36,40.79 C397.922384,40.3626681 398.716656,40.4289588 399.200422,40.9436033 C399.684188,41.4582478 399.701269,42.2550984 399.24,42.79 C376.53,65.58 342.61,102.15 326.61,132.08 L326.61,132.08 C324.202517,136.499101 322.136494,141.095836 320.43,145.83 L311.97,145.83 C314.09,140.69 316.6,135.69 319.17,130.37 C319.48,129.68 319.81,129.06 320.14,128.4 Z" id="Shape" fill="#FEFFF5"></path>
                    <path d="M364.27,145.85 C370.267812,145.85 375.13,150.712188 375.13,156.71 C375.13,162.707812 370.267812,167.57 364.27,167.57 L269.73,167.57 C263.732188,167.57 258.87,162.707812 258.87,156.71 C258.87,150.712188 263.732188,145.85 269.73,145.85 L364.27,145.85 L364.27,145.85 Z" id="Shape" fill="#F0F7FF"></path>
                    <path d="M359.17,185.36 L395.78,236.31 C398.913629,240.677214 399.341808,246.430143 396.889211,251.213128 C394.436614,255.996114 389.515144,259.005875 384.14,259.01 L249.86,259.01 C244.484856,259.005875 239.563386,255.996114 237.110789,251.213128 C234.658192,246.430143 235.086371,240.677214 238.22,236.31 L248.45,222.07 L274.83,185.36 L274.83,167.57 L359.17,167.57 L359.17,185.36 Z" id="Shape" fill="#F0F7FF"></path>
                </g>
                <g id="shadows" transform="translate(3.000000, 2.000000)">
                    <path d="M76.73,196.33 C95.09,194.25 294.15,191.07 317.09,192.73 L322.39,185.36 L322.39,178.68 C249.6261,182.93888 176.694185,183.539637 103.87,180.48 L45.47,177.74 L65.54,185.74 L76.73,196.33 Z" id="Shape" fill="#FFFFFF" opacity="0.75"></path>
                    <path d="M79.2,202.39 C76.41,203.39 73.62,204.3 71.54,205.25 C70.8106057,205.602219 70.2546298,206.234412 69.9984904,207.00283 C69.7423509,207.771248 69.8078159,208.610588 70.18,209.33 C78.5066667,225.25 76.93,237.3 65.45,245.48 L70.95,235.48 L71.66,224.9 L67.66,215.56 L56.15,202.16 L79.2,202.39 Z" id="Shape" fill="#FFFFFF" opacity="0.75"></path>
                    <g id="Group" opacity="0.2" transform="translate(14.000000, 177.000000)" fill="#D5E0E5">
                        <path d="M77.7,41.13 L88.44,41.13 C90.5135658,41.1420587 92.3793915,39.8729789 93.13,37.94 L96.7,28.89 L94.97,45.07 L78.34,45.07 L77.7,41.13 Z" id="Shape"></path>
                        <path d="M98.7,29.56 L109.2,39.56 C110.134363,40.4605935 111.382273,40.9626264 112.68,40.96 L284.84,40.96 L282.05,45.07 L108.73,45.07 L98.7,29.56 Z" id="Shape"></path>
                        <path d="M67.37,25.19 L65.9,23.13 L51.54,8.73 L36.05,2.48 L36.48,1.9 L27.35,0.77 L16.05,1.9 L7.42,4.25 C-7.99,22.67 5.89,34.13 13.89,37.25 L18.43,30.38 L27.37,25.19 L67.37,25.19 Z" id="Shape"></path>
                        <polygon id="Shape" points="48.7 71.69 166.87 71.69 269.77 71.69 275.54 82.01 36.2 82.01"></polygon>
                        <path d="M86.12,45.98 L89.46,53.98 C90.1619725,55.662986 91.806485,56.7593277 93.63,56.76 L98.05,56.76 C100.228185,56.7575916 102.094844,55.2020429 102.49,53.06 L104.94,39.85 L116.94,55.04 C117.797347,56.1201901 119.100923,56.7498836 120.48,56.75 L272.82,56.75 L282.05,45.07 L108.25,45.07 L98,29.87 L94.44,44.87 L86.12,45.98 Z" id="Shape"></path>
                        <path d="M17.77,31.32 C16.9355005,32.8737883 16.2908731,34.5222886 15.85,36.23 C15.4601693,37.9714769 15.8851389,39.7956861 17.004459,41.1855897 C18.1237791,42.5754934 19.8154503,43.3795998 21.6,43.37 L38.37,43.37 L38.37,41.13 L53.68,41.02 L50.05,33.24 L37.05,25.61 L23.25,26.93 L17.77,31.32 Z" id="Shape"></path>
                        <path d="M56.74,55.17 L56.35,45.98 L54.29,39.98 L38.37,41.13 L40.14,45.98 L45.43,45.98 C47.094062,45.9413457 48.7016477,46.58438 49.88,47.76 C50.0133333,47.9 50.1366667,48.0433333 50.25,48.19 C52.7,51.35 50.2,55.97 46.2,55.97 L38.37,55.97 L34.37,61.86 L51.56,61.86 L51.66,61.54 L55.19,61.54 L56.74,55.17 Z" id="Shape"></path>
                    </g>
                    <path d="M27.7,214.97 C27.7,214.97 24.33,234.62 47.43,237.05 L40.53,238.54 L29.69,233.89 L24.87,222.56 L27.7,214.97 Z" id="Shape" fill="#FFFFFF" opacity="0.7"></path>
                    <path d="M7.7,192.54 C7.7,192.54 -6.86,244.12 37.17,259.01 L27.25,257.41 L16.93,252.2 L5.4,238.87 L0.72,225.77 L0.05,213.98 L1.17,202.61 L7.7,192.54 Z" id="Shape" fill="#FFFFFF" opacity="0.75"></path>
                    <g id="Group" opacity="0.25" transform="translate(234.000000, 2.000000)" fill="#DAE5EB">
                        <path d="M112.69,165.56 L39.83,165.56 L39.83,174.46 L103.83,174.46 C108.745334,174.46 112.73,178.444666 112.73,183.36 L124.21,183.36 L124.21,165.56 L112.69,165.56 Z" id="Shape"></path>
                        <path d="M0.5,243.91 L79.8,243.91 C106.66,243.91 122.55,213.84 107.42,191.65 L101.77,183.36 L124.17,183.36 L161.96,236.25 L163.5,243.92 L161.44,250.05 L154.5,256.05 L146.32,257.05 L11.71,256.68 L4.78,253.08 L0.5,243.91 Z" id="Shape"></path>
                        <path d="M140.12,154.68 L139.34,150.68 C139.073333,151.146667 138.806667,151.603333 138.54,152.05 C135.904701,156.329882 131.226041,158.92324 126.2,158.89 L24.65,158.89 C24.65,162.573739 27.6362607,165.56 31.32,165.56 L131.89,165.56 C135.573739,165.56 138.56,162.573739 138.56,158.89 L138.43,158.89 L140.12,154.68 Z" id="Shape"></path>
                        <path d="M172.2,47.94 C172.12,48.75 176.01,52.68 178.35,55.7 C179.517867,57.2007619 179.467696,59.3162871 178.23,60.76 C154.5,88.76 131.1,108.99 108.06,120.36 C107.473375,120.649645 106.765687,120.513685 106.328156,120.02728 C105.890625,119.540876 105.830084,118.822794 106.18,118.27 C111.18,110.27 117.18,101.68 123.96,92.63 C126.365843,89.421669 130.192714,87.597926 134.2,87.75 C135.281006,87.7899704 136.359162,87.8867707 137.43,88.04 C137.864326,88.0857991 138.278134,87.8444447 138.452104,87.4438565 C138.626074,87.0432683 138.519958,86.5761186 138.19,86.29 C136.759184,85.051812 135.147159,84.0400812 133.41,83.29 C133.077686,83.1549894 132.871689,82.8196603 132.901477,82.4622064 C132.931265,82.1047525 133.189923,81.8081446 133.54,81.73 C138.454295,80.7983294 143.419775,80.1605307 148.41,79.82 C148.81404,79.7823425 149.155265,79.5042521 149.273677,79.1161219 C149.39209,78.7279917 149.26421,78.3067848 148.95,78.05 C147.03,76.66 144.1,75.69 139.81,75.27 C139.363499,75.2183175 138.979125,74.9308885 138.803314,74.5172164 C138.627504,74.1035443 138.68733,73.6273302 138.96,73.27 C147.39,62.72 156.51,51.75 165.96,40.57 L143.26,62.32 L115.76,94.07 L91.6,129.38 L98.73,129.38 L98.56,130.21 L116.71,122.07 L143.37,103.23 L173.48,74.12 L187.62,55.43 L172.2,47.94 Z" id="Shape"></path>
                        <path d="M208.19,0.44 C209.44,13.44 202.09,29.38 191.98,46.25 L196.81,46.25 L207.39,27.68 L212.31,9.49 L208.19,0.44 Z" id="Shape"></path>
                    </g>
                    <path d="M265.32,146.01 L320.81,146.01 C320.81,149.693739 317.823739,152.68 314.14,152.68 L258.65,152.68 C258.65,148.996261 261.636261,146.01 265.32,146.01 L265.32,146.01 Z" id="Shape" fill="#FFFFFF" opacity="0.7"></path>
                    <path d="M372.56,152.68 L345.13,152.68 C341.446261,152.68 338.46,149.693739 338.46,146.01 L365.89,146.01 C367.659808,146.007341 369.357894,146.709217 370.609339,147.960661 C371.860783,149.212106 372.562659,150.910192 372.56,152.68 L372.56,152.68 Z" id="Shape" fill="#FFFFFF" opacity="0.7"></path>
                    <path d="M388.32,49.68 C339.32,100.04 322.93,125.19 315.99,144.81 L319.79,144.81 L333.56,117.81 L364.81,78.68 L387.64,53.62 L388.32,49.68 Z" id="Shape" fill="#020202" opacity="0.05"></path>
                    <path d="M319.14,126.06 C325.25,105.67 333.73,86.34 349.75,70.37 C350.522998,69.6266824 351.703527,69.5069783 352.61,70.08 C354.82,71.4 355.96,70.51 357.15,69.72 C359.7,63.05 362.24,56.05 364.92,53.1 C365.091293,52.9460332 365.335603,52.9037081 365.548707,52.9910807 C365.761811,53.0784532 365.906092,53.2801005 365.92,53.51 C365.948,54.8868688 366.166749,56.2532083 366.57,57.57 C366.642526,57.7760975 366.847511,57.905038 367.064689,57.8811722 C367.281868,57.8573064 367.45396,57.6869288 367.48,57.47 C367.637809,55.7466164 367.894903,54.0337712 368.25,52.34 C368.788765,49.9821719 369.985028,47.8254304 371.7,46.12 C388.05,29.68 404.34,16.81 420.66,10.06 C421.01727,9.91591992 421.424059,9.97112365 421.73001,10.2052068 C422.03596,10.43929 422.195629,10.8174836 422.15,11.2 C422.030981,12.6497243 422.204412,14.1085857 422.66,15.49 C422.783099,15.8372493 423.111577,16.0693112 423.48,16.0693112 C423.848423,16.0693112 424.176901,15.8372493 424.3,15.49 C424.808767,14.0623701 425.410042,12.6694178 426.1,11.32 C428.496666,6.64907274 432.9335,3.36211808 438.1,2.43 L441.36,1.87 L432.78,0.48 L418.2,5.53 L393.95,20.86 L367.13,44.38 L359.62,52.13 L357.4,66.33 L352.92,59.52 L338.43,77.59 L327.05,95.05 L320.53,108.68 L317.53,119.22 L319.14,126.06 Z" id="Shape" fill="#FFFFFF" opacity="0.7"></path>
                    <path d="M384.48,50.24 C393.48,41.88 402.26,34.24 410.62,27.65 C410.996483,27.4692295 411.445658,27.5414604 411.746487,27.8311479 C412.047317,28.1208354 412.13644,28.5669662 411.97,28.95 C406.52,36.66 401.07,42.95 395.62,47.45 L384.48,50.24 Z" id="Shape" fill="#FFFFFF" opacity="0.7"></path>
                </g>
                <g id="lines" fill="#DAE5EB">
                    <path d="M117.05,190.25 C122.32,190.68 127.65,190.9 132.95,190.9 C134.703333,190.9 136.453333,190.876667 138.2,190.83 C138.752285,190.83 139.2,190.382285 139.2,189.83 C139.2,189.277715 138.752285,188.83 138.2,188.83 C131.218159,189.017423 124.231291,188.827145 117.27,188.26 C116.912734,188.231419 116.567359,188.395607 116.363974,188.690718 C116.16059,188.985828 116.130094,189.367026 116.283974,189.690718 C116.437855,190.01441 116.752734,190.231419 117.11,190.26 L117.05,190.25 Z" id="Shape"></path>
                    <path d="M127.75,193.08 C127.197715,193.030294 126.709706,193.437715 126.66,193.99 C126.610294,194.542285 127.017715,195.030294 127.57,195.08 C129.62,195.26 131.67,195.35 133.71,195.35 C135.75,195.35 137.76,195.26 139.71,195.08 C140.067266,195.047846 140.380239,194.827536 140.531025,194.502058 C140.681812,194.17658 140.647504,193.795382 140.441025,193.502058 C140.234547,193.208734 139.887266,193.047846 139.53,193.08 C135.611277,193.433221 131.668723,193.433221 127.75,193.08 Z" id="Shape"></path>
                    <path d="M138.66,218.15 C138.66,218.702285 139.107715,219.15 139.66,219.15 L153.61,219.15 C154.162285,219.15 154.61,218.702285 154.61,218.15 C154.61,217.597715 154.162285,217.15 153.61,217.15 L139.66,217.15 C139.107715,217.15 138.66,217.597715 138.66,218.15 Z" id="Shape"></path>
                    <path d="M75.37,208.55 C75.2812711,208.453494 75.1718797,208.378287 75.05,208.33 C74.8669199,208.252827 74.665001,208.231938 74.47,208.27 C74.4049677,208.284157 74.3413687,208.304241 74.28,208.33 C74.218644,208.350153 74.161159,208.380586 74.11,208.42 C74.0534447,208.455135 74.0028165,208.499013 73.96,208.55 C73.8634936,208.638729 73.788287,208.74812 73.74,208.87 C73.688759,208.990222 73.66158,209.119323 73.66,209.25 C73.6602577,209.384048 73.6874635,209.516676 73.74,209.64 C73.788885,209.76156 73.8640063,209.870827 73.96,209.96 C74.1462606,210.144744 74.3976601,210.248895 74.66,210.25 C74.7933677,210.252913 74.9259703,210.229113 75.05,210.18 C75.2902936,210.072548 75.4825484,209.880294 75.59,209.64 C75.6391127,209.51597 75.6629131,209.383368 75.66,209.25 C75.6615929,209.119987 75.6378158,208.990911 75.59,208.87 C75.5345266,208.752096 75.4602205,208.644015 75.37,208.55 Z" id="Shape"></path>
                    <path d="M156.44,240.26 L159.14,237.56 C159.479777,237.16324 159.456932,236.571806 159.087563,236.202437 C158.718194,235.833068 158.12676,235.810223 157.73,236.15 L151.96,241.92 L148.05,238.05 C147.65324,237.710223 147.061806,237.733068 146.692437,238.102437 C146.323068,238.471806 146.300223,239.06324 146.64,239.46 L150.51,243.33 L146.64,247.2 C146.354624,247.44439 146.230318,247.828118 146.31819,248.193419 C146.406062,248.55872 146.69128,248.843938 147.056581,248.93181 C147.421882,249.019682 147.80561,248.895376 148.05,248.61 L151.92,244.74 L155.4,248.22 C155.79676,248.559777 156.388194,248.536932 156.757563,248.167563 C157.126932,247.798194 157.149777,247.20676 156.81,246.81 L153.33,243.33 L155.05,241.68 L163.39,250.02 C163.78676,250.359777 164.378194,250.336932 164.747563,249.967563 C165.116932,249.598194 165.139777,249.00676 164.8,248.61 L156.44,240.26 Z" id="Shape"></path>
                    <path d="M447.21,3.54 C434.77,-8.46 395.46,17.28 364.66,49.14 C363.49,50.35 362.33,51.57 361.19,52.79 L361.13,52.86 C361.064076,52.9353808 361.003907,53.0156065 360.95,53.1 L360.88,53.23 C360.838854,53.301007 360.802118,53.3744793 360.77,53.45 C360.77,53.51 360.77,53.57 360.77,53.63 C360.749906,53.6957628 360.733217,53.7625181 360.72,53.83 C360.26,56.72 359.66,60.54 359.15,63.83 L357.83,60.77 L357.83,60.77 L357.76,60.64 C357.721401,60.5639705 357.677979,60.4904872 357.63,60.42 L357.57,60.35 C357.506085,60.2679913 357.435872,60.1910915 357.36,60.12 L357.36,60.12 L357.36,60.12 C357.27822,60.0532317 357.191282,59.9930436 357.1,59.94 L357.01,59.94 L356.74,59.82 L356.64,59.82 L356.36,59.76 L355.87,59.76 L355.61,59.76 L355.45,59.81 L355.29,59.81 L355.29,59.81 L355.12,59.9 L354.95,60.01 L354.82,60.12 L354.65,60.28 L354.65,60.28 C341.83,74.93 331.36,89.92 325.15,102.5 C320.77,111.38 316.48,123.23 320.09,130.5 L319.56,131.58 L318.18,134.43 C316.27,138.35 314.47,142.08 312.84,145.92 L271.73,145.92 C264.627619,145.920001 258.870001,151.677619 258.870001,158.78 C258.870001,165.882381 264.627619,171.639999 271.73,171.64 L274.83,171.64 L274.83,181.3 C204.13,183.67 118.83,182.3 44.37,177.3 C44.2040767,177.277738 44.0359233,177.277738 43.87,177.3 C34.21,176.86 24.67,179.75 15.87,185.9 C14.9513318,186.61343 14.0764179,187.381484 13.25,188.2 C-3.68043471,206.325733 -3.14903614,234.622707 14.45,252.1 C21.4184965,259.112819 30.9036993,263.045181 40.79,263.02 L386.14,263.02 C394.390306,263.016983 401.345743,256.867725 402.36,248.68 C402.450653,248.450683 402.498118,248.206578 402.5,247.96 C402.514045,247.823694 402.514045,247.686306 402.5,247.55 C402.694034,243.846851 401.618026,240.188425 399.45,237.18 L363.17,186.68 L363.17,171.56 L366.27,171.56 C373.372382,171.56 379.13,165.802382 379.13,158.7 C379.13,151.597618 373.372382,145.84 366.27,145.84 L325.27,145.84 C326.585346,142.543633 328.074092,139.31913 329.73,136.18 L330.46,136.18 C346.4,136.18 376.2,116.67 404.37,87.55 C412.489484,79.1914592 420.087162,70.3414164 427.12,61.05 C427.180323,60.96433 427.233821,60.8740521 427.28,60.78 L427.28,60.72 C427.696183,59.8590991 427.44475,58.8240346 426.68,58.25 L426.68,58.25 L426.68,58.25 C426.588639,58.181846 426.491619,58.1216267 426.39,58.07 L416.57,53.3 L432.5,51.94 C433.086594,51.8885806 433.62072,51.5812751 433.96,51.1 L437.07,46.68 L437.07,46.68 L437.07,46.68 C444.86,34.33 456.39,12.41 447.21,3.54 Z M297.21,194.1 L288.59,210.68 C287.469899,212.828136 287.38356,215.368133 288.355205,217.587371 C289.326851,219.806609 291.251803,221.466005 293.59,222.1 L267.23,222.1 L281.86,200.1 C285.053358,195.301307 290.435888,192.418613 296.2,192.42 C296.600557,192.424438 296.971001,192.633492 297.181849,192.974093 C297.392697,193.314694 297.414637,193.73949 297.24,194.1 L297.21,194.1 Z M203.44,186.36 C228.16,186.36 252.21,185.98 274.8,185.23 L274.8,186.68 L249.4,222.03 L126.75,222.03 L116.6,208.03 C116.133751,207.386935 115.331143,207.08073 114.555045,207.249824 C113.778948,207.418918 113.17647,208.031259 113.02,208.81 L110.34,222.02 L96.68,222.02 C89.12,203.77 76.82,189.55 62.68,182.37 C108.31,185.03 157.05,186.36 203.47,186.36 L203.44,186.36 Z M16.15,190.92 C16.44,190.61 17.83,189.39 18.15,189.18 C29.15,181.49 41.4,179.34 53.43,182.96 C55.2406915,183.513182 57.0142864,184.181202 58.74,184.96 L50.93,192.77 C50.6446238,193.01439 50.5203181,193.398118 50.6081899,193.763419 C50.6960617,194.12872 50.9812805,194.413938 51.346581,194.50181 C51.7118816,194.589682 52.0956101,194.465376 52.34,194.18 L60.66,185.86 C61.4133333,186.233333 62.1566667,186.63 62.89,187.05 L59.41,190.53 C59.1246238,190.77439 59.0003181,191.158118 59.0881899,191.523419 C59.1760617,191.88872 59.4612805,192.173938 59.826581,192.26181 C60.1918816,192.349682 60.5756101,192.225376 60.82,191.94 L64.66,188.1 C70.653971,191.892379 75.9735914,196.657732 80.4,202.2 L49.69,202.2 C43.1870683,202.191996 36.9508814,204.784406 32.37,209.4 C24.5476756,217.235154 24.5476756,229.924846 32.37,237.76 C35.4901931,240.873526 39.7323754,242.599954 44.14,242.55 L69.14,242.55 C67.8885072,245.034705 66.2477997,247.303338 64.28,249.27 C58.1291149,255.460494 49.7765891,258.962586 41.05,259.01 L40.71,259.01 C31.9036468,259.02365 23.4571416,255.516874 17.25,249.27 C1.17655393,233.312594 0.689411049,207.471878 16.15,190.92 L16.15,190.92 Z M70.73,238.55 L54.73,238.55 C55.03,238.29 55.33,238.03 55.62,237.75 C57.4875335,235.879162 58.7637908,233.500525 59.29,230.91 L62.18,230.91 C62.7322847,230.91 63.18,230.462285 63.18,229.91 C63.18,229.357715 62.7322847,228.91 62.18,228.91 L59.55,228.91 C59.6043048,227.934103 59.5540185,226.955196 59.4,225.99 L65.22,225.99 C65.7722847,225.99 66.22,225.542285 66.22,224.99 C66.22,224.437715 65.7722847,223.99 65.22,223.99 L58.92,223.99 C58.7006044,223.302473 58.426391,222.633659 58.1,221.99 L70.45,221.99 C72.3394538,227.333078 72.4377416,233.1461 70.73,238.55 L70.73,238.55 Z M54.21,217.98 L54.21,217.98 C53.4018698,217.979359 52.672764,218.465122 52.3621,219.211153 C52.0514359,219.957184 52.2202678,220.816868 52.79,221.39 C56.5070103,225.130237 56.5070103,231.169763 52.79,234.91 C47.9253822,239.749753 40.0646178,239.749753 35.2,234.91 C28.9418622,228.637308 28.9418622,218.482692 35.2,212.21 C39.0406259,208.357602 44.2602181,206.197771 49.7,206.21 L49.78,206.21 C55.2228072,206.197324 60.4456721,208.35702 64.29,212.21 C66.0143538,213.928727 67.4887558,215.881132 68.67,218.01 L54.21,217.98 Z M86.45,258.98 C87.4144329,257.52567 88.2159219,255.969642 88.84,254.34 C88.9889922,254.003945 88.9415951,253.613239 88.7165727,253.322556 C88.4915502,253.031874 88.125186,252.888086 87.7625183,252.948116 C87.3998506,253.008146 87.0993575,253.262314 86.98,253.61 C86.2670482,255.545903 85.2547358,257.357942 83.98,258.98 L79.91,258.98 C82.6600982,256.339529 84.5580237,252.937192 85.36,249.21 C85.4897869,248.671522 85.1584776,248.129787 84.62,248 C84.0815224,247.870213 83.5397869,248.201522 83.41,248.74 C81.99,254.62 78.81,257.59 76.7,258.98 L57.6,258.98 C61.1217708,257.194597 64.3383344,254.862335 67.13,252.07 C70.1813652,249.036394 72.5418064,245.379757 74.05,241.35 L74.05,241.28 L74.05,241.28 C76.6858905,234.210594 76.5716893,226.409222 73.73,219.42 C73.7023204,219.334515 73.6689114,219.250992 73.63,219.17 C72.1210501,215.516384 69.9014397,212.198866 67.1,209.41 C65.9023674,208.215257 64.5854935,207.146344 63.17,206.22 L83.41,206.22 C83.89,206.9 84.41,207.58 84.83,208.28 L78.33,208.28 C77.7777153,208.28 77.33,208.727715 77.33,209.28 C77.33,209.832285 77.7777153,210.28 78.33,210.28 L86.12,210.28 C86.5066667,210.9 86.8866667,211.526667 87.26,212.16 L84.36,212.16 C83.8077153,212.16 83.36,212.607715 83.36,213.16 C83.36,213.712285 83.8077153,214.16 84.36,214.16 L88.36,214.16 C90.2725718,217.605075 91.9626929,221.169026 93.42,224.83 C93.7232546,225.591442 94.4603923,226.090793 95.28,226.09 L111.92,226.09 C112.04969,226.102705 112.18031,226.102705 112.31,226.09 L112.38,226.09 L112.66,226 L112.77,226 L112.99,225.88 L113.09,225.81 L113.28,225.65 L113.36,225.57 L113.53,225.37 L113.59,225.28 C113.638748,225.203054 113.682183,225.122867 113.72,225.04 L113.72,224.95 C113.762771,224.843084 113.796229,224.732674 113.82,224.62 L113.82,224.62 L113.82,224.62 L115.92,214.27 L124,225.4 C124.040745,225.452186 124.084135,225.502251 124.13,225.55 L124.23,225.66 L124.42,225.81 L124.54,225.9 L124.73,226 L124.89,226.08 L125.07,226.14 L125.27,226.19 L125.45,226.19 L125.62,226.19 L246.55,226.19 L238.55,237.26 C236.381974,240.268425 235.305966,243.926851 235.5,247.63 C235.486633,247.762998 235.486633,247.897002 235.5,248.03 C235.501882,248.276578 235.549347,248.520683 235.64,248.75 C236.128609,252.77272 238.091891,256.471244 241.15,259.13 L86.45,258.98 Z M398.45,245.89 L371.26,245.89 C370.155431,245.89 369.26,246.785431 369.26,247.89 C369.26,248.994569 370.155431,249.89 371.26,249.89 L398.05,249.89 C397.817391,250.716101 397.502481,251.516778 397.11,252.28 C395.029762,256.436321 390.757469,259.038536 386.11,258.98 L251.86,258.98 C247.211871,259.040948 242.938398,256.438014 240.86,252.28 C240.467581,251.51675 240.152673,250.716079 239.92,249.89 L278.65,249.89 C279.754569,249.89 280.65,248.994569 280.65,247.89 C280.65,246.785431 279.754569,245.89 278.65,245.89 L239.52,245.89 C239.667309,243.566831 240.471905,241.333383 241.84,239.45 L244.56,235.66 C252.05555,235.019219 259.03679,231.585705 264.12,226.04 L299.05,226.04 C300.154569,226.04 301.05,225.144569 301.05,224.04 C301.05,222.935431 300.154569,222.04 299.05,222.04 L297.71,222.04 C300.019438,221.440767 301.940885,219.842006 302.95,217.68 L313.15,195.68 C314.084198,193.667541 316.10128,192.380041 318.32,192.38 L319.71,192.38 C321.73214,192.387075 323.559462,191.175438 324.34,189.31 C324.729014,189.389279 325.132822,189.350987 325.5,189.2 C325.741053,189.097461 325.961338,188.951734 326.15,188.77 C326.239216,188.671552 326.322688,188.568047 326.4,188.46 C326.469725,188.352089 326.529951,188.238328 326.58,188.12 C326.630434,188.001185 326.667333,187.87707 326.69,187.75 C326.704861,187.617081 326.704861,187.482919 326.69,187.35 C326.704961,187.22043 326.704961,187.08957 326.69,186.96 C326.668692,186.832612 326.631746,186.708339 326.58,186.59 C326.530155,186.468384 326.469933,186.351285 326.4,186.24 C326.325061,186.133293 326.241444,186.032952 326.15,185.94 C326.055809,185.845926 325.951893,185.762123 325.84,185.69 C325.731989,185.620445 325.618243,185.560227 325.5,185.51 C325.376787,185.45979 325.249703,185.419658 325.12,185.39 C324.872237,185.342706 324.617763,185.342706 324.37,185.39 C323.994926,184.388747 323.338622,183.517147 322.48,182.88 L325.56,182.68 C326.664569,182.60268 327.49732,181.644569 327.42,180.54 C327.34268,179.435431 326.384569,178.60268 325.28,178.68 C310.85,179.68 295.28,180.47 278.86,181.06 L278.86,171.54 L348.75,171.54 L348.75,175.54 C348.75,176.092285 349.197715,176.54 349.75,176.54 C350.302285,176.54 350.75,176.092285 350.75,175.54 L350.75,171.54 L352.92,171.54 L352.92,179.24 C352.92,179.792285 353.367715,180.24 353.92,180.24 C354.472285,180.24 354.92,179.792285 354.92,179.24 L354.92,171.54 L359.21,171.54 L359.21,185.33 L335.72,185.33 C334.615431,185.33 333.72,186.225431 333.72,187.33 C333.72,188.434569 334.615431,189.33 335.72,189.33 L338.97,189.33 L343.35,195.42 C343.559,195.711171 343.907463,195.868725 344.264125,195.833311 C344.620787,195.797897 344.931463,195.574896 345.079125,195.248311 C345.226787,194.921725 345.189,194.541171 344.98,194.25 L341.44,189.33 L344.54,189.33 L354.25,202.85 C354.573087,203.300112 355.199888,203.403086 355.65,203.08 C356.100112,202.756913 356.203087,202.130112 355.88,201.68 L347.01,189.33 L360.16,189.33 L396.16,239.45 C397.531654,241.339036 398.33643,243.579919 398.48,245.91 L398.45,245.89 Z M375.12,158.68 C375.114489,163.570958 371.150958,167.534489 366.26,167.54 L271.73,167.54 C266.836757,167.54 262.87,163.573243 262.87,158.68 C262.87,153.786757 266.836757,149.82 271.73,149.82 L366.27,149.82 C371.157053,149.831016 375.114503,153.792938 375.12,158.68 Z M316.98,145.82 C318.4,142.61 319.98,139.42 321.56,136.08 L322.95,133.22 C330.67,117.22 348.31,91.11 388.58,54.86 C367.7,76.65 340.83,107.17 326.94,132.96 C326.874293,133.058112 326.817404,133.161851 326.77,133.27 C324.583753,137.32706 322.672776,141.526532 321.05,145.84 L316.98,145.82 Z M431.26,48.02 L409.05,49.94 C408.155062,50.0192113 407.422774,50.6854687 407.259596,51.5689623 C407.096417,52.4524559 407.542401,53.3363359 408.35,53.73 L422.5,60.6 C418.746667,65.4866667 414.713333,70.3666667 410.4,75.24 L403.05,75.24 C402.497715,75.24 402.05,75.6877153 402.05,76.24 C402.05,76.7922847 402.497715,77.24 403.05,77.24 L408.61,77.24 C406.323333,79.7733333 403.973333,82.29 401.56,84.79 C387.38,99.45 372.56,111.79 359.65,120.18 L354.84,120.18 C354.287715,120.18 353.84,120.627715 353.84,121.18 C353.84,121.732285 354.287715,122.18 354.84,122.18 L356.48,122.18 L355.02,123.07 L347.25,123.07 C346.697715,123.07 346.25,123.517715 346.25,124.07 C346.25,124.622285 346.697715,125.07 347.25,125.07 L351.52,125.07 C343.86,129.29 337.14,131.79 332,132.16 C337.612677,122.502246 343.880698,113.240543 350.76,104.44 L356,104.44 C356.552285,104.44 357,103.992285 357,103.44 C357,102.887715 356.552285,102.44 356,102.44 L352.3,102.44 C353.726667,100.613333 355.173333,98.79 356.64,96.97 L371.3,96.97 C371.852285,96.97 372.3,96.5222847 372.3,95.97 C372.3,95.4177153 371.852285,94.97 371.3,94.97 L358.3,94.97 C367.68,83.47 377.7,72.31 386.91,62.55 L397.73,62.55 C398.282285,62.55 398.73,62.1022847 398.73,61.55 C398.73,60.9977153 398.282285,60.55 397.73,60.55 L388.81,60.55 C393.81,55.27 398.56,50.42 402.75,46.22 C404.130712,44.9525065 404.222493,42.8057119 402.955,41.425 C401.687506,40.0442882 399.540712,39.9525065 398.16,41.22 C394.45,44.39 390.93,47.48 387.54,50.51 L387.54,48.72 C387.54,48.1677153 387.092285,47.72 386.54,47.72 C385.987715,47.72 385.54,48.1677153 385.54,48.72 L385.54,52.31 C381.853333,55.6433333 378.353333,58.8866667 375.04,62.04 L375.04,57.51 C375.04,56.9577153 374.592285,56.51 374.04,56.51 C373.487715,56.51 373.04,56.9577153 373.04,57.51 L373.04,63.95 C362.89,73.72 354.47,82.67 347.47,90.81 L347.47,84.68 C347.47,84.1277153 347.022285,83.68 346.47,83.68 C345.917715,83.68 345.47,84.1277153 345.47,84.68 L345.47,93.21 C334.63,106.07 327.47,116.8 322.67,125.37 C321.52,113.91 334.49,89.87 355.49,65.29 L358.29,71.81 C358.606063,72.5450926 359.32984,73.021055 360.13,73.02 L360.38,73.02 C361.263518,72.9055881 361.964834,72.2205814 362.1,71.34 C362.1,71.34 363.63,61.42 364.63,55.12 C365.616667,54.06 366.616667,53.0066667 367.63,51.96 C378.937763,40.0815679 391.350396,29.3063177 404.7,19.78 L404.7,28.37 C404.7,28.9222847 405.147715,29.37 405.7,29.37 C406.252285,29.37 406.7,28.9222847 406.7,28.37 L406.7,18.37 C407.673333,17.7033333 408.633333,17.0666667 409.58,16.46 L409.58,22.52 C409.58,23.0722847 410.027715,23.52 410.58,23.52 C411.132285,23.52 411.58,23.0722847 411.58,22.52 L411.58,15.19 C425.34,6.62 436.25,3.08 442,4.97 L435.2,11.77 C434.914624,12.0143899 434.790318,12.3981184 434.87819,12.763419 C434.966062,13.1287195 435.25128,13.4139383 435.616581,13.5018101 C435.981882,13.5896819 436.36561,13.4653762 436.61,13.18 L443.88,5.91 C444.105055,6.06474576 444.318919,6.23516839 444.52,6.42 C449.58,11.31 445.52,25.84 433.95,44.36 L433.95,44.36 L433.95,44.36 L431.26,48.02 Z" id="Shape"></path>
                    <path d="M352.38,245.91 C351.275431,245.91 350.38,246.805431 350.38,247.91 C350.38,249.014569 351.275431,249.91 352.38,249.91 L361.17,249.91 C362.274569,249.91 363.17,249.014569 363.17,247.91 C363.17,246.805431 362.274569,245.91 361.17,245.91 L352.38,245.91 Z" id="Shape"></path>
                    <path d="M331.3,245.91 L292.3,245.91 C291.195431,245.91 290.3,246.805431 290.3,247.91 C290.3,249.014569 291.195431,249.91 292.3,249.91 L331.3,249.91 C332.404569,249.91 333.3,249.014569 333.3,247.91 C333.3,246.805431 332.404569,245.91 331.3,245.91 Z" id="Shape"></path>
                    <path d="M287.64,247.14 C287.589997,247.02165 287.529769,246.907886 287.46,246.8 C287.387424,246.691505 287.303629,246.590951 287.21,246.5 C286.415939,245.749496 285.174061,245.749496 284.38,246.5 C284.008079,246.874983 283.799579,247.381855 283.8,247.91 C283.785127,248.039575 283.785127,248.170425 283.8,248.3 C283.819895,248.427711 283.856894,248.552162 283.91,248.67 C283.960398,248.79136 284.020597,248.908414 284.09,249.02 C284.165252,249.126467 284.248849,249.226783 284.34,249.32 C284.715796,249.698039 285.226955,249.910422 285.76,249.91 C286.020688,249.910009 286.278863,249.859053 286.52,249.76 C286.764518,249.659405 286.98576,249.509642 287.17,249.32 C287.26666,249.231903 287.350777,249.130962 287.42,249.02 C287.496672,248.911084 287.560432,248.79363 287.61,248.67 C287.658511,248.550502 287.695349,248.426592 287.72,248.3 C287.773369,248.042739 287.773369,247.777261 287.72,247.52 C287.703388,247.391423 287.676638,247.264361 287.64,247.14 Z" id="Shape"></path>
                    <path d="M357.55,205.77 C357.333135,205.924607 357.186903,206.159337 357.143727,206.422148 C357.100551,206.684959 357.163998,206.954136 357.32,207.17 L359.62,210.37 C359.943087,210.820112 360.569888,210.923086 361.02,210.6 C361.470112,210.276913 361.573087,209.650112 361.25,209.2 L358.95,206 C358.795393,205.783135 358.560663,205.636903 358.297852,205.593727 C358.035041,205.550551 357.765864,205.613998 357.55,205.77 Z" id="Shape"></path>
                    <path d="M318.05,162.48 L292.3,162.48 C291.747715,162.48 291.3,162.927715 291.3,163.48 C291.3,164.032285 291.747715,164.48 292.3,164.48 L318.05,164.48 C318.602285,164.48 319.05,164.032285 319.05,163.48 C319.05,162.927715 318.602285,162.48 318.05,162.48 Z" id="Shape"></path>
                    <path d="M321.84,162.56 C321.593622,162.457222 321.316378,162.457222 321.07,162.56 C320.94812,162.608287 320.838729,162.683494 320.75,162.78 C320.565256,162.966261 320.461105,163.21766 320.46,163.48 C320.46,164.032285 320.907715,164.48 321.46,164.48 C322.012285,164.48 322.46,164.032285 322.46,163.48 C322.458895,163.21766 322.354744,162.966261 322.17,162.78 C322.078405,162.682237 321.965471,162.606948 321.84,162.56 L321.84,162.56 Z" id="Shape"></path>
                    <path d="M292.34,160.23 L302.34,160.23 C302.892285,160.23 303.34,159.782285 303.34,159.23 C303.34,158.677715 302.892285,158.23 302.34,158.23 L292.34,158.23 C291.787715,158.23 291.34,158.677715 291.34,159.23 C291.34,159.782285 291.787715,160.23 292.34,160.23 Z" id="Shape"></path>
                </g>
            </g>
            <g id="bung" transform="translate(183.000000, 3.000000)">
                <g id="colors-2" transform="translate(3.000000, 3.000000)" fill="#E6A15C">
                    <path d="M55.29,71.68 L14.81,71.68 C10.1452325,71.655222 6.25640339,68.1034248 5.81,63.46 L0.81,10.67 C0.568532398,8.12958894 1.40602253,5.60467333 3.1178511,3.71215175 C4.82967966,1.81963016 7.25817632,0.733815934 9.81,0.72 L60.33,0.72 C62.8818237,0.733815934 65.3103203,1.81963016 67.0221489,3.71215175 C68.7339775,5.60467333 69.5714676,8.12958894 69.33,10.67 L64.33,63.46 C63.8820711,68.1186203 59.9701031,71.6757416 55.29,71.68 L55.29,71.68 Z" id="Shape"></path>
                </g>
                <g id="shadows-2" transform="translate(3.000000, 4.000000)">
                    <path d="M57.59,9.68 L57.39,12.06 C55.6404684,32.4238752 38.5988911,48.0623352 18.16,48.06 L4.4,48.06 L7.3,67.22 L13.3,70.55 L55.79,70.68 L62.42,67.22 L65.16,53.68 L68.55,9.68 L57.59,9.68 Z" id="Shape" fill="#000000" opacity="0.1"></path>
                    <path d="M59.45,0.56 L9.85,0.56 C7.43652994,0.56 5.12190934,1.51874725 3.41532829,3.22532829 C1.70874725,4.93190934 0.75,7.24652994 0.75,9.66 L0.75,9.66 L4.4,41.89 C4.4,31.02 4.88,21.35 6.49,15.34 C7.4003943,11.9779454 10.4568871,9.64762609 13.94,9.66 L15.23,9.66 L15.23,15.24 C15.1697127,19.3705686 18.3756988,22.8146885 22.5,23.05 C24.5286682,23.112242 26.4959495,22.3496293 27.9526169,20.9363039 C29.4092844,19.5229784 30.2309546,17.5796226 30.23,15.55 L30.23,9.68 L33.81,9.68 L33.81,13.02 C33.8074795,14.9208747 35.2568237,16.5090782 37.15,16.68 C38.1195965,16.7321165 39.0680358,16.383673 39.7732807,15.7162428 C40.4785257,15.0488126 40.8786567,14.1209952 40.88,13.15 L40.88,9.68 L68.55,9.68 C68.555312,7.26306656 67.5989102,4.94330459 65.8917531,3.23239547 C64.184596,1.52148635 61.8669393,0.559994163 59.45,0.56 Z" id="Shape" fill="#FFFFFF" opacity="0.25"></path>
                </g>
                <g id="lines-2" fill="#3C5A78">
                    <path d="M72.25,4.68 C69.9661596,2.14733989 66.7202885,0.695048553 63.31,0.68 L12.79,0.68 C9.39052733,0.687072965 6.15137686,2.12619703 3.86748254,4.64419051 C1.58358822,7.162184 0.466366646,10.5259601 0.79,13.91 L5.79,66.7 C6.34068,72.9102851 11.5553953,77.6643672 17.79,77.64 L58.27,77.64 C64.5046047,77.6643672 69.71932,72.9102851 70.27,66.7 L75.27,13.91 C75.5950932,10.5467462 74.5002591,7.2006142 72.25,4.68 Z M64.34,66.18 C64.0547399,69.3103725 61.4233163,71.7029705 58.28,71.69 L57.37,71.69 L57.37,67.77 C57.37,66.9415729 56.6984271,66.27 55.87,66.27 C55.0415729,66.27 54.37,66.9415729 54.37,67.77 L54.37,71.68 L51.05,71.68 L51.05,69.93 C51.05,69.1015729 50.3784271,68.43 49.55,68.43 C48.7215729,68.43 48.05,69.1015729 48.05,69.93 L48.05,71.68 L17.81,71.68 C14.6666837,71.6929705 12.0352601,69.3003725 11.75,66.17 L6.9,15.17 L13.05,15.17 C13.8784271,15.17 14.55,14.4984271 14.55,13.67 C14.55,12.8415729 13.8784271,12.17 13.05,12.17 L6.72,12.17 C7.0471719,9.07397808 9.65674079,6.72320941 12.77,6.72 L63.29,6.72 C66.4032592,6.72320941 69.0128281,9.07397808 69.34,12.17 L55.88,12.17 C55.0515729,12.17 54.38,12.8415729 54.38,13.67 C54.38,14.4984271 55.0515729,15.17 55.88,15.17 L69.19,15.17 L64.34,66.18 Z" id="Shape"></path>
                    <path d="M21.82,20.93 C21.740408,20.7496115 21.6467875,20.5757448 21.54,20.41 C21.4362392,20.2449233 21.3119088,20.0937106 21.17,19.96 C20.4605754,19.2507734 19.4436156,18.9430587 18.46,19.14 C18.26678,19.172266 18.0785494,19.2294074 17.9,19.31 C17.7180527,19.3823381 17.5438425,19.4727934 17.38,19.58 C17.0590727,19.8085506 16.7785506,20.0890727 16.55,20.41 C16.4460591,20.5757313 16.3557617,20.7496372 16.28,20.93 C16.2037883,21.1101655 16.1468059,21.297872 16.11,21.49 C16.0697508,21.684078 16.0496442,21.8817926 16.05,22.08 C16.0501179,22.2748762 16.0702231,22.4692265 16.11,22.66 C16.1468781,22.8521102 16.2038581,23.0398092 16.28,23.22 C16.3512868,23.4043299 16.4453503,23.5790193 16.56,23.74 C16.6633313,23.9084005 16.7876623,24.0629742 16.93,24.2 C18.1012702,25.3698135 19.9987298,25.3698135 21.17,24.2 C21.3092539,24.060183 21.4332813,23.9059867 21.54,23.74 C21.6506089,23.5765396 21.7444187,23.4023214 21.82,23.22 C21.8917707,23.0382563 21.9486251,22.850971 21.99,22.66 C22.0297769,22.4692265 22.0498821,22.2748762 22.05,22.08 C22.0502848,21.8817962 22.030179,21.6840889 21.99,21.49 C21.9486681,21.2990179 21.8918126,21.111729 21.82,20.93 Z" id="Shape"></path>
                    <path d="M58.47,24.36 C58.3905952,24.17952 58.2969669,24.0056388 58.19,23.84 C58.0813078,23.6785377 57.9574094,23.5278505 57.82,23.39 C57.6832725,23.2473366 57.5286547,23.1229701 57.36,23.02 C57.1990018,22.9111333 57.0282738,22.8174003 56.85,22.74 C56.2988741,22.5153264 55.6941905,22.4562481 55.11,22.57 C54.917872,22.6068059 54.7301655,22.6637883 54.55,22.74 C54.3694451,22.8192512 54.1955519,22.912886 54.03,23.02 C53.8662531,23.1255941 53.7152523,23.2497503 53.58,23.39 C53.4397272,23.5279605 53.3125185,23.6786025 53.2,23.84 C53.0965758,24.0060263 53.0063003,24.1798902 52.93,24.36 C52.8493017,24.5385097 52.792156,24.7267543 52.76,24.92 C52.5630587,25.9036156 52.8707734,26.9205754 53.58,27.63 C53.715491,27.769991 53.8664608,27.8941217 54.03,28 C54.1930934,28.1112139 54.3673755,28.2050581 54.55,28.28 C54.7301655,28.3562117 54.917872,28.4131941 55.11,28.45 C55.3042023,28.4894373 55.5018344,28.5095354 55.7,28.51 C57.3568542,28.51 58.7,27.1668542 58.7,25.51 C58.6999372,25.3118137 58.6798349,25.1141417 58.64,24.92 C58.5987549,24.7289954 58.5418972,24.5416995 58.47,24.36 Z" id="Shape"></path>
                    <path d="M29.13,44.77 C28.939029,44.8113749 28.7517437,44.8682293 28.57,44.94 C28.3885039,45.017308 28.2144477,45.1110306 28.05,45.22 C27.8877625,45.3318347 27.7340105,45.4555047 27.59,45.59 C27.0251364,46.1529056 26.7076343,46.9175456 26.7076343,47.715 C26.7076343,48.5124544 27.0251364,49.2770944 27.59,49.84 C28.7636051,51.0108435 30.6641562,51.0086048 31.8349998,49.8349998 C33.0058434,48.6613948 33.0036049,46.7608437 31.83,45.59 C31.1163772,44.8947411 30.1097394,44.5890215 29.13,44.77 Z" id="Shape"></path>
                    <path d="M51.43,13.09 C51.3967607,12.9986434 51.3531417,12.9114054 51.3,12.83 C51.2420431,12.7490461 51.1785584,12.6721962 51.11,12.6 C50.5138099,12.0411795 49.5861901,12.0411795 48.99,12.6 C48.8490126,12.7401795 48.7368954,12.9066565 48.66,13.09 C48.6275213,13.181574 48.6008025,13.2750899 48.58,13.37 C48.5694296,13.4663777 48.5694296,13.5636223 48.58,13.66 C48.5811479,13.8551631 48.618444,14.0484245 48.69,14.23 C48.7668954,14.4133435 48.8790126,14.5798205 49.02,14.72 C49.1584603,14.8584435 49.3211559,14.9702967 49.5,15.05 C49.6852672,15.1208182 49.8816685,15.1580667 50.08,15.16 C50.2751859,15.1590843 50.4684897,15.1217801 50.65,15.05 C51.0197365,14.8939522 51.3139522,14.5997365 51.47,14.23 C51.5420071,14.0485559 51.5793197,13.8552089 51.58,13.66 C51.5905704,13.5636223 51.5905704,13.4663777 51.58,13.37 C51.5418198,13.2708006 51.4914319,13.1767432 51.43,13.09 Z" id="Shape"></path>
                    <path d="M26.82,68.03 C26.5376781,68.3104068 26.3792439,68.6920891 26.38,69.09 C26.3792935,69.2863428 26.4201913,69.4806078 26.5,69.66 C26.5714866,69.8437806 26.6804674,70.0106575 26.82,70.15 C26.959886,70.2888621 27.1266147,70.3977462 27.31,70.47 C27.4893922,70.5498087 27.6836572,70.5907065 27.88,70.59 C28.2776907,70.5896499 28.6589653,70.431385 28.94,70.15 C29.2242372,69.8708827 29.3830215,69.4883568 29.38,69.09 C29.3796499,68.6923093 29.221385,68.3110347 28.94,68.03 C28.3438099,67.4711795 27.4161901,67.4711795 26.82,68.03 Z" id="Shape"></path>
                    <path d="M48.22,45.17 L47.96,45.03 L47.68,44.95 C47.4853827,44.9098485 47.2846173,44.9098485 47.09,44.95 L46.81,45.03 L46.55,45.17 C46.4687101,45.2275191 46.3918296,45.291029 46.32,45.36 C45.7350932,45.9456351 45.7350932,46.8943649 46.32,47.48 C46.459886,47.6188621 46.6266147,47.7277462 46.81,47.8 C46.9893922,47.8798087 47.1836572,47.9207065 47.38,47.92 C47.5795598,47.9206214 47.7770703,47.8797572 47.96,47.8 C48.14048,47.7278125 48.30395,47.6188325 48.44,47.48 C48.7252162,47.2015448 48.8841816,46.8185826 48.88,46.42 C48.8774883,46.0227442 48.7195509,45.6422584 48.44,45.36 L48.22,45.17 Z" id="Shape"></path>
                    <path d="M20.43,42.35 C20.3988122,42.2577746 20.3550676,42.1702855 20.3,42.09 C20.2447429,42.0070047 20.1810727,41.9299302 20.11,41.86 C20.0381704,41.791029 19.9612899,41.7275191 19.88,41.67 L19.62,41.53 L19.34,41.45 C18.8498926,41.355108 18.3445606,41.5085792 17.99,41.86 C17.9189273,41.9299302 17.8552571,42.0070047 17.8,42.09 C17.745369,42.1721361 17.6985003,42.2591781 17.66,42.35 C17.6274457,42.4415498 17.6007255,42.5350705 17.58,42.63 C17.5693491,42.7263733 17.5693491,42.8236267 17.58,42.92 C17.5809157,43.1151859 17.6182199,43.3084897 17.69,43.49 C17.7666647,43.6734679 17.8788106,43.8399875 18.02,43.98 C18.1603441,44.120788 18.3267794,44.232877 18.51,44.31 C18.8758117,44.4568545 19.2841883,44.4568545 19.65,44.31 C19.832179,44.2309627 19.9982735,44.1191032 20.14,43.98 C20.2814668,43.8422392 20.3907392,43.6749157 20.46,43.49 C20.5398087,43.3106078 20.5807065,43.1163428 20.58,42.92 C20.5906509,42.8236267 20.5906509,42.7263733 20.58,42.63 C20.5419151,42.5307569 20.491521,42.436688 20.43,42.35 L20.43,42.35 Z" id="Shape"></path>
                    <path d="M28.66,14.68 C28.9410347,14.961385 29.3223093,15.1196499 29.72,15.12 C30.1172558,15.1174883 30.4977416,14.9595509 30.78,14.68 C30.9190825,14.5402924 31.0279981,14.3735153 31.1,14.19 C31.1798087,14.0106078 31.2207065,13.8163428 31.22,13.62 C31.2305704,13.5236223 31.2305704,13.4263777 31.22,13.33 C31.200858,13.2335187 31.1706587,13.1395653 31.13,13.05 C31.0953434,12.957384 31.0482446,12.8699148 30.99,12.79 C30.9415794,12.7049374 30.8809327,12.6274445 30.81,12.56 C30.2138099,12.0011795 29.2861901,12.0011795 28.69,12.56 C28.6190816,12.6300715 28.555425,12.7071296 28.5,12.79 C28.4450054,12.8719175 28.3981176,12.9589949 28.36,13.05 C28.3226014,13.1399278 28.2957554,13.2338885 28.28,13.33 C28.2694296,13.4263777 28.2694296,13.5236223 28.28,13.62 C28.2806803,13.8152089 28.3179929,14.0085559 28.39,14.19 C28.4510875,14.3676734 28.5424327,14.5334481 28.66,14.68 Z" id="Shape"></path>
                </g>
            </g>
            <g id="bottle">
                <g id="colors-3" transform="translate(115.000000, 36.000000)">
                    <path d="M188.85,144.99 C193.54442,144.99 197.35,148.79558 197.35,153.49 C197.35,158.18442 193.54442,161.99 188.85,161.99 C184.15558,161.99 180.35,158.18442 180.35,153.49 C180.35,148.79558 184.15558,144.99 188.85,144.99 L188.85,144.99 Z" id="Shape" stroke="#2E4D5C" stroke-width="3" fill="#27B2FF" stroke-linecap="round" stroke-linejoin="round"></path>
                    <path d="M178.17,185.28 C180.953607,185.275954 183.465372,186.949645 184.533417,189.520202 C185.601461,192.090758 185.015309,195.051608 183.048431,197.021348 C181.081554,198.991088 178.121561,199.581547 175.549453,198.517242 C172.977345,197.452938 171.300003,194.94361 171.3,192.16 C171.299996,188.364183 174.374187,185.285517 178.17,185.28 L178.17,185.28 Z" id="Shape" stroke="#2E4D5C" stroke-width="3" fill="#27B2FF" stroke-linecap="round" stroke-linejoin="round"></path>
                    <path d="M147.93,0.59 C155.584673,0.793690535 161.684134,7.05761731 161.684134,14.715 C161.684134,22.3723827 155.584673,28.6363095 147.93,28.84 L64.17,28.84 C56.5153269,28.6363095 50.4158657,22.3723827 50.4158657,14.715 C50.4158657,7.05761731 56.5153269,0.793690535 64.17,0.59 L147.93,0.59 Z" id="Shape" fill="#F2F4FF" opacity="0.5"></path>
                    <circle id="Oval" fill="#00AAFF" cx="150.92" cy="165.01" r="5.87"></circle>
                    <path d="M145.05,58.4 C167.739453,66.8298025 186.772096,82.919654 198.86,103.89 C174.35,96.46 150.86,111.59 126.79,127.06 C101.05,106.84 25.05,80.68 8.62,113.16 C19.4,88.25 40.62,68.39 67.05,58.4 L145.05,58.4 Z" id="Shape" fill="#F2F4FF" opacity="0.5"></path>
                    <rect id="Rectangle-path" fill="#F2F4FF" opacity="0.5" x="67.05" y="28.84" width="78" height="29.56"></rect>
                    <ellipse id="Oval" fill="#00AAFF" cx="103.42" cy="222.89" rx="5.86" ry="5.87"></ellipse>
                    <path d="M126.79,127.06 C119.94,131.47 113.04,135.9 106.05,139.84 C63.55,163.84 1.05,156.93 8.62,113.16 C25.05,80.68 101.05,106.84 126.79,127.06 Z M73.05,118.54 C73.0540466,116.702837 71.9504805,115.044321 70.2543231,114.338464 C68.5581657,113.632606 66.6037928,114.018557 65.3032876,115.316198 C64.0027824,116.613838 63.6125229,118.567355 64.3146387,120.265065 C65.0167545,121.962775 66.6728324,123.069996 68.51,123.07 C71.0134727,123.070006 73.0444857,121.043467 73.05,118.54 L73.05,118.54 Z" id="Shape" fill="url(#linearGradient-1)"></path>
                    <path d="M68.51,114 C70.3471632,113.995953 72.0056785,115.09952 72.7115362,116.795677 C73.4173938,118.491834 73.0314429,120.446207 71.7338023,121.746712 C70.4361616,123.047218 68.4826446,123.437477 66.7849348,122.735361 C65.0872251,122.033246 63.9800045,120.377168 63.98,118.54 C63.9799939,116.036527 66.0065334,114.005514 68.51,114 L68.51,114 Z" id="Shape" fill="#31BBF7"></path>
                    <path d="M50.05,192.16 C54.7444204,192.16 58.55,195.96558 58.55,200.66 C58.55,205.35442 54.7444204,209.16 50.05,209.16 C45.3555796,209.16 41.55,205.35442 41.55,200.66 C41.55,195.96558 45.3555796,192.16 50.05,192.16 Z" id="Shape" fill="#52CAFF"></path>
                    <path d="M8.62,113.16 C1.05,156.93 63.55,163.84 106.05,139.84 C113.05,135.9 119.94,131.47 126.79,127.06 C150.87,111.59 174.35,96.46 198.86,103.89 C207.024831,118.207668 211.31272,134.407891 211.3,150.89 C211.3,188.36 189.39,220.99 157.02,237.96 C158.838477,239.415073 160.464818,241.095178 161.86,242.96 C162.987321,244.503726 163.150562,246.550282 162.282205,248.25319 C161.413849,249.956099 159.661519,251.025856 157.75,251.02 L54.34,251.02 C52.4459372,251.01715 50.7114037,249.958778 49.8425435,248.275756 C48.9736833,246.592733 49.1154002,244.565747 50.21,243.02 C51.0269724,241.919906 51.9226553,240.880513 52.89,239.91 C53.5805957,239.201426 54.3118312,238.533631 55.08,237.91 C22.71,220.91 0.8,188.31 0.8,150.84 C0.792622429,137.876375 3.45455676,125.050072 8.62,113.16 L8.62,113.16 Z M197.35,153.49 C197.35,148.79558 193.54442,144.99 188.85,144.99 C184.15558,144.99 180.35,148.79558 180.35,153.49 C180.35,158.18442 184.15558,161.99 188.85,161.99 C193.54442,161.99 197.35,158.18442 197.35,153.49 L197.35,153.49 Z M185.05,192.16 C185.054046,189.376393 183.380355,186.864628 180.809798,185.796583 C178.239242,184.728539 175.278392,185.314691 173.308652,187.281569 C171.338912,189.248446 170.748453,192.208439 171.812758,194.780547 C172.877062,197.352655 175.38639,199.029997 178.17,199.03 C181.965817,199.030004 185.044483,195.955813 185.05,192.16 L185.05,192.16 Z M156.79,165.01 C156.79,161.768089 154.161911,159.14 150.92,159.14 C147.678089,159.14 145.05,161.768089 145.05,165.01 C145.05,168.251911 147.678089,170.88 150.92,170.88 C154.161911,170.88 156.79,168.251911 156.79,165.01 L156.79,165.01 Z M109.29,222.89 C109.29,219.648089 106.661911,217.02 103.42,217.02 C100.178089,217.02 97.55,219.648089 97.55,222.89 C97.55,226.131911 100.178089,228.76 103.42,228.76 C106.661911,228.76 109.29,226.131911 109.29,222.89 Z M58.55,200.68 C58.55,195.98558 54.7444204,192.18 50.05,192.18 C45.3555796,192.18 41.55,195.98558 41.55,200.68 C41.55,205.37442 45.3555796,209.18 50.05,209.18 C54.7444204,209.18 58.55,205.37442 58.55,200.68 Z" id="Shape" fill="url(#linearGradient-2)"></path>
                </g>
                <g id="shadows-3" transform="translate(115.000000, 36.000000)">
                    <circle id="Oval" fill="#FFFFFF" opacity="0.75" cx="73.64" cy="12.76" r="3.47"></circle>
                    <circle id="Oval" fill="#FFFFFF" opacity="0.75" cx="63.12" cy="11.34" r="4.88"></circle>
                    <path d="M93.8,28.84 L78.3,28.84 L78.3,40.84 C78.3,45.5344204 82.1055796,49.34 86.8,49.34 C91.4944204,49.34 95.3,45.5344204 95.3,40.84 L95.3,28.84 L93.8,28.84 Z" id="Shape" fill="#FFFFFF" opacity="0.35"></path>
                    <path d="M138.46,0.59 C138.474786,0.719579564 138.474786,0.850420436 138.46,0.98 L73.68,0.98 C73.665214,0.850420436 73.665214,0.719579564 73.68,0.59 L138.46,0.59 Z" id="Shape" fill="#000000" opacity="0.15"></path>
                    <polygon id="Shape" fill="#000000" opacity="0.15" points="17.21 99.42 9.44 112.53 9.88 110.98"></polygon>
                    <polygon id="Shape" fill="#000000" opacity="0.15" points="45 69.9 23.98 88.72 24.4 88.06 44.16 70.37"></polygon>
                    <path d="M152.58,237.91 C187.042182,219.242202 207.089352,181.856571 203.568978,142.821515 C200.048604,103.786459 173.636064,70.5907947 136.39,58.39 L151.22,60.95 L167.94,70.36 L187.69,88.05 L202.21,110.98 L210.74,140.59 L211.3,165 L203.48,188.52 L191.33,209.15 L177.43,223.94 L161.89,234.94 L152.58,237.91 Z" id="Shape" fill="#FFFFFF" opacity="0.1"></path>
                    <path d="M138.42,0.98 C136.75,10.2 75.35,10.2 73.68,0.98 L138.42,0.98 Z" id="Shape" fill="#000000" opacity="0.15"></path>
                    <polygon id="Shape" fill="#FFFFFF" opacity="0.25" points="154.81 2.41 147.11 0.98 147.92 0.98"></polygon>
                    <path d="M156.34,5.02 L154.82,2.42 L154.82,2.42 L147.12,0.99 L138.43,0.99 C136.76,10.21 75.36,10.21 73.69,0.99 L64.15,0.99 L57.26,2.42 L55.05,6.13 C56.0497374,6.67635866 57.0854581,7.15412663 58.15,7.56 C74.8,14.06 116.15,15.16 141.07,10.84 C145.433169,10.1654703 149.720135,9.06693518 153.87,7.56 C154.93453,7.1540982 155.970249,6.67633111 156.97,6.13 L156.34,5.02 Z" id="Shape" fill="url(#linearGradient-3)" opacity="0.5"></path>
                    <path d="M162.05,14.68 L158.74,23.81 L149.97,28.81 L60.17,28.81 L53.73,24.2 L49.55,14.68 L54.47,3.85 L61.95,0.94 C59.052026,2.36257392 56.6786827,4.66590708 55.17,7.52 C53.9949288,9.72321937 53.3834148,12.1830169 53.39,14.68 L53.39,14.74 C53.39,18.93 59.24,23.25 63.05,23.4 C71.93,23.73 88.98,23.61 106.22,23.6 C110.42,23.6 114.62,23.6 118.69,23.6 C122.76,23.6 126.69,23.53 130.38,23.45 C144.22,23.45 141.09,10.83 141.09,10.83 C145.453169,10.1554703 149.740135,9.05693518 153.89,7.55 C154.95453,7.1440982 155.990249,6.66633111 156.99,6.12 L156.34,5.01 L154.82,2.41 L159.88,7.19 L162.05,14.68 Z" id="Shape" fill="#000000" opacity="0.1"></path>
                    <path d="M198.86,103.89 C176.05,217.02 75.05,221.06 18.05,205.06 L41.55,230.56 L55.05,237.91 L157.05,237.91 L171.33,230.3 L187.83,214.55 L203.58,189.8 L208.76,172.68 L211.3,149.33 L208.76,124.68 L198.86,103.89 Z" id="Shape" fill="url(#linearGradient-4)" opacity="0.07"></path>
                    <polygon id="Shape" fill="url(#linearGradient-5)" opacity="0.07" points="160.44 242.98 157.02 237.91 53.3 237.91 50.21 245.22 139.69 245.22 142.38 251.01 160.55 251.01 162.8 245.22 162.8 242.72"></polygon>
                    <polygon id="Shape" fill="#000000" opacity="0.15" points="23.97 88.73 17.27 99.31 23.05 89.56"></polygon>
                    <polygon id="Shape" fill="#000000" opacity="0.15" points="54.77 64.4 45.01 69.89 47.05 68.06"></polygon>
                    <path d="M14.05,117.99 C14.98,116.48 47.34,65.58 161.99,71.2 L153.99,66.06 L139.24,58.4 L75.7,58.4 L62.64,60.68 L54.83,64.39 L54.77,64.39 L45.05,69.89 L45.05,69.89 L24.05,88.71 L24.05,88.71 L17.35,99.29 L17.29,99.4 L9.52,112.51 L1.44,140.58 L0.88,164.99 L8.7,188.51 L20.85,209.14 L34.75,223.93 L50.29,234.93 L59.6,237.87 C16.8467179,214.699569 -2.52186341,163.737451 14.05,118.02 L14.05,117.99 Z" id="Shape" fill="url(#linearGradient-6)" opacity="0.07"></path>
                    <path d="M79.55,237.92 C72.62,244.85 76.38,251.73 76.38,251.73 L60.22,251.73 C54.3,245.81 65.52,237.92 65.52,237.92 L79.55,237.92 Z" id="Shape" fill="#FFFFFF" opacity="0.25"></path>
                    <circle id="Oval" fill="#FFFFFF" opacity="0.31" cx="176.59" cy="214.52" r="2.18"></circle>
                    <path d="M185.43,216.59 C147,237.92 65.52,237.92 27.05,216.59 L55.05,237.92 L157.05,237.92 L185.43,216.59 Z" id="Shape" fill="url(#linearGradient-7)" opacity="0.5"></path>
                    <path d="M162.05,15.39 L160.3,6.81 L155.65,6.81 L152.2,8.17 C161.29,21.68 146.61,28.24 139.79,28.84 L149.92,28.84 L160.04,23.94 L161.45,16.23 L161.33,15.5 L162.05,15.39 Z" id="Shape" fill="url(#linearGradient-8)" opacity="0.38"></path>
                    <path d="M137.05,58.4 L145.05,58.4 L145.05,28.84 L137.05,28.84 C140.383308,38.4114251 140.383308,48.8285749 137.05,58.4 L137.05,58.4 Z" id="Shape" fill="#FFFFFF" opacity="0.15"></path>
                    <path d="M95.3,28.84 L67.39,28.84 L67.39,52.23 L67.39,52.23 L67.39,58.4 L145.05,58.4 L145.05,28.84 L95.3,28.84 Z M116.52,52.2 L115.66,52.2 L79.26,52.2 C75.6922405,52.2 72.8,49.3077595 72.8,45.74 L72.8,45.74 C72.8,42.1722405 75.6922405,39.28 79.26,39.28 L95.26,39.28 L95.26,39.37 L115.86,39.37 C124.05,39.39 124.65,51.68 116.52,52.19 L116.52,52.2 Z" id="Shape" fill="#000000" opacity="0.1"></path>
                    <circle id="Oval" fill="#FFFFFF" opacity="0.15" cx="187.41" cy="153.48" r="4.16"></circle>
                    <circle id="Oval" fill="url(#linearGradient-9)" opacity="0.6" cx="123.34" cy="79.15" r="2.96"></circle>
                    <circle id="Oval" fill="#FFFFFF" opacity="0.15" cx="177.1" cy="190.96" r="2.97"></circle>
                    <circle id="Oval" fill="#FFFFFF" opacity="0.15" cx="102.13" cy="221.84" r="2.97"></circle>
                    <circle id="Oval" fill="#FFFFFF" opacity="0.15" cx="47.59" cy="200.23" r="4.53"></circle>
                    <circle id="Oval" fill="#FFFFFF" opacity="0.15" cx="149.43" cy="164.74" r="1.98"></circle>
                    <circle id="Oval" fill="#FFFFFF" opacity="0.15" cx="67.73" cy="117.75" r="1.2"></circle>
                    <path d="M102.25,79.39 L112.39,77.68 C114.060744,77.3920032 115.725013,78.2221135 116.5,79.73 L116.5,79.73 C116.994307,80.6902762 117.065993,81.8131295 116.697814,82.8284689 C116.329634,83.8438083 115.554913,84.65974 114.56,85.08 L105.1,89.08 C102.644319,90.1217215 99.8011979,89.0866681 98.59,86.71 L98.59,86.71 C97.8541976,85.2717908 97.8463281,83.5693516 98.5688031,82.1244016 C99.2912782,80.6794515 100.657951,79.6642836 102.25,79.39 L102.25,79.39 Z" id="Shape" fill="url(#linearGradient-10)" opacity="0.6"></path>
                    <path d="M171.5,220.98 C168.600816,223.36144 165.495203,225.479816 162.22,227.31 C160.551252,228.230292 158.456439,227.732558 157.38,226.16 L157.38,226.16 C156.240948,224.495236 156.640718,222.22543 158.28,221.05 C160.987286,219.133981 163.544685,217.014516 165.93,214.71 C166.819571,213.863378 168.036433,213.45077 169.25748,213.581734 C170.478526,213.712698 171.580207,214.373982 172.27,215.39 L172.27,215.39 C173.499482,217.171622 173.165377,219.597134 171.5,220.98 Z" id="Shape" fill="url(#linearGradient-11)" opacity="0.5"></path>
                </g>
                <g id="lines-3" transform="translate(0.000000, 33.000000)" fill="#3C5A78">
                    <path d="M401.05,251.01 L280.56,251.01 C281.213638,248.646869 280.737393,246.114278 279.27,244.15 C278.594874,243.241023 277.870455,242.369718 277.1,241.54 C309.41,223 329.31,189.76 329.31,153.83 C329.303427,132.881626 322.596668,112.484529 310.17,95.62 C298.197564,79.3311109 281.862174,66.7606259 263.05,59.36 L263.05,34.83 C272.505115,34.7968624 280.143136,27.1051145 280.109999,17.65 C280.076862,8.19488547 272.385115,0.556863462 262.93,0.59 L179.18,0.59 C169.724885,0.556863462 162.033138,8.19488547 162.000001,17.65 C161.966864,27.1051145 169.604885,34.7968624 179.06,34.83 L179.06,59.36 C160.25148,66.7622526 143.919731,79.3326033 131.95,95.62 C127.592343,101.580746 123.903499,108.002689 120.95,114.77 L120.95,114.77 L120.95,114.86 C115.590729,127.163093 112.829746,140.440321 112.84,153.86 C112.84,189.79 132.73,223.03 165.04,241.56 C164.258616,242.398821 163.524164,243.280163 162.84,244.2 C161.386067,246.159005 160.917431,248.679303 161.57,251.03 L13.05,251.03 C11.3931458,251.03 10.05,252.373146 10.05,254.03 C10.05,255.686854 11.3931458,257.03 13.05,257.03 L401.05,257.03 C402.706854,257.03 404.05,255.686854 404.05,254.03 C404.05,252.373146 402.706854,251.03 401.05,251.03 L401.05,251.01 Z M185.05,58.4 L185.05,34.84 L257.05,34.84 L257.05,58.4 L185.05,58.4 Z M168.05,17.68 C168.061022,11.5392615 173.039254,6.56550245 179.18,6.56 L262.93,6.56 C268.944337,6.7403377 273.726421,11.6679602 273.726421,17.685 C273.726421,23.7020398 268.944337,28.6296623 262.93,28.81 L179.18,28.81 C173.035356,28.8044866 168.055513,23.8246441 168.05,17.68 Z M182.63,64.36 L188.18,64.36 L177.05,75.51 C176.648694,75.8839412 176.483502,76.4471111 176.619229,76.9785778 C176.754956,77.5100446 177.169955,77.9250438 177.701422,78.0607711 C178.232889,78.1964984 178.796059,78.0313064 179.17,77.63 L192.41,64.39 L196.92,64.39 L189.05,72.3 C188.648694,72.6739412 188.483502,73.2371111 188.619229,73.7685778 C188.754956,74.3000446 189.169955,74.7150438 189.701422,74.8507711 C190.232889,74.9864984 190.796059,74.8213064 191.17,74.42 L201.17,64.42 L259.46,64.42 C277.7791,71.3364545 293.701276,83.4135496 305.3,99.19 C306.086667,100.27 306.846667,101.36 307.58,102.46 C284.94,99.25 263.11,112.83 241.92,126.46 C220.81,110.94 172.31,92.75 142.92,99.27 C140.171909,99.8717066 137.491635,100.749497 134.92,101.89 C135.53,100.99 136.15,100.1 136.79,99.22 C148.381696,83.4250729 164.304575,71.3300759 182.63,64.4 L182.63,64.36 Z M126.5,117.08 C129.75,110.98 135.72,106.93 144.27,105.08 C156.96,102.27 175.13,104.27 195.42,110.73 C211.06,115.73 226.34,122.87 236.51,129.91 C230.94,133.47 225.25,137.05 219.58,140.25 C191.81,155.93 155.67,158.06 137.3,145.1 C128.15,138.62 124.52,129.21 126.5,117.12 L126.5,117.08 Z M169.34,250.97 C168.538319,250.97273 167.805028,250.518788 167.45,249.8 C167.098566,249.137113 167.160874,248.331008 167.61,247.73 C168.337946,246.749535 169.136751,245.823723 170,244.96 C170.39,244.57 170.78,244.22 171.17,243.88 L205.17,243.88 C206.826854,243.88 208.17,242.536854 208.17,240.88 C208.17,239.223146 206.826854,237.88 205.17,237.88 L170.84,237.88 C138.72,220.76 118.84,188.62 118.84,153.81 C118.824657,146.69666 119.636781,139.605677 121.26,132.68 C123.307493,139.72399 127.758783,145.827706 133.84,149.93 C142.84,156.28 155.61,159.39 169.63,159.39 C188.158623,159.235336 206.350465,154.42086 222.53,145.39 C229.53,141.39 236.59,136.91 243.37,132.55 L243.46,132.49 L243.56,132.42 C266.97,117.42 289.11,103.17 311.84,109.42 C319.359712,123.010165 323.303082,138.288141 323.3,153.82 C323.3,188.63 303.37,220.82 271.3,237.89 L258,237.89 L259.8,236.09 C260.350718,235.49898 260.334468,234.577981 259.763244,234.006756 C259.192019,233.435532 258.27102,233.419282 257.68,233.97 L253.75,237.9 L248.99,237.9 L266.63,220.26 C267.180718,219.66898 267.164468,218.747981 266.593244,218.176756 C266.022019,217.605532 265.10102,217.589282 264.51,218.14 L244.75,237.9 L240.42,237.9 C238.763146,237.9 237.42,239.243146 237.42,240.9 C237.42,242.556854 238.763146,243.9 240.42,243.9 L270.95,243.9 C272.26436,245.048653 273.45424,246.332384 274.5,247.73 C274.950662,248.340993 275.016515,249.154474 274.67,249.83 C274.318395,250.547207 273.588755,251.001292 272.79,251 L169.34,250.97 Z" id="Shape"></path>
                    <path d="M293.18,203.53 C296.57121,203.534044 299.630562,201.493807 300.930191,198.361509 C302.22982,195.229212 301.513498,191.622401 299.115549,189.224451 C296.717599,186.826502 293.110788,186.11018 289.978491,187.409809 C286.846193,188.709438 284.805956,191.76879 284.81,195.16 C284.81551,199.780339 288.559661,203.52449 293.18,203.53 L293.18,203.53 Z M293.18,189.78 C295.356912,189.775954 297.321723,191.08418 298.157596,193.094225 C298.99347,195.104269 298.535651,197.419941 296.997772,198.960685 C295.459892,200.501428 293.145076,200.963554 291.133479,200.131421 C289.121883,199.299289 287.810004,197.336916 287.81,195.16 C287.809995,192.192609 290.212614,189.785516 293.18,189.78 Z" id="Shape"></path>
                    <path d="M225.79,225.89 C225.79,221.819661 222.490339,218.52 218.42,218.52 C214.349661,218.52 211.05,221.819661 211.05,225.89 C211.05,229.960339 214.349661,233.26 218.42,233.26 C222.488055,233.254491 225.784491,229.958055 225.79,225.89 L225.79,225.89 Z M214.05,225.89 C214.05,223.476516 216.006516,221.52 218.42,221.52 C220.833484,221.52 222.79,223.476516 222.79,225.89 C222.79,228.303484 220.833484,230.26 218.42,230.26 C216.006516,230.26 214.05,228.303484 214.05,225.89 Z" id="Shape"></path>
                    <path d="M265.92,175.37 C269.990339,175.37 273.29,172.070339 273.29,168 C273.29,163.929661 269.990339,160.63 265.92,160.63 C261.849661,160.63 258.55,163.929661 258.55,168 C258.555509,172.068055 261.851945,175.364491 265.92,175.37 L265.92,175.37 Z M265.92,163.63 C268.333484,163.63 270.29,165.586516 270.29,168 C270.29,170.413484 268.333484,172.37 265.92,172.37 C263.506516,172.37 261.55,170.413484 261.55,168 C261.577392,165.606064 263.525908,163.679843 265.92,163.68 L265.92,163.63 Z" id="Shape"></path>
                    <path d="M183.51,127.57 C186.823708,127.57 189.51,124.883708 189.51,121.57 C189.51,118.256292 186.823708,115.57 183.51,115.57 C180.196292,115.57 177.51,118.256292 177.51,121.57 C177.51,124.883708 180.196292,127.57 183.51,127.57 Z M183.51,118.5 C185.166854,118.5 186.51,119.843146 186.51,121.5 C186.51,123.156854 185.166854,124.5 183.51,124.5 C181.853146,124.5 180.51,123.156854 180.51,121.5 C180.51,119.843146 181.853146,118.5 183.51,118.5 L183.51,118.5 Z" id="Shape"></path>
                    <path d="M165.05,193.68 C159.527153,193.68 155.05,198.157153 155.05,203.68 C155.05,209.202847 159.527153,213.68 165.05,213.68 C170.572847,213.68 175.05,209.202847 175.05,203.68 C175.05,198.157153 170.572847,193.68 165.05,193.68 Z M165.05,210.68 C161.184007,210.68 158.05,207.545993 158.05,203.68 C158.05,199.814007 161.184007,196.68 165.05,196.68 C168.915993,196.68 172.05,199.814007 172.05,203.68 C172.05,207.545993 168.915993,210.68 165.05,210.68 Z" id="Shape"></path>
                    <path d="M303.85,166.48 C309.372847,166.48 313.85,162.002847 313.85,156.48 C313.85,150.957153 309.372847,146.48 303.85,146.48 C298.327153,146.48 293.85,150.957153 293.85,156.48 C293.85,162.002847 298.327153,166.48 303.85,166.48 L303.85,166.48 Z M303.85,149.48 C307.715993,149.48 310.85,152.614007 310.85,156.48 C310.85,160.345993 307.715993,163.48 303.85,163.48 C299.984007,163.48 296.85,160.345993 296.85,156.48 C296.85,152.614007 299.984007,149.48 303.85,149.48 L303.85,149.48 Z" id="Shape"></path>
                    <path d="M186.12,181.4 C185.927872,181.436806 185.740166,181.493788 185.56,181.57 C185.375492,181.640899 185.200755,181.734988 185.04,181.85 C184.871149,181.95269 184.716496,182.077085 184.58,182.22 C184.442591,182.35785 184.318692,182.508538 184.21,182.67 C184.103033,182.835639 184.009405,183.00952 183.93,183.19 C183.858187,183.371729 183.801332,183.559018 183.76,183.75 C183.679415,184.139206 183.679415,184.540794 183.76,184.93 C183.801332,185.120982 183.858187,185.308271 183.93,185.49 C184.009251,185.670555 184.102886,185.844448 184.21,186.01 C184.321971,186.168992 184.445648,186.31941 184.58,186.46 C185.75127,187.629814 187.64873,187.629814 188.82,186.46 C188.960315,186.322079 189.087527,186.171433 189.2,186.01 C189.307687,185.846439 189.398169,185.672179 189.47,185.49 C189.549426,185.310145 189.609757,185.12245 189.65,184.93 C189.664936,184.733617 189.664936,184.536383 189.65,184.34 C189.648984,183.443306 189.246911,182.594078 188.553944,182.024993 C187.860977,181.455908 186.949777,181.226638 186.07,181.4 L186.12,181.4 Z" id="Shape"></path>
                    <path d="M204.72,139.37 C206.376854,139.37 207.72,138.026854 207.72,136.37 C207.7193,135.574619 207.40277,134.812069 206.84,134.25 C206.127875,133.544929 205.114833,133.234662 204.13,133.42 C203.937569,133.460315 203.749882,133.520643 203.57,133.6 C203.386976,133.669962 203.212518,133.760546 203.05,133.87 C202.885167,133.982064 202.731164,134.109284 202.59,134.25 C201.738958,135.110149 201.487965,136.397362 201.953509,137.514232 C202.419054,138.631102 203.509988,139.35896 204.72,139.36 L204.72,139.37 Z" id="Shape"></path>
                    <path d="M145.38,124.54 C145.577937,124.535523 145.775214,124.515461 145.97,124.48 C146.16245,124.439757 146.350145,124.379426 146.53,124.3 C146.712179,124.228169 146.886439,124.137687 147.05,124.03 C147.210646,123.920216 147.361236,123.796398 147.5,123.66 C147.642467,123.520435 147.769836,123.366251 147.88,123.2 C147.989529,123.037526 148.080117,122.863059 148.15,122.68 C148.226142,122.499809 148.283122,122.31211 148.32,122.12 C148.359777,121.929226 148.379882,121.734876 148.38,121.54 C148.380285,121.341796 148.360179,121.144089 148.32,120.95 C148.283194,120.757872 148.226212,120.570166 148.15,120.39 C148.080038,120.206976 147.989454,120.032518 147.88,119.87 C147.766855,119.705981 147.639713,119.552072 147.5,119.41 C147.360962,119.273908 147.210399,119.150112 147.05,119.04 C146.886226,118.932676 146.712004,118.842214 146.53,118.77 C146.350145,118.690574 146.16245,118.630243 145.97,118.59 C145.583171,118.519662 145.186829,118.519662 144.8,118.59 C144.607569,118.630315 144.419882,118.690643 144.24,118.77 C144.056208,118.838239 143.881551,118.928926 143.72,119.04 C143.556229,119.149763 143.402316,119.273563 143.26,119.41 C143.123212,119.552007 142.999386,119.705953 142.89,119.87 C142.781078,120.034476 142.687358,120.208528 142.61,120.39 C142.538636,120.571885 142.481792,120.759138 142.44,120.95 C142.399751,121.144078 142.379644,121.341793 142.38,121.54 C142.3807,122.335381 142.69723,123.097931 143.26,123.66 C143.825116,124.218201 144.585703,124.533917 145.38,124.54 L145.38,124.54 Z" id="Shape"></path>
                    <path d="M238.11,154.09 C238.304202,154.129437 238.501834,154.149535 238.7,154.15 C238.894876,154.149882 239.089226,154.129777 239.28,154.09 C239.476338,154.05729 239.66782,154.000181 239.85,153.92 C240.027832,153.845642 240.198534,153.75527 240.36,153.65 C240.526251,153.539836 240.680435,153.412467 240.82,153.27 C240.959679,153.134221 241.083779,152.983288 241.19,152.82 C241.298969,152.655552 241.392692,152.481496 241.47,152.3 C241.541771,152.118256 241.598625,151.930971 241.64,151.74 C241.719489,151.35405 241.719489,150.95595 241.64,150.57 C241.598668,150.379018 241.541813,150.191729 241.47,150.01 C241.394927,149.827438 241.301089,149.653169 241.19,149.49 C241.083656,149.323743 240.959598,149.169508 240.82,149.03 C239.629588,147.907391 237.770412,147.907391 236.58,149.03 C236.437533,149.169565 236.310164,149.323749 236.2,149.49 C236.092496,149.653669 236.002025,149.82791 235.93,150.01 C235.849407,150.188549 235.792266,150.37678 235.76,150.57 C235.720292,150.760784 235.700188,150.955127 235.7,151.15 C235.7007,151.945381 236.01723,152.707931 236.58,153.27 C236.71819,153.410026 236.868808,153.537214 237.03,153.65 C237.195944,153.753568 237.36982,153.843849 237.55,153.92 C237.728705,154.000179 237.916881,154.057304 238.11,154.09 L238.11,154.09 Z" id="Shape"></path>
                    <path d="M268.13,148.91 C268.295639,149.016967 268.46952,149.110595 268.65,149.19 C268.831744,149.261771 269.019029,149.318625 269.21,149.36 C269.404142,149.399835 269.601814,149.419937 269.8,149.42 C269.998166,149.419535 270.195798,149.399437 270.39,149.36 C270.581016,149.318799 270.768315,149.26194 270.95,149.19 C271.128376,149.112808 271.299123,149.019065 271.46,148.91 C271.626257,148.803656 271.780492,148.679598 271.92,148.54 C272.059254,148.400183 272.183281,148.245987 272.29,148.08 C272.39877,147.918943 272.492497,147.748224 272.57,147.57 C272.643258,147.385348 272.700144,147.194614 272.74,147 C272.779777,146.809226 272.799882,146.614876 272.8,146.42 C272.799535,146.221834 272.779437,146.024202 272.74,145.83 C272.703194,145.637872 272.646212,145.450166 272.57,145.27 C272.489979,145.089822 272.396376,144.915988 272.29,144.75 C272.183514,144.586906 272.059437,144.436001 271.92,144.3 C270.72762,143.182359 268.87238,143.182359 267.68,144.3 C267.539934,144.438152 267.412742,144.588774 267.3,144.75 C267.196468,144.915965 267.106188,145.089838 267.03,145.27 C266.953788,145.450166 266.896806,145.637872 266.86,145.83 C266.820563,146.024202 266.800465,146.221834 266.8,146.42 C266.8007,147.215381 267.11723,147.977931 267.68,148.54 C267.81785,148.677409 267.968538,148.801308 268.13,148.91 L268.13,148.91 Z" id="Shape"></path>
                    <path d="M5.78,252.86 C5.70224763,252.681899 5.60853185,252.511202 5.5,252.35 C5.39023667,252.186229 5.26643681,252.032316 5.13,251.89 C4.99098173,251.749857 4.83668397,251.625748 4.67,251.52 C4.50786407,251.407219 4.33340552,251.31328 4.15,251.24 C3.96983449,251.163788 3.78212799,251.106806 3.59,251.07 C2.60638436,250.873059 1.58942462,251.180773 0.88,251.89 C0.740164186,252.029295 0.616083862,252.183557 0.51,252.35 C0.401133335,252.510998 0.307400294,252.681726 0.23,252.86 C0.158102785,253.0417 0.101245122,253.228995 0.06,253.42 C0.0205627461,253.614202 0.000464571543,253.811834 0,254.01 C0.000464571543,254.208166 0.0205627461,254.405798 0.06,254.6 C0.101331855,254.790982 0.158187388,254.978271 0.23,255.16 C0.30925125,255.340555 0.402886043,255.514448 0.51,255.68 C0.618981333,255.841247 0.742858033,255.991908 0.88,256.13 C1.44290562,256.694864 2.20754557,257.012366 3.005,257.012366 C3.80245443,257.012366 4.56709438,256.694864 5.13,256.13 C5.26379733,255.988919 5.38743969,255.838543 5.5,255.68 C5.60678747,255.514255 5.700408,255.340389 5.78,255.16 C5.85181261,254.978271 5.90866815,254.790982 5.95,254.6 C5.98943725,254.405798 6.00953543,254.208166 6.01,254.01 C6.00953543,253.811834 5.98943725,253.614202 5.95,253.42 C5.90875488,253.228995 5.85189721,253.0417 5.78,252.86 L5.78,252.86 Z" id="Shape"></path>
                    <path d="M412.67,251.68 C412.505402,251.57409 412.331321,251.483702 412.15,251.41 C411.969834,251.333788 411.782128,251.276806 411.59,251.24 C411.204108,251.159947 410.805892,251.159947 410.42,251.24 C410.22789,251.276878 410.040191,251.333858 409.86,251.41 C409.678751,251.483857 409.504684,251.574239 409.34,251.68 C409.173291,251.789544 409.019044,251.916966 408.88,252.06 C408.320896,252.623703 408.008045,253.386051 408.01,254.18 C407.994657,254.373029 407.994657,254.566971 408.01,254.76 C408.050206,254.955693 408.110527,255.146707 408.19,255.33 C408.259595,255.510043 408.350224,255.68123 408.46,255.84 C408.569212,256.004175 408.69305,256.158136 408.83,256.3 C409.392069,256.86277 410.154619,257.1793 410.95,257.18 C411.745381,257.1793 412.507931,256.86277 413.07,256.3 C413.212917,256.160849 413.340328,256.006614 413.45,255.84 C413.559461,255.681039 413.65007,255.50989 413.72,255.33 C413.799473,255.146707 413.859794,254.955693 413.9,254.76 C413.93204,254.568301 413.94876,254.374354 413.95,254.18 C413.9493,253.384619 413.63277,252.622069 413.07,252.06 C412.950147,251.91986 412.816098,251.792514 412.67,251.68 Z" id="Shape"></path>
                    <path d="M149.82,168.53 C149.744419,168.347679 149.650609,168.17346 149.54,168.01 C149.433281,167.844013 149.309254,167.689817 149.17,167.55 C147.97568,166.437275 146.12432,166.437275 144.93,167.55 C144.787255,167.689309 144.65986,167.843524 144.55,168.01 C144.442313,168.173561 144.351831,168.347821 144.28,168.53 C144.203858,168.710191 144.146878,168.89789 144.11,169.09 C144.070223,169.280774 144.050118,169.475124 144.05,169.67 C144.049644,169.868207 144.069751,170.065922 144.11,170.26 C144.146806,170.452128 144.203788,170.639834 144.28,170.82 C144.353514,171.003296 144.447439,171.177729 144.56,171.34 C144.663672,171.50514 144.788012,171.656364 144.93,171.79 C145.786657,172.645613 147.073667,172.90241 148.193093,172.441084 C149.312519,171.979758 150.044909,170.890748 150.05,169.68 C150.049882,169.485124 150.029777,169.290774 149.99,169.1 C149.949154,168.905636 149.892293,168.714985 149.82,168.53 L149.82,168.53 Z" id="Shape"></path>
                    <path d="M162.28,141.49 C162.359251,141.670555 162.452886,141.844448 162.56,142.01 C162.66957,142.170806 162.793404,142.321415 162.93,142.46 C163.492069,143.02277 164.254619,143.3393 165.05,143.34 C165.248166,143.339535 165.445798,143.319437 165.64,143.28 C165.832164,143.24334 166.019886,143.186353 166.2,143.11 C166.38024,143.03667 166.551381,142.942711 166.71,142.83 C166.878277,142.726493 167.032829,142.602179 167.17,142.46 C167.306596,142.321415 167.43043,142.170806 167.54,142.01 C167.646787,141.844255 167.740408,141.670389 167.82,141.49 C167.891813,141.308271 167.948668,141.120982 167.99,140.93 C168.070585,140.540794 168.070585,140.139206 167.99,139.75 C167.948668,139.559018 167.891813,139.371729 167.82,139.19 C167.740226,139.009701 167.646613,138.835848 167.54,138.67 C167.430696,138.508995 167.306843,138.358363 167.17,138.22 C165.97762,137.102359 164.12238,137.102359 162.93,138.22 C162.790072,138.35555 162.665948,138.506512 162.56,138.67 C162.449332,138.833425 162.355519,139.007649 162.28,139.19 C162.203788,139.370166 162.146806,139.557872 162.11,139.75 C162.031882,140.139455 162.031882,140.540545 162.11,140.93 C162.146806,141.122128 162.203788,141.309834 162.28,141.49 L162.28,141.49 Z" id="Shape"></path>
                    <path d="M262.83,230.51 C262.752506,230.453596 262.668584,230.4066 262.58,230.37 C262.48675,230.329933 262.38955,230.299768 262.29,230.28 C262.098726,230.240096 261.901274,230.240096 261.71,230.28 C261.613605,230.299476 261.519689,230.329663 261.43,230.37 C261.250042,230.448738 261.084445,230.556883 260.94,230.69 C260.871029,230.76183 260.807519,230.83871 260.75,230.92 C260.69646,231.001176 260.652817,231.088462 260.62,231.18 C260.580112,231.269861 260.54994,231.363727 260.53,231.46 C260.520818,231.556449 260.520818,231.653551 260.53,231.75 C260.53035,232.147691 260.688615,232.528965 260.97,232.81 C261.249117,233.094237 261.631643,233.253022 262.03,233.25 C262.858427,233.25 263.53,232.578427 263.53,231.75 C263.519571,231.343485 263.346688,230.9581 263.05,230.68 C262.98494,230.613366 262.910891,230.556146 262.83,230.51 Z" id="Shape"></path>
                    <path d="M236.93,103.88 C237.327691,103.87965 237.708965,103.721385 237.99,103.44 L251.32,90.11 C251.870718,89.5189805 251.854468,88.5979806 251.283244,88.0267564 C250.712019,87.4555322 249.79102,87.4392823 249.2,87.99 L235.87,101.32 C235.441559,101.748974 235.313484,102.393684 235.545426,102.953847 C235.777368,103.51401 236.323717,103.879467 236.93,103.88 L236.93,103.88 Z" id="Shape"></path>
                    <path d="M248.94,98.74 C249.525635,99.3249068 250.474365,99.3249068 251.06,98.74 L263.24,86.56 C263.641306,86.1860588 263.806498,85.6228889 263.670771,85.0914222 C263.535044,84.5599554 263.120045,84.1449562 262.588578,84.0092289 C262.057111,83.8735016 261.493941,84.0386936 261.12,84.44 L248.94,96.62 C248.355093,97.2056351 248.355093,98.1543649 248.94,98.74 L248.94,98.74 Z" id="Shape"></path>
                    <path d="M229.38,237.91 L217.13,237.91 C215.473146,237.91 214.13,239.253146 214.13,240.91 C214.13,242.566854 215.473146,243.91 217.13,243.91 L229.38,243.91 C231.036854,243.91 232.38,242.566854 232.38,240.91 C232.38,239.253146 231.036854,237.91 229.38,237.91 L229.38,237.91 Z" id="Shape"></path>
                    <path d="M440.05,251.01 L421.93,251.01 C420.273146,251.01 418.93,252.353146 418.93,254.01 C418.93,255.666854 420.273146,257.01 421.93,257.01 L440.05,257.01 C441.706854,257.01 443.05,255.666854 443.05,254.01 C443.05,252.353146 441.706854,251.01 440.05,251.01 Z" id="Shape"></path>
                </g>
                <g id="lights" transform="translate(92.000000, 0.000000)">
                    <ellipse id="Oval" fill="#FFFFFF" opacity="0.5" transform="translate(82.122638, 146.942113) rotate(-45.000000) translate(-82.122638, -146.942113) " cx="82.1226378" cy="146.942113" rx="40.17" ry="23.74"></ellipse>
                    <circle id="Oval" fill="url(#radialGradient-12)" cx="80.05" cy="153.74" r="80"></circle>
                    <g id="Group" opacity="0.85" transform="translate(46.000000, 127.000000)">
                        <polygon id="Shape" fill="#FFFFFF" points="14.38 24.22 14.38 24.21 14.38 24.22"></polygon>
                        <polygon id="Shape" fill="#FFFFFF" points="20.84 14.52 20.84 14.52 15.78 13.25 14.38 4.82 14.38 4.82 12.97 13.25 7.91 14.52 12.97 15.78 14.38 24.21 15.78 15.78"></polygon>
                        <circle id="Oval" fill="url(#radialGradient-13)" cx="14.38" cy="14.52" r="14.01"></circle>
                    </g>
                    <g id="Group" opacity="0.85" transform="translate(86.000000, 40.000000)">
                        <polygon id="Shape" fill="#FFFFFF" points="12.52 8.68 12.52 8.68 9.54 7.94 8.71 2.97 8.71 2.97 7.88 7.94 4.9 8.68 7.88 9.43 8.71 14.4 9.54 9.43"></polygon>
                        <circle id="Oval" fill="url(#radialGradient-14)" cx="8.71" cy="8.68" r="8.26"></circle>
                    </g>
                    <g id="Group" opacity="0.85" transform="translate(33.000000, 177.000000)">
                        <polygon id="Shape" fill="#FFFFFF" points="11.54 7.71 11.54 7.71 8.81 7.02 8.05 2.48 8.05 2.47 7.29 7.02 4.56 7.71 7.29 8.39 8.05 12.94 8.81 8.39"></polygon>
                        <circle id="Oval" fill="url(#radialGradient-15)" cx="8.05" cy="7.71" r="7.56"></circle>
                    </g>
                    <circle id="Oval" fill="url(#radialGradient-16)" cx="86.4" cy="50" r="50"></circle>
                    <circle id="Oval" fill="#FFFFFF" opacity="0.5" cx="45.72" cy="190" r="9.33"></circle>
                </g>
            </g>
        </g>
    </g>
</svg>